<svg width="14" height="27" viewBox="0 0 14 27" fill="none" xmlns="http://www.w3.org/2000/svg">
<path d="M1.94252 4.85629C1.94252 3.56832 2.45416 2.33311 3.3649 1.42238C4.27563 0.511644 5.51085 0 6.79881 0C8.08678 0 9.322 0.511644 10.2327 1.42238C11.1435 2.33311 11.6551 3.56832 11.6551 4.85629V15.443C12.5921 16.3993 13.2258 17.6109 13.4769 18.9259C13.7281 20.2409 13.5854 21.6008 13.0667 22.835C12.5481 24.0692 11.6766 25.1229 10.5616 25.8638C9.44656 26.6048 8.13758 27 6.79881 27C5.46005 27 4.15107 26.6048 3.03603 25.8638C1.92099 25.1229 1.04952 24.0692 0.530889 22.835C0.0122598 21.6008 -0.13044 20.2409 0.120684 18.9259C0.371808 17.6109 1.00558 16.3993 1.94252 15.443V4.85629ZM6.79881 1.94252C6.02603 1.94252 5.2849 2.2495 4.73846 2.79594C4.19202 3.34238 3.88504 4.08351 3.88504 4.85629V16.2919L3.56258 16.5833C2.82942 17.2389 2.31262 18.1017 2.08058 19.0575C1.84853 20.0133 1.91218 21.017 2.26309 21.9359C2.61401 22.8547 3.23565 23.6453 4.04575 24.2031C4.85585 24.7609 5.81623 25.0595 6.79979 25.0595C7.78334 25.0595 8.74372 24.7609 9.55382 24.2031C10.3639 23.6453 10.9856 22.8547 11.3365 21.9359C11.6874 21.017 11.751 20.0133 11.519 19.0575C11.2869 18.1017 10.7701 17.2389 10.037 16.5833L9.71259 16.29V4.85629C9.71259 4.08351 9.4056 3.34238 8.85916 2.79594C8.31273 2.2495 7.5716 1.94252 6.79881 1.94252ZM7.77007 9.71259C7.77007 9.45499 7.66774 9.20795 7.4856 9.0258C7.30345 8.84366 7.05641 8.74133 6.79881 8.74133C6.54122 8.74133 6.29418 8.84366 6.11203 9.0258C5.92988 9.20795 5.82756 9.45499 5.82756 9.71259V17.6478C5.17952 17.8769 4.63334 18.3277 4.28556 18.9206C3.93777 19.5135 3.81077 20.2102 3.927 20.8876C4.04323 21.5651 4.39521 22.1796 4.92073 22.6227C5.44625 23.0657 6.11147 23.3087 6.79881 23.3087C7.48616 23.3087 8.15138 23.0657 8.6769 22.6227C9.20242 22.1796 9.5544 21.5651 9.67063 20.8876C9.78686 20.2102 9.65986 19.5135 9.31207 18.9206C8.96429 18.3277 8.41811 17.8769 7.77007 17.6478V9.71259Z" fill="#D78E19"/>
</svg>
