<svg width="28" height="31" viewBox="0 0 28 31" fill="none" xmlns="http://www.w3.org/2000/svg">
<path d="M9.30001 22.475C8.21501 22.475 7.29792 22.1004 6.54875 21.3513C5.79959 20.6021 5.425 19.685 5.425 18.6C5.425 17.515 5.79959 16.5979 6.54875 15.8488C7.29792 15.0996 8.21501 14.725 9.30001 14.725C10.385 14.725 11.3021 15.0996 12.0513 15.8488C12.8004 16.5979 13.175 17.515 13.175 18.6C13.175 19.685 12.8004 20.6021 12.0513 21.3513C11.3021 22.1004 10.385 22.475 9.30001 22.475ZM3.1 31C2.2475 31 1.51771 30.6965 0.910626 30.0894C0.303542 29.4823 0 28.7525 0 27.9V6.2C0 5.3475 0.303542 4.61771 0.910626 4.01063C1.51771 3.40354 2.2475 3.1 3.1 3.1H4.65V0H7.75V3.1H20.15V0H23.25V3.1H24.8C25.6525 3.1 26.3823 3.40354 26.9894 4.01063C27.5965 4.61771 27.9 5.3475 27.9 6.2V27.9C27.9 28.7525 27.5965 29.4823 26.9894 30.0894C26.3823 30.6965 25.6525 31 24.8 31H3.1ZM3.1 27.9H24.8V12.4H3.1V27.9Z" fill="#1D1B20" fill-opacity="0.6"/>
</svg>
