<svg width="382" height="304" viewBox="0 0 382 304" fill="none" xmlns="http://www.w3.org/2000/svg">
<g filter="url(#filter0_d_44_560)">
<rect x="11" width="360" height="180" rx="8" fill="white" fill-opacity="0.56" shape-rendering="crispEdges"/>
</g>
<path d="M38.6307 149.455C38.6307 150.835 38.3814 152.028 37.8828 153.034C37.3842 154.04 36.7003 154.815 35.831 155.361C34.9616 155.906 33.9688 156.179 32.8523 156.179C31.7358 156.179 30.7429 155.906 29.8736 155.361C29.0043 154.815 28.3203 154.04 27.8217 153.034C27.3232 152.028 27.0739 150.835 27.0739 149.455C27.0739 148.074 27.3232 146.881 27.8217 145.875C28.3203 144.869 29.0043 144.094 29.8736 143.548C30.7429 143.003 31.7358 142.73 32.8523 142.73C33.9688 142.73 34.9616 143.003 35.831 143.548C36.7003 144.094 37.3842 144.869 37.8828 145.875C38.3814 146.881 38.6307 148.074 38.6307 149.455ZM37.0966 149.455C37.0966 148.321 36.907 147.364 36.5277 146.585C36.1527 145.805 35.6435 145.214 35 144.814C34.3608 144.413 33.6449 144.213 32.8523 144.213C32.0597 144.213 31.3416 144.413 30.6982 144.814C30.0589 145.214 29.5497 145.805 29.1705 146.585C28.7955 147.364 28.608 148.321 28.608 149.455C28.608 150.588 28.7955 151.545 29.1705 152.325C29.5497 153.104 30.0589 153.695 30.6982 154.095C31.3416 154.496 32.0597 154.696 32.8523 154.696C33.6449 154.696 34.3608 154.496 35 154.095C35.6435 153.695 36.1527 153.104 36.5277 152.325C36.907 151.545 37.0966 150.588 37.0966 149.455ZM49.12 146.182L45.4893 156H43.9553L40.3246 146.182H41.9609L44.6712 154.006H44.7734L47.4837 146.182H49.12ZM54.8761 156.205C53.93 156.205 53.114 155.996 52.4279 155.578C51.7461 155.156 51.2198 154.568 50.8491 153.814C50.4826 153.055 50.2994 152.173 50.2994 151.168C50.2994 150.162 50.4826 149.276 50.8491 148.509C51.2198 147.737 51.7354 147.136 52.396 146.706C53.0607 146.271 53.8363 146.054 54.7227 146.054C55.234 146.054 55.739 146.139 56.2376 146.31C56.7362 146.48 57.19 146.757 57.5991 147.141C58.0082 147.52 58.3342 148.023 58.5771 148.649C58.82 149.276 58.9414 150.047 58.9414 150.963V151.602H51.3732V150.298H57.4073C57.4073 149.744 57.2965 149.25 57.0749 148.815C56.8576 148.381 56.5465 148.038 56.1417 147.786C55.7411 147.535 55.2681 147.409 54.7227 147.409C54.1218 147.409 53.6019 147.558 53.163 147.857C52.7283 148.151 52.3938 148.534 52.1594 149.007C51.9251 149.48 51.8079 149.987 51.8079 150.528V151.398C51.8079 152.139 51.9357 152.768 52.1914 153.283C52.4513 153.795 52.8114 154.185 53.2717 154.453C53.7319 154.717 54.2667 154.849 54.8761 154.849C55.2724 154.849 55.6303 154.794 55.9499 154.683C56.2738 154.568 56.5529 154.398 56.7873 154.172C57.0217 153.942 57.2028 153.656 57.3306 153.315L58.788 153.724C58.6346 154.219 58.3768 154.653 58.0146 155.028C57.6523 155.399 57.2049 155.689 56.6722 155.898C56.1396 156.102 55.5408 156.205 54.8761 156.205ZM61.2362 156V146.182H62.6935V147.665H62.7958C62.9748 147.179 63.2987 146.785 63.7674 146.482C64.2362 146.18 64.7646 146.028 65.3526 146.028C65.4634 146.028 65.6019 146.031 65.7681 146.035C65.9343 146.039 66.06 146.045 66.1452 146.054V147.588C66.0941 147.575 65.9769 147.556 65.7937 147.531C65.6147 147.501 65.4251 147.486 65.2248 147.486C64.7475 147.486 64.3214 147.586 63.9464 147.786C63.5756 147.982 63.2816 148.255 63.0643 148.604C62.8512 148.95 62.7447 149.344 62.7447 149.787V156H61.2362ZM70.8226 156.23C70.2005 156.23 69.6358 156.113 69.1287 155.879C68.6216 155.64 68.2189 155.297 67.9206 154.849C67.6223 154.398 67.4732 153.852 67.4732 153.213C67.4732 152.651 67.584 152.195 67.8056 151.845C68.0272 151.491 68.3233 151.214 68.6941 151.014C69.0648 150.814 69.4739 150.665 69.9213 150.567C70.373 150.464 70.8269 150.384 71.2828 150.324C71.8794 150.247 72.3631 150.19 72.7338 150.151C73.1088 150.109 73.3816 150.038 73.552 149.94C73.7267 149.842 73.8141 149.672 73.8141 149.429V149.378C73.8141 148.747 73.6415 148.257 73.2963 147.908C72.9554 147.558 72.4377 147.384 71.7431 147.384C71.0229 147.384 70.4583 147.541 70.0492 147.857C69.6401 148.172 69.3525 148.509 69.1863 148.866L67.7544 148.355C68.0101 147.759 68.351 147.294 68.7772 146.962C69.2076 146.625 69.6763 146.391 70.1834 146.259C70.6948 146.122 71.1976 146.054 71.6919 146.054C72.0073 146.054 72.3695 146.092 72.7786 146.169C73.1919 146.241 73.5904 146.393 73.9739 146.623C74.3617 146.853 74.6834 147.2 74.9391 147.665C75.1948 148.129 75.3226 148.751 75.3226 149.531V156H73.8141V154.67H73.7374C73.6351 154.884 73.4647 155.112 73.226 155.354C72.9874 155.597 72.6699 155.804 72.2736 155.974C71.8773 156.145 71.3936 156.23 70.8226 156.23ZM71.0527 154.875C71.6493 154.875 72.1522 154.758 72.5613 154.523C72.9746 154.289 73.2857 153.987 73.4945 153.616C73.7076 153.245 73.8141 152.855 73.8141 152.446V151.065C73.7502 151.142 73.6096 151.212 73.3922 151.276C73.1792 151.336 72.932 151.389 72.6507 151.436C72.3738 151.479 72.1032 151.517 71.839 151.551C71.579 151.581 71.3681 151.607 71.2061 151.628C70.8141 151.679 70.4476 151.762 70.1067 151.877C69.7701 151.988 69.4973 152.156 69.2885 152.382C69.084 152.604 68.9817 152.906 68.9817 153.29C68.9817 153.814 69.1756 154.21 69.5634 154.479C69.9554 154.743 70.4519 154.875 71.0527 154.875ZM79.5845 142.909V156H78.076V142.909H79.5845ZM83.856 142.909V156H82.3475V142.909H83.856ZM91.886 142.909H93.7781L98.2269 153.776H98.3803L102.829 142.909H104.721V156H103.238V146.054H103.11L99.0195 156H97.5877L93.4968 146.054H93.369V156H91.886V142.909ZM107.695 156V146.182H109.204V156H107.695ZM108.462 144.545C108.168 144.545 107.915 144.445 107.702 144.245C107.493 144.045 107.388 143.804 107.388 143.523C107.388 143.241 107.493 143.001 107.702 142.8C107.915 142.6 108.168 142.5 108.462 142.5C108.756 142.5 109.008 142.6 109.216 142.8C109.43 143.001 109.536 143.241 109.536 143.523C109.536 143.804 109.43 144.045 109.216 144.245C109.008 144.445 108.756 144.545 108.462 144.545ZM113.092 146.182L115.444 150.196L117.796 146.182H119.535L116.364 151.091L119.535 156H117.796L115.444 152.19L113.092 156H111.353L114.472 151.091L111.353 146.182H113.092Z" fill="black"/>
<path d="M187.818 147.141C187.729 146.83 187.603 146.555 187.441 146.316C187.279 146.073 187.081 145.869 186.847 145.702C186.616 145.532 186.352 145.402 186.054 145.312C185.76 145.223 185.434 145.178 185.076 145.178C184.407 145.178 183.819 145.344 183.312 145.677C182.809 146.009 182.417 146.493 182.136 147.128C181.854 147.759 181.714 148.53 181.714 149.442C181.714 150.354 181.852 151.129 182.129 151.768C182.406 152.408 182.798 152.896 183.305 153.232C183.812 153.565 184.411 153.731 185.102 153.731C185.728 153.731 186.263 153.62 186.706 153.398C187.153 153.173 187.494 152.855 187.729 152.446C187.967 152.037 188.087 151.553 188.087 150.995L188.649 151.078H185.274V148.994H190.752V150.643C190.752 151.794 190.509 152.783 190.023 153.609C189.538 154.432 188.869 155.067 188.016 155.514C187.164 155.957 186.188 156.179 185.089 156.179C183.862 156.179 182.783 155.908 181.854 155.367C180.925 154.822 180.201 154.048 179.681 153.047C179.165 152.041 178.908 150.848 178.908 149.467C178.908 148.406 179.061 147.46 179.368 146.629C179.679 145.794 180.114 145.087 180.672 144.507C181.23 143.928 181.88 143.487 182.621 143.184C183.363 142.881 184.166 142.73 185.031 142.73C185.773 142.73 186.463 142.839 187.102 143.056C187.741 143.269 188.308 143.572 188.803 143.964C189.301 144.356 189.708 144.822 190.023 145.364C190.339 145.901 190.541 146.493 190.631 147.141H187.818ZM197.216 156.192C196.223 156.192 195.365 155.981 194.64 155.559C193.92 155.133 193.364 154.54 192.972 153.782C192.58 153.019 192.384 152.135 192.384 151.129C192.384 150.115 192.58 149.229 192.972 148.47C193.364 147.707 193.92 147.115 194.64 146.693C195.365 146.267 196.223 146.054 197.216 146.054C198.209 146.054 199.066 146.267 199.786 146.693C200.51 147.115 201.068 147.707 201.46 148.47C201.852 149.229 202.048 150.115 202.048 151.129C202.048 152.135 201.852 153.019 201.46 153.782C201.068 154.54 200.51 155.133 199.786 155.559C199.066 155.981 198.209 156.192 197.216 156.192ZM197.229 154.082C197.681 154.082 198.058 153.955 198.36 153.699C198.663 153.439 198.891 153.085 199.044 152.638C199.202 152.19 199.281 151.681 199.281 151.11C199.281 150.539 199.202 150.03 199.044 149.582C198.891 149.135 198.663 148.781 198.36 148.521C198.058 148.261 197.681 148.131 197.229 148.131C196.773 148.131 196.389 148.261 196.078 148.521C195.771 148.781 195.539 149.135 195.382 149.582C195.228 150.03 195.151 150.539 195.151 151.11C195.151 151.681 195.228 152.19 195.382 152.638C195.539 153.085 195.771 153.439 196.078 153.699C196.389 153.955 196.773 154.082 197.229 154.082ZM208.255 156.192C207.262 156.192 206.404 155.981 205.679 155.559C204.959 155.133 204.403 154.54 204.011 153.782C203.619 153.019 203.423 152.135 203.423 151.129C203.423 150.115 203.619 149.229 204.011 148.47C204.403 147.707 204.959 147.115 205.679 146.693C206.404 146.267 207.262 146.054 208.255 146.054C209.248 146.054 210.105 146.267 210.825 146.693C211.549 147.115 212.107 147.707 212.499 148.47C212.892 149.229 213.088 150.115 213.088 151.129C213.088 152.135 212.892 153.019 212.499 153.782C212.107 154.54 211.549 155.133 210.825 155.559C210.105 155.981 209.248 156.192 208.255 156.192ZM208.268 154.082C208.72 154.082 209.097 153.955 209.399 153.699C209.702 153.439 209.93 153.085 210.083 152.638C210.241 152.19 210.32 151.681 210.32 151.11C210.32 150.539 210.241 150.03 210.083 149.582C209.93 149.135 209.702 148.781 209.399 148.521C209.097 148.261 208.72 148.131 208.268 148.131C207.812 148.131 207.428 148.261 207.117 148.521C206.811 148.781 206.578 149.135 206.421 149.582C206.267 150.03 206.191 150.539 206.191 151.11C206.191 151.681 206.267 152.19 206.421 152.638C206.578 153.085 206.811 153.439 207.117 153.699C207.428 153.955 207.812 154.082 208.268 154.082ZM218.476 156.16C217.73 156.16 217.055 155.968 216.45 155.585C215.849 155.197 215.372 154.628 215.018 153.878C214.669 153.124 214.494 152.199 214.494 151.104C214.494 149.979 214.675 149.043 215.037 148.298C215.399 147.548 215.881 146.987 216.482 146.616C217.087 146.241 217.749 146.054 218.47 146.054C219.019 146.054 219.477 146.148 219.844 146.335C220.215 146.518 220.513 146.749 220.739 147.026C220.969 147.298 221.144 147.567 221.263 147.831H221.346V142.909H224.063V156H221.378V154.428H221.263C221.135 154.7 220.954 154.971 220.72 155.239C220.49 155.504 220.189 155.723 219.818 155.898C219.452 156.072 219.004 156.16 218.476 156.16ZM219.339 153.993C219.778 153.993 220.149 153.874 220.451 153.635C220.758 153.392 220.992 153.053 221.154 152.619C221.32 152.184 221.404 151.675 221.404 151.091C221.404 150.507 221.323 150 221.161 149.57C220.999 149.139 220.764 148.807 220.458 148.572C220.151 148.338 219.778 148.221 219.339 148.221C218.892 148.221 218.514 148.342 218.208 148.585C217.901 148.828 217.669 149.165 217.511 149.595C217.353 150.026 217.274 150.524 217.274 151.091C217.274 151.662 217.353 152.167 217.511 152.606C217.673 153.04 217.905 153.381 218.208 153.629C218.514 153.871 218.892 153.993 219.339 153.993Z" fill="#2F6F4E"/>
<path d="M27.5852 97V83.9091H35.4858V85.3153H29.1705V89.7386H35.0767V91.1449H29.1705V95.5938H35.5881V97H27.5852ZM45.093 89.3807L43.7379 89.7642C43.6527 89.5384 43.527 89.3189 43.3608 89.1058C43.1989 88.8885 42.9773 88.7095 42.696 88.5689C42.4148 88.4283 42.0547 88.358 41.6158 88.358C41.0149 88.358 40.5142 88.4964 40.1136 88.7734C39.7173 89.0462 39.5192 89.3935 39.5192 89.8153C39.5192 90.1903 39.6555 90.4865 39.9283 90.7038C40.201 90.9212 40.6271 91.1023 41.2067 91.2472L42.6641 91.6051C43.5419 91.8182 44.196 92.1442 44.6264 92.5831C45.0568 93.0178 45.272 93.5781 45.272 94.2642C45.272 94.8267 45.1101 95.3295 44.7862 95.7727C44.4666 96.2159 44.0192 96.5653 43.4439 96.821C42.8686 97.0767 42.1996 97.2045 41.4368 97.2045C40.4354 97.2045 39.6065 96.9872 38.9503 96.5526C38.294 96.1179 37.8786 95.483 37.7038 94.6477L39.1357 94.2898C39.272 94.8182 39.5298 95.2145 39.9091 95.4787C40.2926 95.7429 40.7933 95.875 41.4112 95.875C42.1143 95.875 42.6726 95.7259 43.0859 95.4276C43.5036 95.125 43.7124 94.7628 43.7124 94.3409C43.7124 94 43.593 93.7145 43.3544 93.4844C43.1158 93.25 42.7493 93.0753 42.255 92.9602L40.6186 92.5767C39.7195 92.3636 39.0589 92.0334 38.6371 91.5859C38.2195 91.1342 38.0107 90.5696 38.0107 89.892C38.0107 89.3381 38.1662 88.848 38.4773 88.4219C38.7926 87.9957 39.2209 87.6612 39.7621 87.4183C40.3075 87.1754 40.9254 87.054 41.6158 87.054C42.5874 87.054 43.3501 87.267 43.9041 87.6932C44.4624 88.1193 44.8587 88.6818 45.093 89.3807ZM51.8127 87.1818V88.4602H46.7246V87.1818H51.8127ZM48.2076 84.8295H49.7161V94.1875C49.7161 94.6136 49.7779 94.9332 49.9015 95.1463C50.0293 95.3551 50.1912 95.4957 50.3873 95.5682C50.5875 95.6364 50.7985 95.6705 51.0201 95.6705C51.1863 95.6705 51.3226 95.6619 51.4292 95.6449C51.5357 95.6236 51.6209 95.6065 51.6848 95.5938L51.9917 96.9489C51.8894 96.9872 51.7466 97.0256 51.5634 97.0639C51.3801 97.1065 51.1479 97.1278 50.8667 97.1278C50.4405 97.1278 50.0229 97.0362 49.6138 96.853C49.209 96.6697 48.8723 96.3906 48.6039 96.0156C48.3397 95.6406 48.2076 95.1676 48.2076 94.5966V84.8295ZM54.0819 97V87.1818H55.5904V97H54.0819ZM54.8489 85.5455C54.5549 85.5455 54.3013 85.4453 54.0882 85.245C53.8794 85.0447 53.775 84.804 53.775 84.5227C53.775 84.2415 53.8794 84.0007 54.0882 83.8004C54.3013 83.6001 54.5549 83.5 54.8489 83.5C55.1429 83.5 55.3944 83.6001 55.6032 83.8004C55.8162 84.0007 55.9228 84.2415 55.9228 84.5227C55.9228 84.804 55.8162 85.0447 55.6032 85.245C55.3944 85.4453 55.1429 85.5455 54.8489 85.5455ZM58.3533 97V87.1818H59.8107V88.7159H59.9386C60.1431 88.1918 60.4734 87.7848 60.9293 87.495C61.3853 87.201 61.9329 87.054 62.5721 87.054C63.2198 87.054 63.7589 87.201 64.1893 87.495C64.6239 87.7848 64.9627 88.1918 65.2056 88.7159H65.3079C65.5593 88.2088 65.9364 87.8061 66.4393 87.5078C66.9421 87.2053 67.5451 87.054 68.2482 87.054C69.1261 87.054 69.8441 87.3288 70.4023 87.8786C70.9606 88.424 71.2397 89.2741 71.2397 90.429V97H69.7312V90.429C69.7312 89.7045 69.533 89.1868 69.1367 88.8757C68.7404 88.5646 68.2738 88.4091 67.7369 88.4091C67.0465 88.4091 66.5117 88.6179 66.1325 89.0355C65.7532 89.4489 65.5636 89.973 65.5636 90.608V97H64.0295V90.2756C64.0295 89.7173 63.8484 89.2678 63.4862 88.9268C63.1239 88.5817 62.6573 88.4091 62.0863 88.4091C61.6942 88.4091 61.3278 88.5135 60.9869 88.7223C60.6502 88.9311 60.3775 89.2209 60.1687 89.5916C59.9641 89.9581 59.8619 90.3821 59.8619 90.8636V97H58.3533ZM76.8871 97.2301C76.2649 97.2301 75.7003 97.1129 75.1932 96.8786C74.6861 96.6399 74.2834 96.2969 73.9851 95.8494C73.6868 95.3977 73.5376 94.8523 73.5376 94.2131C73.5376 93.6506 73.6484 93.1946 73.87 92.8452C74.0916 92.4915 74.3878 92.2145 74.7585 92.0142C75.1293 91.8139 75.5384 91.6648 75.9858 91.5668C76.4375 91.4645 76.8913 91.3835 77.3473 91.3239C77.9439 91.2472 78.4276 91.1896 78.7983 91.1513C79.1733 91.1087 79.446 91.0384 79.6165 90.9403C79.7912 90.8423 79.8786 90.6719 79.8786 90.429V90.3778C79.8786 89.7472 79.706 89.2571 79.3608 88.9077C79.0199 88.5582 78.5021 88.3835 77.8075 88.3835C77.0874 88.3835 76.5227 88.5412 76.1136 88.8565C75.7045 89.1719 75.4169 89.5085 75.2507 89.8665L73.8189 89.3551C74.0746 88.7585 74.4155 88.294 74.8416 87.9616C75.272 87.625 75.7408 87.3906 76.2479 87.2585C76.7592 87.1222 77.2621 87.054 77.7564 87.054C78.0717 87.054 78.4339 87.0923 78.843 87.169C79.2564 87.2415 79.6548 87.3928 80.0384 87.6229C80.4261 87.853 80.7479 88.2003 81.0036 88.6648C81.2592 89.1293 81.3871 89.7514 81.3871 90.5312V97H79.8786V95.6705H79.8018C79.6996 95.8835 79.5291 96.1115 79.2905 96.3544C79.0518 96.5973 78.7344 96.804 78.3381 96.9744C77.9418 97.1449 77.4581 97.2301 76.8871 97.2301ZM77.1172 95.875C77.7138 95.875 78.2166 95.7578 78.6257 95.5234C79.0391 95.2891 79.3501 94.9865 79.5589 94.6158C79.772 94.245 79.8786 93.8551 79.8786 93.446V92.0653C79.8146 92.142 79.674 92.2124 79.4567 92.2763C79.2436 92.3359 78.9964 92.3892 78.7152 92.4361C78.4382 92.4787 78.1676 92.517 77.9034 92.5511C77.6435 92.581 77.4325 92.6065 77.2706 92.6278C76.8786 92.679 76.5121 92.7621 76.1712 92.8771C75.8345 92.9879 75.5618 93.1562 75.353 93.3821C75.1484 93.6037 75.0462 93.9062 75.0462 94.2898C75.0462 94.8139 75.2401 95.2102 75.6278 95.4787C76.0199 95.7429 76.5163 95.875 77.1172 95.875ZM88.4103 87.1818V88.4602H83.3223V87.1818H88.4103ZM84.8052 84.8295H86.3137V94.1875C86.3137 94.6136 86.3755 94.9332 86.4991 95.1463C86.627 95.3551 86.7889 95.4957 86.9849 95.5682C87.1852 95.6364 87.3961 95.6705 87.6177 95.6705C87.7839 95.6705 87.9203 95.6619 88.0268 95.6449C88.1333 95.6236 88.2186 95.6065 88.2825 95.5938L88.5893 96.9489C88.487 96.9872 88.3443 97.0256 88.161 97.0639C87.9778 97.1065 87.7456 97.1278 87.4643 97.1278C87.0382 97.1278 86.6206 97.0362 86.2115 96.853C85.8066 96.6697 85.47 96.3906 85.2015 96.0156C84.9373 95.6406 84.8052 95.1676 84.8052 94.5966V84.8295ZM94.6905 97.2045C93.7445 97.2045 92.9284 96.9957 92.2424 96.5781C91.5605 96.1562 91.0343 95.5682 90.6635 94.8139C90.2971 94.0554 90.1138 93.1733 90.1138 92.1676C90.1138 91.1619 90.2971 90.2756 90.6635 89.5085C91.0343 88.7372 91.5499 88.1364 92.2104 87.706C92.8752 87.2713 93.6507 87.054 94.5371 87.054C95.0485 87.054 95.5534 87.1392 96.052 87.3097C96.5506 87.4801 97.0044 87.7571 97.4135 88.1406C97.8226 88.5199 98.1486 89.0227 98.3915 89.6491C98.6344 90.2756 98.7559 91.0469 98.7559 91.9631V92.6023H91.1877V91.2983H97.2218C97.2218 90.7443 97.111 90.25 96.8894 89.8153C96.6721 89.3807 96.361 89.0376 95.9561 88.7862C95.5556 88.5348 95.0826 88.4091 94.5371 88.4091C93.9363 88.4091 93.4164 88.5582 92.9775 88.8565C92.5428 89.1506 92.2083 89.5341 91.9739 90.0071C91.7395 90.4801 91.6223 90.9872 91.6223 91.5284V92.3977C91.6223 93.1392 91.7502 93.7678 92.0059 94.2834C92.2658 94.7947 92.6259 95.1847 93.0861 95.4531C93.5463 95.7173 94.0811 95.8494 94.6905 95.8494C95.0868 95.8494 95.4448 95.794 95.7644 95.6832C96.0882 95.5682 96.3674 95.3977 96.6017 95.1719C96.8361 94.9418 97.0172 94.6562 97.1451 94.3153L98.6025 94.7244C98.449 95.2188 98.1912 95.6534 97.829 96.0284C97.4668 96.3991 97.0194 96.6889 96.4867 96.8977C95.954 97.1023 95.3553 97.2045 94.6905 97.2045ZM104.758 97.2045C103.94 97.2045 103.218 96.9979 102.591 96.5845C101.965 96.1669 101.475 95.5788 101.121 94.8203C100.767 94.0575 100.59 93.1562 100.59 92.1165C100.59 91.0852 100.767 90.1903 101.121 89.4318C101.475 88.6733 101.967 88.0874 102.597 87.674C103.228 87.2607 103.957 87.054 104.784 87.054C105.423 87.054 105.928 87.1605 106.298 87.3736C106.673 87.5824 106.959 87.821 107.155 88.0895C107.355 88.3537 107.511 88.571 107.622 88.7415H107.749V83.9091H109.258V97H107.801V95.4915H107.622C107.511 95.6705 107.353 95.8963 107.149 96.169C106.944 96.4375 106.652 96.6783 106.273 96.8913C105.894 97.1001 105.389 97.2045 104.758 97.2045ZM104.963 95.8494C105.568 95.8494 106.079 95.6918 106.497 95.3764C106.914 95.0568 107.232 94.6158 107.449 94.0533C107.666 93.4865 107.775 92.8324 107.775 92.0909C107.775 91.358 107.669 90.7166 107.455 90.1669C107.242 89.6129 106.927 89.1825 106.509 88.8757C106.092 88.5646 105.576 88.4091 104.963 88.4091C104.323 88.4091 103.791 88.5732 103.365 88.9013C102.943 89.2251 102.625 89.6662 102.412 90.2244C102.203 90.7784 102.099 91.4006 102.099 92.0909C102.099 92.7898 102.205 93.4247 102.419 93.9957C102.636 94.5625 102.955 95.0142 103.377 95.3509C103.803 95.6832 104.332 95.8494 104.963 95.8494ZM117.497 83.9091H119.389L123.838 94.7756H123.992L128.441 83.9091H130.333V97H128.85V87.054H128.722L124.631 97H123.199L119.108 87.054H118.98V97H117.497V83.9091ZM137.295 97.2045C136.409 97.2045 135.631 96.9936 134.962 96.5717C134.297 96.1499 133.777 95.5597 133.402 94.8011C133.032 94.0426 132.846 93.1562 132.846 92.142C132.846 91.1193 133.032 90.2266 133.402 89.4638C133.777 88.701 134.297 88.1087 134.962 87.6868C135.631 87.2649 136.409 87.054 137.295 87.054C138.181 87.054 138.957 87.2649 139.622 87.6868C140.291 88.1087 140.811 88.701 141.181 89.4638C141.556 90.2266 141.744 91.1193 141.744 92.142C141.744 93.1562 141.556 94.0426 141.181 94.8011C140.811 95.5597 140.291 96.1499 139.622 96.5717C138.957 96.9936 138.181 97.2045 137.295 97.2045ZM137.295 95.8494C137.968 95.8494 138.522 95.6768 138.957 95.3317C139.392 94.9865 139.713 94.5327 139.922 93.9702C140.131 93.4077 140.235 92.7983 140.235 92.142C140.235 91.4858 140.131 90.8743 139.922 90.3075C139.713 89.7408 139.392 89.2827 138.957 88.9332C138.522 88.5838 137.968 88.4091 137.295 88.4091C136.622 88.4091 136.068 88.5838 135.633 88.9332C135.199 89.2827 134.877 89.7408 134.668 90.3075C134.459 90.8743 134.355 91.4858 134.355 92.142C134.355 92.7983 134.459 93.4077 134.668 93.9702C134.877 94.5327 135.199 94.9865 135.633 95.3317C136.068 95.6768 136.622 95.8494 137.295 95.8494ZM144.047 97V87.1818H145.555V97H144.047ZM144.814 85.5455C144.52 85.5455 144.266 85.4453 144.053 85.245C143.844 85.0447 143.74 84.804 143.74 84.5227C143.74 84.2415 143.844 84.0007 144.053 83.8004C144.266 83.6001 144.52 83.5 144.814 83.5C145.108 83.5 145.359 83.6001 145.568 83.8004C145.781 84.0007 145.888 84.2415 145.888 84.5227C145.888 84.804 145.781 85.0447 145.568 85.245C145.359 85.4453 145.108 85.5455 144.814 85.5455ZM155.273 89.3807L153.918 89.7642C153.832 89.5384 153.707 89.3189 153.54 89.1058C153.379 88.8885 153.157 88.7095 152.876 88.5689C152.594 88.4283 152.234 88.358 151.795 88.358C151.195 88.358 150.694 88.4964 150.293 88.7734C149.897 89.0462 149.699 89.3935 149.699 89.8153C149.699 90.1903 149.835 90.4865 150.108 90.7038C150.381 90.9212 150.807 91.1023 151.386 91.2472L152.844 91.6051C153.722 91.8182 154.376 92.1442 154.806 92.5831C155.237 93.0178 155.452 93.5781 155.452 94.2642C155.452 94.8267 155.29 95.3295 154.966 95.7727C154.646 96.2159 154.199 96.5653 153.624 96.821C153.048 97.0767 152.379 97.2045 151.616 97.2045C150.615 97.2045 149.786 96.9872 149.13 96.5526C148.474 96.1179 148.058 95.483 147.884 94.6477L149.315 94.2898C149.452 94.8182 149.71 95.2145 150.089 95.4787C150.472 95.7429 150.973 95.875 151.591 95.875C152.294 95.875 152.852 95.7259 153.266 95.4276C153.683 95.125 153.892 94.7628 153.892 94.3409C153.892 94 153.773 93.7145 153.534 93.4844C153.295 93.25 152.929 93.0753 152.435 92.9602L150.798 92.5767C149.899 92.3636 149.239 92.0334 148.817 91.5859C148.399 91.1342 148.19 90.5696 148.19 89.892C148.19 89.3381 148.346 88.848 148.657 88.4219C148.972 87.9957 149.401 87.6612 149.942 87.4183C150.487 87.1754 151.105 87.054 151.795 87.054C152.767 87.054 153.53 87.267 154.084 87.6932C154.642 88.1193 155.038 88.6818 155.273 89.3807ZM161.992 87.1818V88.4602H156.904V87.1818H161.992ZM158.387 84.8295H159.896V94.1875C159.896 94.6136 159.958 94.9332 160.081 95.1463C160.209 95.3551 160.371 95.4957 160.567 95.5682C160.767 95.6364 160.978 95.6705 161.2 95.6705C161.366 95.6705 161.502 95.6619 161.609 95.6449C161.715 95.6236 161.801 95.6065 161.865 95.5938L162.171 96.9489C162.069 96.9872 161.926 97.0256 161.743 97.0639C161.56 97.1065 161.328 97.1278 161.046 97.1278C160.62 97.1278 160.203 97.0362 159.794 96.853C159.389 96.6697 159.052 96.3906 158.784 96.0156C158.519 95.6406 158.387 95.1676 158.387 94.5966V84.8295ZM170.449 92.9858V87.1818H171.958V97H170.449V95.3381H170.347C170.117 95.8366 169.759 96.2607 169.273 96.6101C168.787 96.9553 168.173 97.1278 167.432 97.1278C166.818 97.1278 166.273 96.9936 165.796 96.7251C165.318 96.4524 164.943 96.0433 164.671 95.4979C164.398 94.9482 164.262 94.2557 164.262 93.4205V87.1818H165.77V93.3182C165.77 94.0341 165.97 94.6051 166.371 95.0312C166.776 95.4574 167.291 95.6705 167.918 95.6705C168.293 95.6705 168.674 95.5746 169.062 95.3828C169.454 95.1911 169.782 94.897 170.046 94.5007C170.315 94.1044 170.449 93.5994 170.449 92.9858ZM174.721 97V87.1818H176.178V88.6648H176.28C176.459 88.179 176.783 87.7848 177.252 87.4822C177.721 87.1797 178.249 87.0284 178.837 87.0284C178.948 87.0284 179.086 87.0305 179.252 87.0348C179.419 87.0391 179.544 87.0455 179.63 87.054V88.5881C179.578 88.5753 179.461 88.5561 179.278 88.5305C179.099 88.5007 178.909 88.4858 178.709 88.4858C178.232 88.4858 177.806 88.5859 177.431 88.7862C177.06 88.9822 176.766 89.255 176.549 89.6044C176.336 89.9496 176.229 90.3437 176.229 90.7869V97H174.721ZM185.235 97.2045C184.289 97.2045 183.473 96.9957 182.787 96.5781C182.105 96.1562 181.579 95.5682 181.208 94.8139C180.842 94.0554 180.659 93.1733 180.659 92.1676C180.659 91.1619 180.842 90.2756 181.208 89.5085C181.579 88.7372 182.095 88.1364 182.755 87.706C183.42 87.2713 184.196 87.054 185.082 87.054C185.593 87.054 186.098 87.1392 186.597 87.3097C187.096 87.4801 187.549 87.7571 187.958 88.1406C188.368 88.5199 188.694 89.0227 188.936 89.6491C189.179 90.2756 189.301 91.0469 189.301 91.9631V92.6023H181.733V91.2983H187.767C187.767 90.7443 187.656 90.25 187.434 89.8153C187.217 89.3807 186.906 89.0376 186.501 88.7862C186.1 88.5348 185.627 88.4091 185.082 88.4091C184.481 88.4091 183.961 88.5582 183.522 88.8565C183.088 89.1506 182.753 89.5341 182.519 90.0071C182.284 90.4801 182.167 90.9872 182.167 91.5284V92.3977C182.167 93.1392 182.295 93.7678 182.551 94.2834C182.811 94.7947 183.171 95.1847 183.631 95.4531C184.091 95.7173 184.626 95.8494 185.235 95.8494C185.632 95.8494 185.99 95.794 186.309 95.6832C186.633 95.5682 186.912 95.3977 187.147 95.1719C187.381 94.9418 187.562 94.6562 187.69 94.3153L189.147 94.7244C188.994 95.2188 188.736 95.6534 188.374 96.0284C188.012 96.3991 187.564 96.6889 187.032 96.8977C186.499 97.1023 185.9 97.2045 185.235 97.2045ZM200.723 97.179C199.973 97.179 199.298 97.0298 198.697 96.7315C198.096 96.4332 197.615 96.0241 197.252 95.5043C196.89 94.9844 196.692 94.392 196.658 93.7273H198.192C198.252 94.3196 198.52 94.8097 198.998 95.1974C199.479 95.581 200.054 95.7727 200.723 95.7727C201.26 95.7727 201.738 95.647 202.155 95.3956C202.577 95.1442 202.907 94.799 203.146 94.3601C203.389 93.9169 203.51 93.4162 203.51 92.858C203.51 92.2869 203.385 91.7777 203.133 91.3303C202.886 90.8786 202.545 90.5227 202.11 90.2628C201.676 90.0028 201.179 89.8707 200.621 89.8665C200.221 89.8622 199.809 89.924 199.387 90.0518C198.966 90.1754 198.618 90.3352 198.346 90.5312L196.863 90.3523L197.655 83.9091H204.456V85.3153H198.985L198.525 89.1761H198.601C198.87 88.9631 199.206 88.7862 199.611 88.6456C200.016 88.505 200.438 88.4347 200.877 88.4347C201.678 88.4347 202.392 88.6264 203.018 89.0099C203.649 89.3892 204.143 89.9091 204.501 90.5696C204.863 91.2301 205.044 91.9844 205.044 92.8324C205.044 93.6676 204.857 94.4134 204.482 95.0696C204.111 95.7216 203.6 96.2372 202.948 96.6165C202.296 96.9915 201.554 97.179 200.723 97.179ZM211.675 97.179C210.925 97.179 210.249 97.0298 209.648 96.7315C209.047 96.4332 208.566 96.0241 208.204 95.5043C207.841 94.9844 207.643 94.392 207.609 93.7273H209.143C209.203 94.3196 209.471 94.8097 209.949 95.1974C210.43 95.581 211.006 95.7727 211.675 95.7727C212.211 95.7727 212.689 95.647 213.106 95.3956C213.528 95.1442 213.858 94.799 214.097 94.3601C214.34 93.9169 214.461 93.4162 214.461 92.858C214.461 92.2869 214.336 91.7777 214.084 91.3303C213.837 90.8786 213.496 90.5227 213.062 90.2628C212.627 90.0028 212.131 89.8707 211.572 89.8665C211.172 89.8622 210.76 89.924 210.339 90.0518C209.917 90.1754 209.569 90.3352 209.297 90.5312L207.814 90.3523L208.606 83.9091H215.407V85.3153H209.936L209.476 89.1761H209.552C209.821 88.9631 210.157 88.7862 210.562 88.6456C210.967 88.505 211.389 88.4347 211.828 88.4347C212.629 88.4347 213.343 88.6264 213.969 89.0099C214.6 89.3892 215.094 89.9091 215.452 90.5696C215.814 91.2301 215.996 91.9844 215.996 92.8324C215.996 93.6676 215.808 94.4134 215.433 95.0696C215.062 95.7216 214.551 96.2372 213.899 96.6165C213.247 96.9915 212.506 97.179 211.675 97.179ZM225.208 94.5455V93.8551C225.208 93.3778 225.306 92.9411 225.502 92.5447C225.702 92.1442 225.992 91.8246 226.371 91.5859C226.755 91.343 227.219 91.2216 227.765 91.2216C228.319 91.2216 228.783 91.343 229.158 91.5859C229.533 91.8246 229.817 92.1442 230.009 92.5447C230.2 92.9411 230.296 93.3778 230.296 93.8551V94.5455C230.296 95.0227 230.198 95.4616 230.002 95.8622C229.81 96.2585 229.525 96.5781 229.146 96.821C228.771 97.0597 228.31 97.179 227.765 97.179C227.211 97.179 226.744 97.0597 226.365 96.821C225.986 96.5781 225.698 96.2585 225.502 95.8622C225.306 95.4616 225.208 95.0227 225.208 94.5455ZM226.512 93.8551V94.5455C226.512 94.9418 226.606 95.2976 226.793 95.6129C226.981 95.924 227.305 96.0795 227.765 96.0795C228.212 96.0795 228.528 95.924 228.711 95.6129C228.898 95.2976 228.992 94.9418 228.992 94.5455V93.8551C228.992 93.4588 228.903 93.1051 228.724 92.794C228.545 92.4787 228.225 92.321 227.765 92.321C227.317 92.321 226.996 92.4787 226.8 92.794C226.608 93.1051 226.512 93.4588 226.512 93.8551ZM218.688 87.054V86.3636C218.688 85.8864 218.786 85.4496 218.982 85.0533C219.183 84.6527 219.472 84.3331 219.852 84.0945C220.235 83.8516 220.7 83.7301 221.245 83.7301C221.799 83.7301 222.263 83.8516 222.638 84.0945C223.013 84.3331 223.297 84.6527 223.489 85.0533C223.68 85.4496 223.776 85.8864 223.776 86.3636V87.054C223.776 87.5312 223.678 87.9702 223.482 88.3707C223.29 88.767 223.005 89.0866 222.626 89.3295C222.251 89.5682 221.79 89.6875 221.245 89.6875C220.691 89.6875 220.224 89.5682 219.845 89.3295C219.466 89.0866 219.178 88.767 218.982 88.3707C218.786 87.9702 218.688 87.5312 218.688 87.054ZM219.992 86.3636V87.054C219.992 87.4503 220.086 87.8061 220.273 88.1214C220.461 88.4325 220.785 88.5881 221.245 88.5881C221.692 88.5881 222.008 88.4325 222.191 88.1214C222.379 87.8061 222.472 87.4503 222.472 87.054V86.3636C222.472 85.9673 222.383 85.6136 222.204 85.3026C222.025 84.9872 221.705 84.8295 221.245 84.8295C220.798 84.8295 220.476 84.9872 220.28 85.3026C220.088 85.6136 219.992 85.9673 219.992 86.3636ZM219.174 97L228.174 83.9091H229.631L220.631 97H219.174ZM243.873 89.7514V91.1577H238.146V89.7514H243.873ZM260.973 97.179C260.436 97.1705 259.899 97.0682 259.362 96.8722C258.825 96.6761 258.335 96.3459 257.892 95.8814C257.449 95.4126 257.093 94.7798 256.825 93.983C256.556 93.1818 256.422 92.1761 256.422 90.9659C256.422 89.8068 256.531 88.7798 256.748 87.8849C256.965 86.9858 257.281 86.2294 257.694 85.6158C258.107 84.9979 258.606 84.5291 259.19 84.2095C259.778 83.8899 260.441 83.7301 261.178 83.7301C261.911 83.7301 262.563 83.8771 263.134 84.1712C263.709 84.4609 264.178 84.8658 264.54 85.3857C264.902 85.9055 265.137 86.5043 265.243 87.1818H263.683C263.539 86.5937 263.257 86.1058 262.84 85.718C262.422 85.3303 261.868 85.1364 261.178 85.1364C260.164 85.1364 259.365 85.5774 258.781 86.4595C258.201 87.3416 257.909 88.5795 257.905 90.1733H258.007C258.246 89.8111 258.529 89.5021 258.857 89.2464C259.19 88.9865 259.556 88.7862 259.957 88.6456C260.357 88.505 260.781 88.4347 261.229 88.4347C261.979 88.4347 262.665 88.6222 263.287 88.9972C263.909 89.3679 264.408 89.8814 264.783 90.5376C265.158 91.1896 265.345 91.9375 265.345 92.7812C265.345 93.5909 265.164 94.3324 264.802 95.0057C264.44 95.6747 263.931 96.2074 263.274 96.6037C262.622 96.9957 261.855 97.1875 260.973 97.179ZM260.973 95.7727C261.51 95.7727 261.992 95.6385 262.418 95.37C262.848 95.1016 263.187 94.7415 263.434 94.2898C263.686 93.8381 263.811 93.3352 263.811 92.7812C263.811 92.2401 263.69 91.7479 263.447 91.3047C263.208 90.8572 262.878 90.5014 262.456 90.2372C262.039 89.973 261.561 89.8409 261.024 89.8409C260.619 89.8409 260.242 89.9219 259.893 90.0838C259.544 90.2415 259.237 90.4588 258.972 90.7358C258.713 91.0128 258.508 91.3303 258.359 91.6882C258.21 92.0419 258.135 92.4148 258.135 92.8068C258.135 93.3267 258.257 93.8125 258.499 94.2642C258.747 94.7159 259.083 95.0803 259.509 95.3572C259.94 95.6342 260.428 95.7727 260.973 95.7727ZM272.129 97.179C271.166 97.179 270.346 96.9169 269.668 96.3928C268.99 95.8643 268.473 95.0994 268.115 94.098C267.757 93.0923 267.578 91.8778 267.578 90.4545C267.578 89.0398 267.757 87.8317 268.115 86.8303C268.477 85.8246 268.997 85.0575 269.674 84.5291C270.356 83.9964 271.174 83.7301 272.129 83.7301C273.083 83.7301 273.9 83.9964 274.577 84.5291C275.259 85.0575 275.779 85.8246 276.137 86.8303C276.499 87.8317 276.68 89.0398 276.68 90.4545C276.68 91.8778 276.501 93.0923 276.143 94.098C275.785 95.0994 275.267 95.8643 274.59 96.3928C273.912 96.9169 273.092 97.179 272.129 97.179ZM272.129 95.7727C273.083 95.7727 273.825 95.3125 274.353 94.392C274.882 93.4716 275.146 92.1591 275.146 90.4545C275.146 89.321 275.025 88.3558 274.782 87.5589C274.543 86.7621 274.198 86.1548 273.746 85.7372C273.299 85.3196 272.76 85.1108 272.129 85.1108C271.183 85.1108 270.444 85.5774 269.911 86.5107C269.378 87.4396 269.112 88.7543 269.112 90.4545C269.112 91.5881 269.231 92.5511 269.47 93.3438C269.708 94.1364 270.051 94.7393 270.499 95.1527C270.951 95.5661 271.494 95.7727 272.129 95.7727ZM285.782 94.5455V93.8551C285.782 93.3778 285.88 92.9411 286.076 92.5447C286.277 92.1442 286.566 91.8246 286.946 91.5859C287.329 91.343 287.794 91.2216 288.339 91.2216C288.893 91.2216 289.358 91.343 289.733 91.5859C290.108 91.8246 290.391 92.1442 290.583 92.5447C290.775 92.9411 290.87 93.3778 290.87 93.8551V94.5455C290.87 95.0227 290.772 95.4616 290.576 95.8622C290.385 96.2585 290.099 96.5781 289.72 96.821C289.345 97.0597 288.885 97.179 288.339 97.179C287.785 97.179 287.319 97.0597 286.939 96.821C286.56 96.5781 286.272 96.2585 286.076 95.8622C285.88 95.4616 285.782 95.0227 285.782 94.5455ZM287.086 93.8551V94.5455C287.086 94.9418 287.18 95.2976 287.368 95.6129C287.555 95.924 287.879 96.0795 288.339 96.0795C288.787 96.0795 289.102 95.924 289.285 95.6129C289.473 95.2976 289.566 94.9418 289.566 94.5455V93.8551C289.566 93.4588 289.477 93.1051 289.298 92.794C289.119 92.4787 288.799 92.321 288.339 92.321C287.892 92.321 287.57 92.4787 287.374 92.794C287.182 93.1051 287.086 93.4588 287.086 93.8551ZM279.262 87.054V86.3636C279.262 85.8864 279.36 85.4496 279.556 85.0533C279.757 84.6527 280.047 84.3331 280.426 84.0945C280.809 83.8516 281.274 83.7301 281.819 83.7301C282.373 83.7301 282.838 83.8516 283.213 84.0945C283.588 84.3331 283.871 84.6527 284.063 85.0533C284.255 85.4496 284.35 85.8864 284.35 86.3636V87.054C284.35 87.5312 284.252 87.9702 284.056 88.3707C283.865 88.767 283.579 89.0866 283.2 89.3295C282.825 89.5682 282.365 89.6875 281.819 89.6875C281.265 89.6875 280.799 89.5682 280.419 89.3295C280.04 89.0866 279.752 88.767 279.556 88.3707C279.36 87.9702 279.262 87.5312 279.262 87.054ZM280.566 86.3636V87.054C280.566 87.4503 280.66 87.8061 280.848 88.1214C281.035 88.4325 281.359 88.5881 281.819 88.5881C282.267 88.5881 282.582 88.4325 282.765 88.1214C282.953 87.8061 283.047 87.4503 283.047 87.054V86.3636C283.047 85.9673 282.957 85.6136 282.778 85.3026C282.599 84.9872 282.279 84.8295 281.819 84.8295C281.372 84.8295 281.05 84.9872 280.854 85.3026C280.662 85.6136 280.566 85.9673 280.566 86.3636ZM279.748 97L288.748 83.9091H290.206L281.206 97H279.748Z" fill="black"/>
<path d="M13 126.5H368" stroke="#757575"/>
<path d="M13 64H368" stroke="#757575"/>
<path d="M27.5852 36V22.9091H35.4858V24.3153H29.1705V28.7386H35.0767V30.1449H29.1705V34.5938H35.5881V36H27.5852ZM45.093 28.3807L43.7379 28.7642C43.6527 28.5384 43.527 28.3189 43.3608 28.1058C43.1989 27.8885 42.9773 27.7095 42.696 27.5689C42.4148 27.4283 42.0547 27.358 41.6158 27.358C41.0149 27.358 40.5142 27.4964 40.1136 27.7734C39.7173 28.0462 39.5192 28.3935 39.5192 28.8153C39.5192 29.1903 39.6555 29.4865 39.9283 29.7038C40.201 29.9212 40.6271 30.1023 41.2067 30.2472L42.6641 30.6051C43.5419 30.8182 44.196 31.1442 44.6264 31.5831C45.0568 32.0178 45.272 32.5781 45.272 33.2642C45.272 33.8267 45.1101 34.3295 44.7862 34.7727C44.4666 35.2159 44.0192 35.5653 43.4439 35.821C42.8686 36.0767 42.1996 36.2045 41.4368 36.2045C40.4354 36.2045 39.6065 35.9872 38.9503 35.5526C38.294 35.1179 37.8786 34.483 37.7038 33.6477L39.1357 33.2898C39.272 33.8182 39.5298 34.2145 39.9091 34.4787C40.2926 34.7429 40.7933 34.875 41.4112 34.875C42.1143 34.875 42.6726 34.7259 43.0859 34.4276C43.5036 34.125 43.7124 33.7628 43.7124 33.3409C43.7124 33 43.593 32.7145 43.3544 32.4844C43.1158 32.25 42.7493 32.0753 42.255 31.9602L40.6186 31.5767C39.7195 31.3636 39.0589 31.0334 38.6371 30.5859C38.2195 30.1342 38.0107 29.5696 38.0107 28.892C38.0107 28.3381 38.1662 27.848 38.4773 27.4219C38.7926 26.9957 39.2209 26.6612 39.7621 26.4183C40.3075 26.1754 40.9254 26.054 41.6158 26.054C42.5874 26.054 43.3501 26.267 43.9041 26.6932C44.4624 27.1193 44.8587 27.6818 45.093 28.3807ZM51.8127 26.1818V27.4602H46.7246V26.1818H51.8127ZM48.2076 23.8295H49.7161V33.1875C49.7161 33.6136 49.7779 33.9332 49.9015 34.1463C50.0293 34.3551 50.1912 34.4957 50.3873 34.5682C50.5875 34.6364 50.7985 34.6705 51.0201 34.6705C51.1863 34.6705 51.3226 34.6619 51.4292 34.6449C51.5357 34.6236 51.6209 34.6065 51.6848 34.5938L51.9917 35.9489C51.8894 35.9872 51.7466 36.0256 51.5634 36.0639C51.3801 36.1065 51.1479 36.1278 50.8667 36.1278C50.4405 36.1278 50.0229 36.0362 49.6138 35.853C49.209 35.6697 48.8723 35.3906 48.6039 35.0156C48.3397 34.6406 48.2076 34.1676 48.2076 33.5966V23.8295ZM54.0819 36V26.1818H55.5904V36H54.0819ZM54.8489 24.5455C54.5549 24.5455 54.3013 24.4453 54.0882 24.245C53.8794 24.0447 53.775 23.804 53.775 23.5227C53.775 23.2415 53.8794 23.0007 54.0882 22.8004C54.3013 22.6001 54.5549 22.5 54.8489 22.5C55.1429 22.5 55.3944 22.6001 55.6032 22.8004C55.8162 23.0007 55.9228 23.2415 55.9228 23.5227C55.9228 23.804 55.8162 24.0447 55.6032 24.245C55.3944 24.4453 55.1429 24.5455 54.8489 24.5455ZM58.3533 36V26.1818H59.8107V27.7159H59.9386C60.1431 27.1918 60.4734 26.7848 60.9293 26.495C61.3853 26.201 61.9329 26.054 62.5721 26.054C63.2198 26.054 63.7589 26.201 64.1893 26.495C64.6239 26.7848 64.9627 27.1918 65.2056 27.7159H65.3079C65.5593 27.2088 65.9364 26.8061 66.4393 26.5078C66.9421 26.2053 67.5451 26.054 68.2482 26.054C69.1261 26.054 69.8441 26.3288 70.4023 26.8786C70.9606 27.424 71.2397 28.2741 71.2397 29.429V36H69.7312V29.429C69.7312 28.7045 69.533 28.1868 69.1367 27.8757C68.7404 27.5646 68.2738 27.4091 67.7369 27.4091C67.0465 27.4091 66.5117 27.6179 66.1325 28.0355C65.7532 28.4489 65.5636 28.973 65.5636 29.608V36H64.0295V29.2756C64.0295 28.7173 63.8484 28.2678 63.4862 27.9268C63.1239 27.5817 62.6573 27.4091 62.0863 27.4091C61.6942 27.4091 61.3278 27.5135 60.9869 27.7223C60.6502 27.9311 60.3775 28.2209 60.1687 28.5916C59.9641 28.9581 59.8619 29.3821 59.8619 29.8636V36H58.3533ZM76.8871 36.2301C76.2649 36.2301 75.7003 36.1129 75.1932 35.8786C74.6861 35.6399 74.2834 35.2969 73.9851 34.8494C73.6868 34.3977 73.5376 33.8523 73.5376 33.2131C73.5376 32.6506 73.6484 32.1946 73.87 31.8452C74.0916 31.4915 74.3878 31.2145 74.7585 31.0142C75.1293 30.8139 75.5384 30.6648 75.9858 30.5668C76.4375 30.4645 76.8913 30.3835 77.3473 30.3239C77.9439 30.2472 78.4276 30.1896 78.7983 30.1513C79.1733 30.1087 79.446 30.0384 79.6165 29.9403C79.7912 29.8423 79.8786 29.6719 79.8786 29.429V29.3778C79.8786 28.7472 79.706 28.2571 79.3608 27.9077C79.0199 27.5582 78.5021 27.3835 77.8075 27.3835C77.0874 27.3835 76.5227 27.5412 76.1136 27.8565C75.7045 28.1719 75.4169 28.5085 75.2507 28.8665L73.8189 28.3551C74.0746 27.7585 74.4155 27.294 74.8416 26.9616C75.272 26.625 75.7408 26.3906 76.2479 26.2585C76.7592 26.1222 77.2621 26.054 77.7564 26.054C78.0717 26.054 78.4339 26.0923 78.843 26.169C79.2564 26.2415 79.6548 26.3928 80.0384 26.6229C80.4261 26.853 80.7479 27.2003 81.0036 27.6648C81.2592 28.1293 81.3871 28.7514 81.3871 29.5312V36H79.8786V34.6705H79.8018C79.6996 34.8835 79.5291 35.1115 79.2905 35.3544C79.0518 35.5973 78.7344 35.804 78.3381 35.9744C77.9418 36.1449 77.4581 36.2301 76.8871 36.2301ZM77.1172 34.875C77.7138 34.875 78.2166 34.7578 78.6257 34.5234C79.0391 34.2891 79.3501 33.9865 79.5589 33.6158C79.772 33.245 79.8786 32.8551 79.8786 32.446V31.0653C79.8146 31.142 79.674 31.2124 79.4567 31.2763C79.2436 31.3359 78.9964 31.3892 78.7152 31.4361C78.4382 31.4787 78.1676 31.517 77.9034 31.5511C77.6435 31.581 77.4325 31.6065 77.2706 31.6278C76.8786 31.679 76.5121 31.7621 76.1712 31.8771C75.8345 31.9879 75.5618 32.1562 75.353 32.3821C75.1484 32.6037 75.0462 32.9062 75.0462 33.2898C75.0462 33.8139 75.2401 34.2102 75.6278 34.4787C76.0199 34.7429 76.5163 34.875 77.1172 34.875ZM88.4103 26.1818V27.4602H83.3223V26.1818H88.4103ZM84.8052 23.8295H86.3137V33.1875C86.3137 33.6136 86.3755 33.9332 86.4991 34.1463C86.627 34.3551 86.7889 34.4957 86.9849 34.5682C87.1852 34.6364 87.3961 34.6705 87.6177 34.6705C87.7839 34.6705 87.9203 34.6619 88.0268 34.6449C88.1333 34.6236 88.2186 34.6065 88.2825 34.5938L88.5893 35.9489C88.487 35.9872 88.3443 36.0256 88.161 36.0639C87.9778 36.1065 87.7456 36.1278 87.4643 36.1278C87.0382 36.1278 86.6206 36.0362 86.2115 35.853C85.8066 35.6697 85.47 35.3906 85.2015 35.0156C84.9373 34.6406 84.8052 34.1676 84.8052 33.5966V23.8295ZM94.6905 36.2045C93.7445 36.2045 92.9284 35.9957 92.2424 35.5781C91.5605 35.1562 91.0343 34.5682 90.6635 33.8139C90.2971 33.0554 90.1138 32.1733 90.1138 31.1676C90.1138 30.1619 90.2971 29.2756 90.6635 28.5085C91.0343 27.7372 91.5499 27.1364 92.2104 26.706C92.8752 26.2713 93.6507 26.054 94.5371 26.054C95.0485 26.054 95.5534 26.1392 96.052 26.3097C96.5506 26.4801 97.0044 26.7571 97.4135 27.1406C97.8226 27.5199 98.1486 28.0227 98.3915 28.6491C98.6344 29.2756 98.7559 30.0469 98.7559 30.9631V31.6023H91.1877V30.2983H97.2218C97.2218 29.7443 97.111 29.25 96.8894 28.8153C96.6721 28.3807 96.361 28.0376 95.9561 27.7862C95.5556 27.5348 95.0826 27.4091 94.5371 27.4091C93.9363 27.4091 93.4164 27.5582 92.9775 27.8565C92.5428 28.1506 92.2083 28.5341 91.9739 29.0071C91.7395 29.4801 91.6223 29.9872 91.6223 30.5284V31.3977C91.6223 32.1392 91.7502 32.7678 92.0059 33.2834C92.2658 33.7947 92.6259 34.1847 93.0861 34.4531C93.5463 34.7173 94.0811 34.8494 94.6905 34.8494C95.0868 34.8494 95.4448 34.794 95.7644 34.6832C96.0882 34.5682 96.3674 34.3977 96.6017 34.1719C96.8361 33.9418 97.0172 33.6562 97.1451 33.3153L98.6025 33.7244C98.449 34.2188 98.1912 34.6534 97.829 35.0284C97.4668 35.3991 97.0194 35.6889 96.4867 35.8977C95.954 36.1023 95.3553 36.2045 94.6905 36.2045ZM104.758 36.2045C103.94 36.2045 103.218 35.9979 102.591 35.5845C101.965 35.1669 101.475 34.5788 101.121 33.8203C100.767 33.0575 100.59 32.1562 100.59 31.1165C100.59 30.0852 100.767 29.1903 101.121 28.4318C101.475 27.6733 101.967 27.0874 102.597 26.674C103.228 26.2607 103.957 26.054 104.784 26.054C105.423 26.054 105.928 26.1605 106.298 26.3736C106.673 26.5824 106.959 26.821 107.155 27.0895C107.355 27.3537 107.511 27.571 107.622 27.7415H107.749V22.9091H109.258V36H107.801V34.4915H107.622C107.511 34.6705 107.353 34.8963 107.149 35.169C106.944 35.4375 106.652 35.6783 106.273 35.8913C105.894 36.1001 105.389 36.2045 104.758 36.2045ZM104.963 34.8494C105.568 34.8494 106.079 34.6918 106.497 34.3764C106.914 34.0568 107.232 33.6158 107.449 33.0533C107.666 32.4865 107.775 31.8324 107.775 31.0909C107.775 30.358 107.669 29.7166 107.455 29.1669C107.242 28.6129 106.927 28.1825 106.509 27.8757C106.092 27.5646 105.576 27.4091 104.963 27.4091C104.323 27.4091 103.791 27.5732 103.365 27.9013C102.943 28.2251 102.625 28.6662 102.412 29.2244C102.203 29.7784 102.099 30.4006 102.099 31.0909C102.099 31.7898 102.205 32.4247 102.419 32.9957C102.636 33.5625 102.955 34.0142 103.377 34.3509C103.803 34.6832 104.332 34.8494 104.963 34.8494ZM128.031 27H126.446C126.352 26.544 126.188 26.1435 125.954 25.7983C125.724 25.4531 125.443 25.1634 125.11 24.929C124.782 24.6903 124.418 24.5114 124.017 24.392C123.617 24.2727 123.199 24.2131 122.764 24.2131C121.972 24.2131 121.254 24.4134 120.61 24.8139C119.971 25.2145 119.462 25.8047 119.083 26.5845C118.708 27.3643 118.52 28.321 118.52 29.4545C118.52 30.5881 118.708 31.5447 119.083 32.3246C119.462 33.1044 119.971 33.6946 120.61 34.0952C121.254 34.4957 121.972 34.696 122.764 34.696C123.199 34.696 123.617 34.6364 124.017 34.517C124.418 34.3977 124.782 34.2209 125.11 33.9865C125.443 33.7479 125.724 33.456 125.954 33.1108C126.188 32.7614 126.352 32.3608 126.446 31.9091H128.031C127.912 32.5781 127.695 33.1768 127.379 33.7053C127.064 34.2337 126.672 34.6832 126.203 35.054C125.735 35.4205 125.208 35.6996 124.624 35.8913C124.045 36.0831 123.425 36.179 122.764 36.179C121.648 36.179 120.655 35.9062 119.786 35.3608C118.916 34.8153 118.232 34.0398 117.734 33.0341C117.235 32.0284 116.986 30.8352 116.986 29.4545C116.986 28.0739 117.235 26.8807 117.734 25.875C118.232 24.8693 118.916 24.0938 119.786 23.5483C120.655 23.0028 121.648 22.7301 122.764 22.7301C123.425 22.7301 124.045 22.826 124.624 23.0178C125.208 23.2095 125.735 23.4908 126.203 23.8615C126.672 24.228 127.064 24.6754 127.379 25.2038C127.695 25.728 127.912 26.3267 128.031 27ZM131.488 34.3253C131.173 34.3253 130.902 34.2124 130.676 33.9865C130.45 33.7607 130.337 33.4901 130.337 33.1747C130.337 32.8594 130.45 32.5888 130.676 32.3629C130.902 32.1371 131.173 32.0241 131.488 32.0241C131.803 32.0241 132.074 32.1371 132.3 32.3629C132.526 32.5888 132.638 32.8594 132.638 33.1747C132.638 33.3835 132.585 33.5753 132.479 33.75C132.376 33.9247 132.238 34.0653 132.063 34.1719C131.893 34.2741 131.701 34.3253 131.488 34.3253ZM131.488 27.7031C131.173 27.7031 130.902 27.5902 130.676 27.3643C130.45 27.1385 130.337 26.8679 130.337 26.5526C130.337 26.2372 130.45 25.9666 130.676 25.7408C130.902 25.5149 131.173 25.402 131.488 25.402C131.803 25.402 132.074 25.5149 132.3 25.7408C132.526 25.9666 132.638 26.2372 132.638 26.5526C132.638 26.7614 132.585 26.9531 132.479 27.1278C132.376 27.3026 132.238 27.4432 132.063 27.5497C131.893 27.652 131.701 27.7031 131.488 27.7031ZM145.931 22.9091V36H144.397L137.263 25.7216H137.135V36H135.55V22.9091H137.084L144.243 33.2131H144.371V22.9091H145.931ZM154.165 36V22.9091H158.589C159.611 22.9091 160.451 23.0838 161.107 23.4332C161.763 23.7784 162.249 24.2536 162.564 24.8587C162.88 25.4638 163.037 26.152 163.037 26.9233C163.037 27.6946 162.88 28.3786 162.564 28.9751C162.249 29.5717 161.765 30.0405 161.113 30.3814C160.461 30.718 159.628 30.8864 158.614 30.8864H155.035V29.4545H158.563C159.262 29.4545 159.824 29.3523 160.251 29.1477C160.681 28.9432 160.992 28.6534 161.184 28.2784C161.38 27.8991 161.478 27.4474 161.478 26.9233C161.478 26.3991 161.38 25.9411 161.184 25.549C160.988 25.157 160.675 24.8544 160.244 24.6413C159.814 24.424 159.245 24.3153 158.537 24.3153H155.751V36H154.165ZM160.327 30.1193L163.549 36H161.708L158.537 30.1193H160.327ZM168.364 36.2301C167.741 36.2301 167.177 36.1129 166.67 35.8786C166.163 35.6399 165.76 35.2969 165.462 34.8494C165.163 34.3977 165.014 33.8523 165.014 33.2131C165.014 32.6506 165.125 32.1946 165.347 31.8452C165.568 31.4915 165.864 31.2145 166.235 31.0142C166.606 30.8139 167.015 30.6648 167.462 30.5668C167.914 30.4645 168.368 30.3835 168.824 30.3239C169.42 30.2472 169.904 30.1896 170.275 30.1513C170.65 30.1087 170.923 30.0384 171.093 29.9403C171.268 29.8423 171.355 29.6719 171.355 29.429V29.3778C171.355 28.7472 171.183 28.2571 170.837 27.9077C170.496 27.5582 169.979 27.3835 169.284 27.3835C168.564 27.3835 167.999 27.5412 167.59 27.8565C167.181 28.1719 166.893 28.5085 166.727 28.8665L165.295 28.3551C165.551 27.7585 165.892 27.294 166.318 26.9616C166.749 26.625 167.217 26.3906 167.724 26.2585C168.236 26.1222 168.739 26.054 169.233 26.054C169.548 26.054 169.911 26.0923 170.32 26.169C170.733 26.2415 171.131 26.3928 171.515 26.6229C171.903 26.853 172.224 27.2003 172.48 27.6648C172.736 28.1293 172.864 28.7514 172.864 29.5312V36H171.355V34.6705H171.278C171.176 34.8835 171.006 35.1115 170.767 35.3544C170.528 35.5973 170.211 35.804 169.815 35.9744C169.418 36.1449 168.935 36.2301 168.364 36.2301ZM168.594 34.875C169.19 34.875 169.693 34.7578 170.102 34.5234C170.516 34.2891 170.827 33.9865 171.036 33.6158C171.249 33.245 171.355 32.8551 171.355 32.446V31.0653C171.291 31.142 171.151 31.2124 170.933 31.2763C170.72 31.3359 170.473 31.3892 170.192 31.4361C169.915 31.4787 169.644 31.517 169.38 31.5511C169.12 31.581 168.909 31.6065 168.747 31.6278C168.355 31.679 167.989 31.7621 167.648 31.8771C167.311 31.9879 167.038 32.1562 166.83 32.3821C166.625 32.6037 166.523 32.9062 166.523 33.2898C166.523 33.8139 166.717 34.2102 167.104 34.4787C167.496 34.7429 167.993 34.875 168.594 34.875ZM179.887 26.1818V27.4602H174.799V26.1818H179.887ZM176.282 23.8295H177.79V33.1875C177.79 33.6136 177.852 33.9332 177.976 34.1463C178.104 34.3551 178.265 34.4957 178.461 34.5682C178.662 34.6364 178.873 34.6705 179.094 34.6705C179.26 34.6705 179.397 34.6619 179.503 34.6449C179.61 34.6236 179.695 34.6065 179.759 34.5938L180.066 35.9489C179.964 35.9872 179.821 36.0256 179.638 36.0639C179.454 36.1065 179.222 36.1278 178.941 36.1278C178.515 36.1278 178.097 36.0362 177.688 35.853C177.283 35.6697 176.947 35.3906 176.678 35.0156C176.414 34.6406 176.282 34.1676 176.282 33.5966V23.8295ZM182.156 36V26.1818H183.665V36H182.156ZM182.923 24.5455C182.629 24.5455 182.376 24.4453 182.162 24.245C181.954 24.0447 181.849 23.804 181.849 23.5227C181.849 23.2415 181.954 23.0007 182.162 22.8004C182.376 22.6001 182.629 22.5 182.923 22.5C183.217 22.5 183.469 22.6001 183.677 22.8004C183.89 23.0007 183.997 23.2415 183.997 23.5227C183.997 23.804 183.89 24.0447 183.677 24.245C183.469 24.4453 183.217 24.5455 182.923 24.5455ZM190.416 36.2045C189.53 36.2045 188.752 35.9936 188.083 35.5717C187.418 35.1499 186.898 34.5597 186.523 33.8011C186.153 33.0426 185.967 32.1562 185.967 31.142C185.967 30.1193 186.153 29.2266 186.523 28.4638C186.898 27.701 187.418 27.1087 188.083 26.6868C188.752 26.2649 189.53 26.054 190.416 26.054C191.303 26.054 192.078 26.2649 192.743 26.6868C193.412 27.1087 193.932 27.701 194.303 28.4638C194.678 29.2266 194.865 30.1193 194.865 31.142C194.865 32.1562 194.678 33.0426 194.303 33.8011C193.932 34.5597 193.412 35.1499 192.743 35.5717C192.078 35.9936 191.303 36.2045 190.416 36.2045ZM190.416 34.8494C191.089 34.8494 191.643 34.6768 192.078 34.3317C192.513 33.9865 192.835 33.5327 193.043 32.9702C193.252 32.4077 193.357 31.7983 193.357 31.142C193.357 30.4858 193.252 29.8743 193.043 29.3075C192.835 28.7408 192.513 28.2827 192.078 27.9332C191.643 27.5838 191.089 27.4091 190.416 27.4091C189.743 27.4091 189.189 27.5838 188.754 27.9332C188.32 28.2827 187.998 28.7408 187.789 29.3075C187.58 29.8743 187.476 30.4858 187.476 31.142C187.476 31.7983 187.58 32.4077 187.789 32.9702C187.998 33.5327 188.32 33.9865 188.754 34.3317C189.189 34.6768 189.743 34.8494 190.416 34.8494ZM212.33 36V34.8494L216.651 30.1193C217.158 29.5653 217.575 29.0838 217.904 28.6747C218.232 28.2614 218.475 27.8736 218.632 27.5114C218.794 27.1449 218.875 26.7614 218.875 26.3608C218.875 25.9006 218.764 25.5021 218.543 25.1655C218.325 24.8288 218.027 24.5689 217.648 24.3857C217.269 24.2024 216.843 24.1108 216.369 24.1108C215.867 24.1108 215.428 24.2152 215.053 24.424C214.682 24.6286 214.394 24.9162 214.19 25.2869C213.99 25.6577 213.889 26.0923 213.889 26.5909H212.381C212.381 25.8239 212.558 25.1506 212.911 24.571C213.265 23.9915 213.747 23.5398 214.356 23.2159C214.97 22.892 215.658 22.7301 216.421 22.7301C217.188 22.7301 217.867 22.892 218.46 23.2159C219.052 23.5398 219.517 23.9766 219.853 24.5263C220.19 25.076 220.358 25.6875 220.358 26.3608C220.358 26.8423 220.271 27.3132 220.096 27.7734C219.926 28.2294 219.627 28.7386 219.201 29.3011C218.779 29.8594 218.193 30.5412 217.443 31.3466L214.503 34.4915V34.5938H220.588V36H212.33ZM227.319 36.179C226.569 36.179 225.894 36.0298 225.293 35.7315C224.692 35.4332 224.21 35.0241 223.848 34.5043C223.486 33.9844 223.288 33.392 223.254 32.7273H224.788C224.847 33.3196 225.116 33.8097 225.593 34.1974C226.075 34.581 226.65 34.7727 227.319 34.7727C227.856 34.7727 228.333 34.647 228.751 34.3956C229.173 34.1442 229.503 33.799 229.742 33.3601C229.985 32.9169 230.106 32.4162 230.106 31.858C230.106 31.2869 229.98 30.7777 229.729 30.3303C229.482 29.8786 229.141 29.5227 228.706 29.2628C228.271 29.0028 227.775 28.8707 227.217 28.8665C226.816 28.8622 226.405 28.924 225.983 29.0518C225.561 29.1754 225.214 29.3352 224.941 29.5312L223.458 29.3523L224.251 22.9091H231.052V24.3153H225.58L225.12 28.1761H225.197C225.465 27.9631 225.802 27.7862 226.207 27.6456C226.612 27.505 227.034 27.4347 227.472 27.4347C228.274 27.4347 228.987 27.6264 229.614 28.0099C230.244 28.3892 230.739 28.9091 231.097 29.5696C231.459 30.2301 231.64 30.9844 231.64 31.8324C231.64 32.6676 231.453 33.4134 231.078 34.0696C230.707 34.7216 230.195 35.2372 229.544 35.6165C228.892 35.9915 228.15 36.179 227.319 36.179ZM235.304 34.3253C234.989 34.3253 234.718 34.2124 234.493 33.9865C234.267 33.7607 234.154 33.4901 234.154 33.1747C234.154 32.8594 234.267 32.5888 234.493 32.3629C234.718 32.1371 234.989 32.0241 235.304 32.0241C235.62 32.0241 235.89 32.1371 236.116 32.3629C236.342 32.5888 236.455 32.8594 236.455 33.1747C236.455 33.3835 236.402 33.5753 236.295 33.75C236.193 33.9247 236.054 34.0653 235.88 34.1719C235.709 34.2741 235.517 34.3253 235.304 34.3253ZM235.304 27.7031C234.989 27.7031 234.718 27.5902 234.493 27.3643C234.267 27.1385 234.154 26.8679 234.154 26.5526C234.154 26.2372 234.267 25.9666 234.493 25.7408C234.718 25.5149 234.989 25.402 235.304 25.402C235.62 25.402 235.89 25.5149 236.116 25.7408C236.342 25.9666 236.455 26.2372 236.455 26.5526C236.455 26.7614 236.402 26.9531 236.295 27.1278C236.193 27.3026 236.054 27.4432 235.88 27.5497C235.709 27.652 235.517 27.7031 235.304 27.7031ZM243.739 22.9091V36H242.153V24.571H242.077L238.881 26.6932V25.0824L242.153 22.9091H243.739Z" fill="black"/>
<path d="M278 28C278 20.268 284.268 14 292 14H329C336.732 14 343 20.268 343 28C343 35.732 336.732 42 329 42H292C284.268 42 278 35.732 278 28Z" fill="#2F6F4E"/>
<path d="M300.091 26.6016C300.026 26.3769 299.935 26.1784 299.819 26.006C299.702 25.8306 299.558 25.6829 299.389 25.5629C299.223 25.4397 299.032 25.3459 298.817 25.2812C298.604 25.2166 298.369 25.1843 298.11 25.1843C297.627 25.1843 297.203 25.3043 296.836 25.5444C296.473 25.7844 296.19 26.1338 295.987 26.5923C295.784 27.0478 295.682 27.6049 295.682 28.2635C295.682 28.9221 295.782 29.4822 295.982 29.9439C296.182 30.4055 296.465 30.7579 296.832 31.0011C297.198 31.2411 297.63 31.3612 298.129 31.3612C298.581 31.3612 298.968 31.2811 299.288 31.1211C299.611 30.958 299.857 30.7287 300.026 30.4332C300.199 30.1378 300.285 29.7885 300.285 29.3853L300.691 29.4453H298.254V27.9403H302.21V29.1314C302.21 29.9624 302.034 30.6764 301.684 31.2734C301.333 31.8674 300.85 32.326 300.234 32.6491C299.618 32.9692 298.914 33.1293 298.12 33.1293C297.233 33.1293 296.455 32.9338 295.784 32.543C295.113 32.149 294.59 31.5904 294.214 30.8672C293.842 30.1409 293.656 29.2791 293.656 28.282C293.656 27.5156 293.766 26.8324 293.988 26.2322C294.213 25.629 294.527 25.1181 294.93 24.6996C295.333 24.281 295.802 23.9625 296.338 23.744C296.873 23.5254 297.453 23.4162 298.078 23.4162C298.614 23.4162 299.112 23.4947 299.574 23.6516C300.036 23.8055 300.445 24.024 300.802 24.3072C301.162 24.5903 301.456 24.9273 301.684 25.3182C301.911 25.706 302.058 26.1338 302.122 26.6016H300.091ZM306.878 33.1385C306.161 33.1385 305.541 32.9862 305.018 32.6815C304.498 32.3737 304.096 31.9459 303.813 31.3981C303.53 30.8472 303.388 30.2086 303.388 29.4822C303.388 28.7498 303.53 28.1096 303.813 27.5618C304.096 27.0109 304.498 26.5831 305.018 26.2784C305.541 25.9706 306.161 25.8168 306.878 25.8168C307.595 25.8168 308.214 25.9706 308.734 26.2784C309.257 26.5831 309.66 27.0109 309.944 27.5618C310.227 28.1096 310.368 28.7498 310.368 29.4822C310.368 30.2086 310.227 30.8472 309.944 31.3981C309.66 31.9459 309.257 32.3737 308.734 32.6815C308.214 32.9862 307.595 33.1385 306.878 33.1385ZM306.888 31.6151C307.214 31.6151 307.486 31.5227 307.705 31.3381C307.923 31.1503 308.088 30.8949 308.199 30.5717C308.312 30.2486 308.369 29.8808 308.369 29.4684C308.369 29.056 308.312 28.6882 308.199 28.3651C308.088 28.0419 307.923 27.7865 307.705 27.5987C307.486 27.411 307.214 27.3171 306.888 27.3171C306.558 27.3171 306.281 27.411 306.057 27.5987C305.835 27.7865 305.667 28.0419 305.553 28.3651C305.443 28.6882 305.387 29.056 305.387 29.4684C305.387 29.8808 305.443 30.2486 305.553 30.5717C305.667 30.8949 305.835 31.1503 306.057 31.3381C306.281 31.5227 306.558 31.6151 306.888 31.6151ZM314.851 33.1385C314.134 33.1385 313.514 32.9862 312.991 32.6815C312.47 32.3737 312.069 31.9459 311.786 31.3981C311.502 30.8472 311.361 30.2086 311.361 29.4822C311.361 28.7498 311.502 28.1096 311.786 27.5618C312.069 27.0109 312.47 26.5831 312.991 26.2784C313.514 25.9706 314.134 25.8168 314.851 25.8168C315.568 25.8168 316.187 25.9706 316.707 26.2784C317.23 26.5831 317.633 27.0109 317.916 27.5618C318.199 28.1096 318.341 28.7498 318.341 29.4822C318.341 30.2086 318.199 30.8472 317.916 31.3981C317.633 31.9459 317.23 32.3737 316.707 32.6815C316.187 32.9862 315.568 33.1385 314.851 33.1385ZM314.86 31.6151C315.186 31.6151 315.459 31.5227 315.677 31.3381C315.896 31.1503 316.06 30.8949 316.171 30.5717C316.285 30.2486 316.342 29.8808 316.342 29.4684C316.342 29.056 316.285 28.6882 316.171 28.3651C316.06 28.0419 315.896 27.7865 315.677 27.5987C315.459 27.411 315.186 27.3171 314.86 27.3171C314.531 27.3171 314.254 27.411 314.029 27.5987C313.808 27.7865 313.64 28.0419 313.526 28.3651C313.415 28.6882 313.36 29.056 313.36 29.4684C313.36 29.8808 313.415 30.2486 313.526 30.5717C313.64 30.8949 313.808 31.1503 314.029 31.3381C314.254 31.5227 314.531 31.6151 314.86 31.6151ZM322.233 33.1154C321.694 33.1154 321.206 32.9769 320.769 32.6999C320.335 32.4199 319.991 32.009 319.735 31.4673C319.483 30.9226 319.357 30.2547 319.357 29.4638C319.357 28.6513 319.487 27.9757 319.749 27.4371C320.011 26.8955 320.358 26.4908 320.792 26.223C321.229 25.9522 321.708 25.8168 322.228 25.8168C322.625 25.8168 322.956 25.8845 323.221 26.0199C323.488 26.1522 323.704 26.3184 323.867 26.5185C324.033 26.7154 324.159 26.9093 324.245 27.1001H324.305V23.5455H326.267V33H324.329V31.8643H324.245C324.153 32.0613 324.022 32.2567 323.853 32.4506C323.687 32.6415 323.47 32.8 323.202 32.9261C322.937 33.0523 322.614 33.1154 322.233 33.1154ZM322.856 31.5504C323.173 31.5504 323.441 31.4643 323.659 31.2919C323.881 31.1165 324.05 30.8718 324.167 30.5579C324.287 30.244 324.347 29.8762 324.347 29.4545C324.347 29.0329 324.289 28.6667 324.172 28.3558C324.055 28.045 323.885 27.8049 323.664 27.6357C323.442 27.4664 323.173 27.3817 322.856 27.3817C322.533 27.3817 322.26 27.4695 322.039 27.6449C321.817 27.8203 321.649 28.0634 321.536 28.3743C321.422 28.6851 321.365 29.0452 321.365 29.4545C321.365 29.867 321.422 30.2317 321.536 30.5487C321.653 30.8626 321.82 31.1088 322.039 31.2873C322.26 31.4627 322.533 31.5504 322.856 31.5504Z" fill="white"/>
<path d="M236 154.4L232 150.4L233.4 149L236 151.6L242.6 145L244 146.4L236 154.4Z" fill="#2F6F4E"/>
<path d="M8 236H374" stroke="#757575" stroke-opacity="0.21"/>
<defs>
<filter id="filter0_d_44_560" x="7" y="0" width="368" height="188" filterUnits="userSpaceOnUse" color-interpolation-filters="sRGB">
<feFlood flood-opacity="0" result="BackgroundImageFix"/>
<feColorMatrix in="SourceAlpha" type="matrix" values="0 0 0 0 0 0 0 0 0 0 0 0 0 0 0 0 0 0 127 0" result="hardAlpha"/>
<feOffset dy="4"/>
<feGaussianBlur stdDeviation="2"/>
<feComposite in2="hardAlpha" operator="out"/>
<feColorMatrix type="matrix" values="0 0 0 0 0 0 0 0 0 0 0 0 0 0 0 0 0 0 0.25 0"/>
<feBlend mode="normal" in2="BackgroundImageFix" result="effect1_dropShadow_44_560"/>
<feBlend mode="normal" in="SourceGraphic" in2="effect1_dropShadow_44_560" result="shape"/>
</filter>
</defs>
</svg>
