<svg width="37" height="30" viewBox="0 0 37 30" fill="none" xmlns="http://www.w3.org/2000/svg">
<path d="M30.4302 18.3553C28.9519 19.2539 27.254 19.7265 25.5239 19.721C24.0745 19.7095 22.6416 19.4131 21.3066 18.8485C20.2777 20.301 19.7271 22.038 19.7313 23.818V28.3636C19.7317 28.5327 19.6973 28.7 19.6303 28.8552C19.5633 29.0104 19.465 29.1501 19.3417 29.2658C19.2184 29.3814 19.0727 29.4705 18.9135 29.5274C18.7543 29.5844 18.5852 29.608 18.4165 29.5968C18.0995 29.5692 17.8047 29.4228 17.5912 29.1869C17.3776 28.9511 17.2611 28.6432 17.265 28.3251V26.4076L11.3121 20.4547C10.4272 20.7848 9.49131 20.9575 8.54683 20.9649C7.24659 20.9682 5.97067 20.6125 4.85978 19.9367C1.50105 17.8959 -0.30702 13.1992 0.0428796 7.3681C0.060497 7.06642 0.188276 6.78171 0.401957 6.56803C0.615638 6.35435 0.900343 6.22657 1.20202 6.20896C7.03317 5.86522 11.7298 7.66713 13.7645 11.0259C14.5639 12.3424 14.9129 13.8833 14.7587 15.4158C14.7491 15.5345 14.7054 15.6479 14.6327 15.7423C14.56 15.8367 14.4616 15.908 14.3492 15.9476C14.2369 15.9873 14.1155 15.9935 13.9997 15.9656C13.8839 15.9377 13.7786 15.8768 13.6967 15.7904L10.7372 12.6921C10.504 12.4706 10.1936 12.349 9.87205 12.3531C9.55049 12.3572 9.24327 12.4868 9.01588 12.7142C8.78849 12.9416 8.65892 13.2488 8.65481 13.5703C8.65069 13.8919 8.77235 14.2023 8.99384 14.4355L17.299 22.9517C17.3082 22.8315 17.319 22.7113 17.3313 22.5926C17.601 20.3063 18.6098 18.1706 20.2045 16.5102L28.0025 8.26982C28.2339 8.03864 28.364 7.72501 28.3641 7.39793C28.3642 7.07084 28.2345 6.7571 28.0033 6.52571C27.7721 6.29433 27.4585 6.16426 27.1314 6.16411C26.8043 6.16397 26.4906 6.29376 26.2592 6.52494L18.7063 14.5125C18.6307 14.5926 18.535 14.651 18.4292 14.6816C18.3234 14.7122 18.2113 14.7139 18.1047 14.6865C17.998 14.6591 17.9006 14.6037 17.8226 14.5259C17.7446 14.4481 17.6889 14.3509 17.6612 14.2443C16.9306 11.5499 17.2527 8.86789 18.6477 6.56502C21.4006 2.02095 27.8067 -0.411397 35.7851 0.0571912C36.0868 0.0748086 36.3715 0.202588 36.5851 0.416269C36.7988 0.62995 36.9266 0.914655 36.9442 1.21633C37.4066 9.19621 34.9743 15.6023 30.4302 18.3553Z" fill="#005529"/>
</svg>
