<svg width="34" height="34" viewBox="0 0 34 34" fill="none" xmlns="http://www.w3.org/2000/svg">
<path d="M28.9 3.4H25.5V1.7C25.5 1.24913 25.3209 0.81673 25.0021 0.497918C24.6833 0.179107 24.2509 0 23.8 0C23.3491 0 22.9167 0.179107 22.5979 0.497918C22.2791 0.81673 22.1 1.24913 22.1 1.7V3.4H11.9V1.7C11.9 1.24913 11.7209 0.81673 11.4021 0.497918C11.0833 0.179107 10.6509 0 10.2 0C9.74913 0 9.31673 0.179107 8.99792 0.497918C8.67911 0.81673 8.5 1.24913 8.5 1.7V3.4H5.1C3.7474 3.4 2.45019 3.93732 1.49376 4.89376C0.53732 5.85019 0 7.1474 0 8.5V28.9C0 30.2526 0.53732 31.5498 1.49376 32.5062C2.45019 33.4627 3.7474 34 5.1 34H28.9C30.2526 34 31.5498 33.4627 32.5062 32.5062C33.4627 31.5498 34 30.2526 34 28.9V8.5C34 7.1474 33.4627 5.85019 32.5062 4.89376C31.5498 3.93732 30.2526 3.4 28.9 3.4ZM30.6 28.9C30.6 29.3509 30.4209 29.7833 30.1021 30.1021C29.7833 30.4209 29.3509 30.6 28.9 30.6H5.1C4.64913 30.6 4.21673 30.4209 3.89792 30.1021C3.57911 29.7833 3.4 29.3509 3.4 28.9V17H30.6V28.9ZM30.6 13.6H3.4V8.5C3.4 8.04913 3.57911 7.61673 3.89792 7.29792C4.21673 6.97911 4.64913 6.8 5.1 6.8H8.5V8.5C8.5 8.95087 8.67911 9.38327 8.99792 9.70208C9.31673 10.0209 9.74913 10.2 10.2 10.2C10.6509 10.2 11.0833 10.0209 11.4021 9.70208C11.7209 9.38327 11.9 8.95087 11.9 8.5V6.8H22.1V8.5C22.1 8.95087 22.2791 9.38327 22.5979 9.70208C22.9167 10.0209 23.3491 10.2 23.8 10.2C24.2509 10.2 24.6833 10.0209 25.0021 9.70208C25.3209 9.38327 25.5 8.95087 25.5 8.5V6.8H28.9C29.3509 6.8 29.7833 6.97911 30.1021 7.29792C30.4209 7.61673 30.6 8.04913 30.6 8.5V13.6Z" fill="#005529"/>
</svg>
