<svg width="24" height="21" viewBox="0 0 24 21" fill="none" xmlns="http://www.w3.org/2000/svg">
<path fill-rule="evenodd" clip-rule="evenodd" d="M0.134798 2.1575C0.628605 0.546573 2.33483 -0.359034 3.94576 0.134772L6.36327 0.875825L8.83047 1.87475L11.2012 3.0849L13.4575 4.49707L15.582 6.1005L17.5588 7.88301L19.3727 9.83102L21.0099 11.9297L22.4579 14.1631L23.6433 16.3965C24.4333 17.8848 23.8671 19.7317 22.3789 20.5216C20.8906 21.3115 19.0437 20.7454 18.2538 19.2571L17.1933 17.259L16.0351 15.4727L14.7256 13.7941L13.2748 12.236L11.6938 10.8103L9.99447 9.52782L8.18985 8.39832L6.29367 7.43041L4.32034 6.63145L2.15753 5.96847C0.546598 5.47466 -0.359009 3.76844 0.134798 2.1575Z" fill="#2F6F4E" fill-opacity="0.5"/>
</svg>
