<svg width="23" height="29" viewBox="0 0 23 29" fill="none" xmlns="http://www.w3.org/2000/svg">
<path d="M11.5 14.375C12.2906 14.375 12.9674 14.0935 13.5305 13.5305C14.0935 12.9674 14.375 12.2906 14.375 11.5C14.375 10.7094 14.0935 10.0325 13.5305 9.46952C12.9674 8.9065 12.2906 8.62499 11.5 8.62499C10.7094 8.62499 10.0325 8.9065 9.46952 9.46952C8.9065 10.0325 8.62499 10.7094 8.62499 11.5C8.62499 12.2906 8.9065 12.9674 9.46952 13.5305C10.0325 14.0935 10.7094 14.375 11.5 14.375ZM11.5 28.75C7.6427 25.4677 4.76171 22.419 2.85703 19.6039C0.952343 16.7888 0 14.1833 0 11.7875C0 8.19374 1.15599 5.33072 3.46797 3.19843C5.77994 1.06615 8.45728 0 11.5 0C14.5427 0 17.22 1.06615 19.532 3.19843C21.844 5.33072 23 8.19374 23 11.7875C23 14.1833 22.0476 16.7888 20.1429 19.6039C18.2383 22.419 15.3573 25.4677 11.5 28.75Z" fill="#2F6F4E" fill-opacity="0.8"/>
</svg>
