<svg width="23" height="29" viewBox="0 0 23 29" fill="none" xmlns="http://www.w3.org/2000/svg">
<path d="M11.5 14.3749C12.2906 14.3749 12.9674 14.0934 13.5304 13.5304C14.0934 12.9674 14.3749 12.2906 14.3749 11.5C14.3749 10.7093 14.0934 10.0325 13.5304 9.4695C12.9674 8.90648 12.2906 8.62497 11.5 8.62497C10.7093 8.62497 10.0325 8.90648 9.4695 9.4695C8.90648 10.0325 8.62497 10.7093 8.62497 11.5C8.62497 12.2906 8.90648 12.9674 9.4695 13.5304C10.0325 14.0934 10.7093 14.3749 11.5 14.3749ZM11.5 28.7499C7.64268 25.4676 4.7617 22.4189 2.85702 19.6038C0.95234 16.7887 0 14.1833 0 11.7875C0 8.19372 1.15599 5.33071 3.46796 3.19843C5.77993 1.06614 8.45726 0 11.5 0C14.5427 0 17.22 1.06614 19.532 3.19843C21.8439 5.33071 22.9999 8.19372 22.9999 11.7875C22.9999 14.1833 22.0476 16.7887 20.1429 19.6038C18.2382 22.4189 15.3572 25.4676 11.5 28.7499Z" fill="#2F6F4E" fill-opacity="0.8"/>
</svg>
