<svg width="23" height="29" viewBox="0 0 23 29" fill="none" xmlns="http://www.w3.org/2000/svg">
<path d="M11.5 14.375C12.2906 14.375 12.9674 14.0935 13.5305 13.5305C14.0935 12.9674 14.375 12.2906 14.375 11.5C14.375 10.7094 14.0935 10.0326 13.5305 9.46953C12.9674 8.90651 12.2906 8.625 11.5 8.625C10.7094 8.625 10.0325 8.90651 9.46953 9.46953C8.90651 10.0326 8.625 10.7094 8.625 11.5C8.625 12.2906 8.90651 12.9674 9.46953 13.5305C10.0325 14.0935 10.7094 14.375 11.5 14.375ZM11.5 28.75C7.64271 25.4677 4.76172 22.419 2.85703 19.6039C0.952344 16.7888 0 14.1833 0 11.7875C0 8.19375 1.15599 5.33073 3.46797 3.19844C5.77995 1.06615 8.45729 0 11.5 0C14.5427 0 17.22 1.06615 19.532 3.19844C21.844 5.33073 23 8.19375 23 11.7875C23 14.1833 22.0477 16.7888 20.143 19.6039C18.2383 22.419 15.3573 25.4677 11.5 28.75Z" fill="#2F6F4E" fill-opacity="0.8"/>
</svg>
