<svg width="23" height="20" viewBox="0 0 23 20" fill="none" xmlns="http://www.w3.org/2000/svg">
<path d="M10.125 15H12.375V11H16.875V9H12.375V5H10.125V9H5.625V11H10.125V15ZM11.25 20C9.69375 20 8.23125 19.7417 6.8625 19.225C5.49375 18.6917 4.30312 17.975 3.29063 17.075C2.27813 16.175 1.47188 15.1167 0.871875 13.9C0.290625 12.6833 0 11.3833 0 10C0 8.61667 0.290625 7.31667 0.871875 6.1C1.47188 4.88333 2.27813 3.825 3.29063 2.925C4.30312 2.025 5.49375 1.31667 6.8625 0.799999C8.23125 0.266666 9.69375 0 11.25 0C12.8063 0 14.2688 0.266666 15.6375 0.799999C17.0063 1.31667 18.1969 2.025 19.2094 2.925C20.2219 3.825 21.0188 4.88333 21.6 6.1C22.2 7.31667 22.5 8.61667 22.5 10C22.5 11.3833 22.2 12.6833 21.6 13.9C21.0188 15.1167 20.2219 16.175 19.2094 17.075C18.1969 17.975 17.0063 18.6917 15.6375 19.225C14.2688 19.7417 12.8063 20 11.25 20ZM11.25 18C13.7625 18 15.8906 17.225 17.6344 15.675C19.3781 14.125 20.25 12.2333 20.25 10C20.25 7.76667 19.3781 5.875 17.6344 4.325C15.8906 2.775 13.7625 2 11.25 2C8.7375 2 6.60938 2.775 4.86562 4.325C3.12187 5.875 2.25 7.76667 2.25 10C2.25 12.2333 3.12187 14.125 4.86562 15.675C6.60938 17.225 8.7375 18 11.25 18Z" fill="#2F6F4E"/>
</svg>
