<svg width="32" height="32" viewBox="0 0 32 32" fill="none" xmlns="http://www.w3.org/2000/svg">
<path d="M14.4 24H17.6V17.6H24V14.4H17.6V7.99999H14.4V14.4H8V17.6H14.4V24ZM16 32C13.7867 32 11.7067 31.5866 9.75999 30.76C7.81333 29.9066 6.12 28.76 4.68 27.32C3.24 25.88 2.09333 24.1866 1.24 22.24C0.413333 20.2933 0 18.2133 0 16C0 13.7867 0.413333 11.7067 1.24 9.75999C2.09333 7.81333 3.24 6.11999 4.68 4.68C6.12 3.24 7.81333 2.10666 9.75999 1.28C11.7067 0.426666 13.7867 0 16 0C18.2133 0 20.2933 0.426666 22.24 1.28C24.1867 2.10666 25.88 3.24 27.32 4.68C28.76 6.11999 29.8933 7.81333 30.72 9.75999C31.5733 11.7067 32 13.7867 32 16C32 18.2133 31.5733 20.2933 30.72 22.24C29.8933 24.1866 28.76 25.88 27.32 27.32C25.88 28.76 24.1867 29.9066 22.24 30.76C20.2933 31.5866 18.2133 32 16 32ZM16 28.8C19.5733 28.8 22.6 27.56 25.08 25.08C27.56 22.6 28.8 19.5733 28.8 16C28.8 12.4267 27.56 9.39999 25.08 6.92C22.6 4.44 19.5733 3.2 16 3.2C12.4267 3.2 9.39999 4.44 6.92 6.92C4.44 9.39999 3.2 12.4267 3.2 16C3.2 19.5733 4.44 22.6 6.92 25.08C9.39999 27.56 12.4267 28.8 16 28.8Z" fill="#D78E19"/>
</svg>
