<svg width="23" height="29" viewBox="0 0 23 29" fill="none" xmlns="http://www.w3.org/2000/svg">
<path d="M11.5 14.375C12.2906 14.375 12.9675 14.0935 13.5305 13.5305C14.0935 12.9675 14.375 12.2906 14.375 11.5C14.375 10.7094 14.0935 10.0326 13.5305 9.46955C12.9675 8.90653 12.2906 8.62502 11.5 8.62502C10.7094 8.62502 10.0326 8.90653 9.46955 9.46955C8.90653 10.0326 8.62502 10.7094 8.62502 11.5C8.62502 12.2906 8.90653 12.9675 9.46955 13.5305C10.0326 14.0935 10.7094 14.375 11.5 14.375ZM11.5 28.7501C7.64272 25.4678 4.76173 22.4191 2.85704 19.6039C0.952345 16.7888 0 14.1834 0 11.7875C0 8.19376 1.15599 5.33074 3.46798 3.19844C5.77996 1.06615 8.45731 0 11.5 0C14.5427 0 17.2201 1.06615 19.5321 3.19844C21.8441 5.33074 23 8.19376 23 11.7875C23 14.1834 22.0477 16.7888 20.143 19.6039C18.2383 22.4191 15.3573 25.4678 11.5 28.7501Z" fill="#2F6F4E" fill-opacity="0.8"/>
</svg>
