<svg width="25" height="25" viewBox="0 0 25 25" fill="none" xmlns="http://www.w3.org/2000/svg">
<path d="M12.5 0C5.625 0 0 5.625 0 12.5C0 19.375 5.625 25 12.5 25C19.375 25 25 19.375 25 12.5C25 5.625 19.375 0 12.5 0ZM9.5 19C9.225 19 8.85 18.9 8.5 18.75L7.7875 20.5L6.3625 20L6.5625 19.5125C8.0625 15.7375 9.7875 11.4375 16.25 10C16.25 10 8.75 10 6.3125 16.9375C6.3125 16.9375 5 15.625 5 14.125C5 12.625 6.5 9.4375 10.25 8.6875C11.3125 8.475 12.5 8.3125 13.675 8.125C16.625 7.725 19.4625 7.325 20 6.25C20 6.25 17.75 19 9.5 19Z" fill="#D78E19"/>
</svg>
