<svg width="20" height="28" viewBox="0 0 20 28" fill="none" xmlns="http://www.w3.org/2000/svg">
<path d="M10 3.75V0L5 5L10 10V6.25C14.1375 6.25 17.5 9.6125 17.5 13.75C17.5 15.0125 17.1875 16.2125 16.625 17.25L18.45 19.075C19.4628 17.4836 20.0005 15.6363 20 13.75C20 8.225 15.525 3.75 10 3.75ZM10 21.25C5.8625 21.25 2.5 17.8875 2.5 13.75C2.5 12.4875 2.8125 11.2875 3.375 10.25L1.55 8.425C0.537191 10.0164 -0.000524519 11.8637 3.83929e-07 13.75C3.83929e-07 19.275 4.475 23.75 10 23.75V27.5L15 22.5L10 17.5V21.25Z" fill="#2F6F4E"/>
</svg>
