<svg width="394" height="291" viewBox="0 0 394 291" fill="none" xmlns="http://www.w3.org/2000/svg">
<g filter="url(#filter0_d_18_221)">
<rect x="11" width="360" height="180" rx="8" fill="white" fill-opacity="0.56" shape-rendering="crispEdges"/>
</g>
<path d="M32.8011 141.364C32.7415 140.86 32.4995 140.469 32.0753 140.19C31.651 139.912 31.1307 139.773 30.5142 139.773C30.0634 139.773 29.669 139.846 29.331 139.991C28.9962 140.137 28.7344 140.338 28.5455 140.593C28.3598 140.848 28.267 141.138 28.267 141.463C28.267 141.735 28.3317 141.969 28.4609 142.164C28.5935 142.356 28.7625 142.517 28.968 142.646C29.1735 142.772 29.389 142.877 29.6143 142.96C29.8397 143.039 30.0469 143.104 30.2358 143.153L31.2699 143.432C31.535 143.501 31.83 143.598 32.1548 143.72C32.483 143.843 32.7962 144.01 33.0945 144.222C33.3961 144.431 33.6446 144.7 33.8402 145.028C34.0357 145.356 34.1335 145.759 34.1335 146.236C34.1335 146.786 33.9893 147.283 33.701 147.727C33.416 148.171 32.9983 148.524 32.4482 148.786C31.9013 149.048 31.2367 149.179 30.4545 149.179C29.7254 149.179 29.094 149.061 28.5604 148.826C28.0301 148.591 27.6125 148.263 27.3075 147.842C27.0059 147.421 26.8352 146.932 26.7955 146.375H28.0682C28.1013 146.759 28.2306 147.078 28.456 147.33C28.6847 147.578 28.973 147.764 29.321 147.886C29.6723 148.006 30.0502 148.065 30.4545 148.065C30.9252 148.065 31.3478 147.989 31.7223 147.837C32.0968 147.681 32.3935 147.465 32.6122 147.19C32.831 146.912 32.9403 146.587 32.9403 146.216C32.9403 145.878 32.8459 145.603 32.657 145.391C32.468 145.179 32.2195 145.006 31.9112 144.874C31.603 144.741 31.2699 144.625 30.9119 144.526L29.6591 144.168C28.8636 143.939 28.2339 143.612 27.7699 143.188C27.3059 142.764 27.0739 142.209 27.0739 141.523C27.0739 140.953 27.228 140.455 27.5362 140.031C27.8478 139.604 28.2654 139.272 28.7891 139.037C29.3161 138.798 29.9044 138.679 30.554 138.679C31.2102 138.679 31.7936 138.797 32.304 139.032C32.8144 139.264 33.2188 139.582 33.517 139.987C33.8187 140.391 33.9777 140.85 33.9943 141.364H32.8011ZM40.8141 145.878V141.364H41.9874V149H40.8141V147.707H40.7346C40.5556 148.095 40.2772 148.425 39.8993 148.697C39.5215 148.965 39.0442 149.099 38.4675 149.099C37.9902 149.099 37.566 148.995 37.1948 148.786C36.8236 148.574 36.5319 148.256 36.3198 147.832C36.1077 147.404 36.0016 146.866 36.0016 146.216V141.364H37.1749V146.136C37.1749 146.693 37.3307 147.137 37.6422 147.469C37.9571 147.8 38.3581 147.966 38.8453 147.966C39.137 147.966 39.4337 147.891 39.7353 147.742C40.0402 147.593 40.2954 147.364 40.5009 147.056C40.7097 146.748 40.8141 146.355 40.8141 145.878ZM47.2188 152.023C46.652 152.023 46.1648 151.95 45.7571 151.804C45.3494 151.661 45.0097 151.473 44.7379 151.237C44.4695 151.005 44.2557 150.757 44.0966 150.491L45.0312 149.835C45.1373 149.974 45.2715 150.134 45.4339 150.312C45.5964 150.495 45.8184 150.652 46.1001 150.785C46.3852 150.921 46.758 150.989 47.2188 150.989C47.8352 150.989 48.344 150.839 48.745 150.541C49.1461 150.243 49.3466 149.776 49.3466 149.139V147.588H49.2472C49.161 147.727 49.0384 147.9 48.8793 148.105C48.7235 148.307 48.4981 148.488 48.2031 148.647C47.9115 148.803 47.517 148.881 47.0199 148.881C46.4034 148.881 45.8499 148.735 45.3594 148.443C44.8722 148.152 44.486 147.727 44.201 147.17C43.9193 146.614 43.7784 145.937 43.7784 145.142C43.7784 144.36 43.916 143.679 44.1911 143.099C44.4661 142.515 44.849 142.065 45.3395 141.746C45.83 141.425 46.3968 141.264 47.0398 141.264C47.5369 141.264 47.9313 141.347 48.223 141.513C48.518 141.675 48.7434 141.861 48.8991 142.07C49.0582 142.275 49.1809 142.444 49.267 142.577H49.3864V141.364H50.5199V149.219C50.5199 149.875 50.3707 150.409 50.0724 150.82C49.7775 151.234 49.3797 151.537 48.8793 151.729C48.3821 151.925 47.8286 152.023 47.2188 152.023ZM47.179 147.827C47.6496 147.827 48.0473 147.719 48.3722 147.504C48.697 147.288 48.9439 146.978 49.1129 146.574C49.282 146.17 49.3665 145.686 49.3665 145.122C49.3665 144.572 49.2836 144.086 49.1179 143.665C48.9522 143.245 48.7069 142.915 48.3821 142.676C48.0573 142.437 47.6563 142.318 47.179 142.318C46.6818 142.318 46.2675 142.444 45.9361 142.696C45.608 142.948 45.361 143.286 45.1953 143.71C45.0329 144.134 44.9517 144.605 44.9517 145.122C44.9517 145.652 45.0346 146.121 45.2003 146.529C45.3693 146.933 45.6179 147.252 45.946 147.484C46.2775 147.712 46.6884 147.827 47.179 147.827ZM55.75 152.023C55.1832 152.023 54.696 151.95 54.2884 151.804C53.8807 151.661 53.541 151.473 53.2692 151.237C53.0007 151.005 52.7869 150.757 52.6278 150.491L53.5625 149.835C53.6686 149.974 53.8028 150.134 53.9652 150.312C54.1276 150.495 54.3497 150.652 54.6314 150.785C54.9164 150.921 55.2893 150.989 55.75 150.989C56.3665 150.989 56.8752 150.839 57.2763 150.541C57.6773 150.243 57.8778 149.776 57.8778 149.139V147.588H57.7784C57.6922 147.727 57.5696 147.9 57.4105 148.105C57.2547 148.307 57.0294 148.488 56.7344 148.647C56.4427 148.803 56.0483 148.881 55.5511 148.881C54.9347 148.881 54.3812 148.735 53.8906 148.443C53.4034 148.152 53.0173 147.727 52.7322 147.17C52.4505 146.614 52.3097 145.937 52.3097 145.142C52.3097 144.36 52.4472 143.679 52.7223 143.099C52.9974 142.515 53.3802 142.065 53.8707 141.746C54.3613 141.425 54.928 141.264 55.571 141.264C56.0682 141.264 56.4626 141.347 56.7543 141.513C57.0492 141.675 57.2746 141.861 57.4304 142.07C57.5895 142.275 57.7121 142.444 57.7983 142.577H57.9176V141.364H59.0511V149.219C59.0511 149.875 58.902 150.409 58.6037 150.82C58.3087 151.234 57.911 151.537 57.4105 151.729C56.9134 151.925 56.3598 152.023 55.75 152.023ZM55.7102 147.827C56.1809 147.827 56.5786 147.719 56.9034 147.504C57.2282 147.288 57.4751 146.978 57.6442 146.574C57.8132 146.17 57.8977 145.686 57.8977 145.122C57.8977 144.572 57.8149 144.086 57.6491 143.665C57.4834 143.245 57.2382 142.915 56.9134 142.676C56.5885 142.437 56.1875 142.318 55.7102 142.318C55.2131 142.318 54.7988 142.444 54.4673 142.696C54.1392 142.948 53.8923 143.286 53.7266 143.71C53.5642 144.134 53.483 144.605 53.483 145.122C53.483 145.652 53.5658 146.121 53.7315 146.529C53.9006 146.933 54.1491 147.252 54.4773 147.484C54.8087 147.712 55.2197 147.827 55.7102 147.827ZM64.4006 149.159C63.6648 149.159 63.0301 148.997 62.4964 148.672C61.9661 148.344 61.5568 147.886 61.2685 147.3C60.9834 146.71 60.8409 146.024 60.8409 145.241C60.8409 144.459 60.9834 143.77 61.2685 143.173C61.5568 142.573 61.9579 142.106 62.4716 141.771C62.9886 141.433 63.5919 141.264 64.2812 141.264C64.679 141.264 65.0717 141.33 65.4595 141.463C65.8473 141.596 66.2003 141.811 66.5185 142.109C66.8366 142.404 67.0902 142.795 67.2791 143.283C67.468 143.77 67.5625 144.37 67.5625 145.082V145.58H61.6761V144.565H66.3693C66.3693 144.134 66.2831 143.75 66.1108 143.412C65.9418 143.074 65.6998 142.807 65.3849 142.612C65.0734 142.416 64.7055 142.318 64.2812 142.318C63.8139 142.318 63.4096 142.434 63.0682 142.666C62.7301 142.895 62.4699 143.193 62.2876 143.561C62.1054 143.929 62.0142 144.323 62.0142 144.744V145.42C62.0142 145.997 62.1136 146.486 62.3125 146.887C62.5147 147.285 62.7947 147.588 63.1527 147.797C63.5107 148.002 63.9266 148.105 64.4006 148.105C64.7088 148.105 64.9872 148.062 65.2358 147.976C65.4877 147.886 65.7048 147.754 65.8871 147.578C66.0694 147.399 66.2102 147.177 66.3097 146.912L67.4432 147.23C67.3239 147.615 67.1233 147.953 66.8416 148.244C66.5599 148.533 66.2119 148.758 65.7976 148.92C65.3833 149.08 64.9176 149.159 64.4006 149.159ZM74.7564 143.074L73.7024 143.372C73.6361 143.196 73.5384 143.026 73.4091 142.86C73.2831 142.691 73.1108 142.552 72.892 142.442C72.6733 142.333 72.3932 142.278 72.0518 142.278C71.5845 142.278 71.1951 142.386 70.8835 142.602C70.5753 142.814 70.4212 143.084 70.4212 143.412C70.4212 143.704 70.5272 143.934 70.7393 144.103C70.9515 144.272 71.2829 144.413 71.7337 144.526L72.8672 144.804C73.55 144.97 74.0587 145.223 74.3935 145.565C74.7282 145.903 74.8956 146.339 74.8956 146.872C74.8956 147.31 74.7696 147.701 74.5178 148.045C74.2692 148.39 73.9212 148.662 73.4737 148.861C73.0263 149.06 72.5059 149.159 71.9126 149.159C71.1338 149.159 70.4891 148.99 69.9787 148.652C69.4683 148.314 69.1451 147.82 69.0092 147.17L70.1229 146.892C70.2289 147.303 70.4295 147.611 70.7244 147.817C71.0227 148.022 71.4122 148.125 71.8928 148.125C72.4396 148.125 72.8738 148.009 73.1953 147.777C73.5201 147.542 73.6825 147.26 73.6825 146.932C73.6825 146.667 73.5897 146.445 73.4041 146.266C73.2185 146.083 72.9335 145.947 72.549 145.858L71.2763 145.56C70.5769 145.394 70.0632 145.137 69.7351 144.789C69.4103 144.438 69.2479 143.999 69.2479 143.472C69.2479 143.041 69.3688 142.66 69.6108 142.328C69.8561 141.997 70.1892 141.737 70.6101 141.548C71.0343 141.359 71.5149 141.264 72.0518 141.264C72.8075 141.264 73.4008 141.43 73.8317 141.761C74.2659 142.093 74.5741 142.53 74.7564 143.074ZM79.9828 141.364V142.358H76.0254V141.364H79.9828ZM77.1788 139.534H78.3521V146.812C78.3521 147.144 78.4002 147.393 78.4963 147.558C78.5957 147.721 78.7217 147.83 78.8741 147.886C79.0299 147.939 79.194 147.966 79.3663 147.966C79.4956 147.966 79.6016 147.959 79.6845 147.946C79.7673 147.929 79.8336 147.916 79.8833 147.906L80.122 148.96C80.0424 148.99 79.9314 149.02 79.7889 149.05C79.6464 149.083 79.4657 149.099 79.247 149.099C78.9155 149.099 78.5907 149.028 78.2725 148.886C77.9577 148.743 77.6958 148.526 77.487 148.234C77.2815 147.943 77.1788 147.575 77.1788 147.131V139.534ZM81.7477 149V141.364H82.921V149H81.7477ZM82.3443 140.091C82.1156 140.091 81.9184 140.013 81.7527 139.857C81.5903 139.701 81.5091 139.514 81.5091 139.295C81.5091 139.077 81.5903 138.889 81.7527 138.734C81.9184 138.578 82.1156 138.5 82.3443 138.5C82.573 138.5 82.7685 138.578 82.9309 138.734C83.0967 138.889 83.1795 139.077 83.1795 139.295C83.1795 139.514 83.0967 139.701 82.9309 139.857C82.7685 140.013 82.573 140.091 82.3443 140.091ZM88.1722 149.159C87.4828 149.159 86.878 148.995 86.3576 148.667C85.8406 148.339 85.4362 147.88 85.1445 147.29C84.8562 146.7 84.712 146.01 84.712 145.222C84.712 144.426 84.8562 143.732 85.1445 143.138C85.4362 142.545 85.8406 142.085 86.3576 141.756C86.878 141.428 87.4828 141.264 88.1722 141.264C88.8616 141.264 89.4648 141.428 89.9819 141.756C90.5022 142.085 90.9066 142.545 91.195 143.138C91.4866 143.732 91.6325 144.426 91.6325 145.222C91.6325 146.01 91.4866 146.7 91.195 147.29C90.9066 147.88 90.5022 148.339 89.9819 148.667C89.4648 148.995 88.8616 149.159 88.1722 149.159ZM88.1722 148.105C88.6959 148.105 89.1268 147.971 89.4648 147.702C89.8029 147.434 90.0531 147.081 90.2156 146.643C90.378 146.206 90.4592 145.732 90.4592 145.222C90.4592 144.711 90.378 144.236 90.2156 143.795C90.0531 143.354 89.8029 142.998 89.4648 142.726C89.1268 142.454 88.6959 142.318 88.1722 142.318C87.6486 142.318 87.2177 142.454 86.8796 142.726C86.5415 142.998 86.2913 143.354 86.1289 143.795C85.9665 144.236 85.8853 144.711 85.8853 145.222C85.8853 145.732 85.9665 146.206 86.1289 146.643C86.2913 147.081 86.5415 147.434 86.8796 147.702C87.2177 147.971 87.6486 148.105 88.1722 148.105ZM94.5968 144.406V149H93.4235V141.364H94.557V142.557H94.6564C94.8354 142.169 95.1072 141.857 95.4718 141.622C95.8364 141.384 96.307 141.264 96.8837 141.264C97.4007 141.264 97.8532 141.37 98.2409 141.582C98.6287 141.791 98.9303 142.109 99.1458 142.537C99.3612 142.961 99.4689 143.498 99.4689 144.148V149H98.2956V144.227C98.2956 143.627 98.1399 143.16 97.8283 142.825C97.5167 142.487 97.0892 142.318 96.5456 142.318C96.1711 142.318 95.8364 142.399 95.5414 142.562C95.2497 142.724 95.0194 142.961 94.8503 143.273C94.6813 143.584 94.5968 143.962 94.5968 144.406ZM102.468 149.08C102.223 149.08 102.012 148.992 101.837 148.816C101.661 148.64 101.573 148.43 101.573 148.185C101.573 147.939 101.661 147.729 101.837 147.553C102.012 147.378 102.223 147.29 102.468 147.29C102.713 147.29 102.924 147.378 103.099 147.553C103.275 147.729 103.363 147.939 103.363 148.185C103.363 148.347 103.321 148.496 103.239 148.632C103.159 148.768 103.051 148.877 102.915 148.96C102.783 149.04 102.634 149.08 102.468 149.08ZM102.468 143.412C102.223 143.412 102.012 143.324 101.837 143.148C101.661 142.973 101.573 142.762 101.573 142.517C101.573 142.272 101.661 142.061 101.837 141.886C102.012 141.71 102.223 141.622 102.468 141.622C102.713 141.622 102.924 141.71 103.099 141.886C103.275 142.061 103.363 142.272 103.363 142.517C103.363 142.679 103.321 142.829 103.239 142.964C103.159 143.1 103.051 143.21 102.915 143.293C102.783 143.372 102.634 143.412 102.468 143.412ZM109.983 149H108.69L112.429 138.818H113.701L117.44 149H116.147L113.105 140.429H113.025L109.983 149ZM110.46 145.023H115.67V146.116H110.46V145.023ZM121.75 149.159C121.114 149.159 120.552 148.998 120.065 148.677C119.578 148.352 119.197 147.895 118.922 147.305C118.646 146.711 118.509 146.01 118.509 145.202C118.509 144.4 118.646 143.704 118.922 143.114C119.197 142.524 119.579 142.068 120.07 141.746C120.56 141.425 121.127 141.264 121.77 141.264C122.267 141.264 122.66 141.347 122.949 141.513C123.24 141.675 123.462 141.861 123.615 142.07C123.77 142.275 123.891 142.444 123.978 142.577H124.077V138.818H125.25V149H124.117V147.827H123.978C123.891 147.966 123.769 148.142 123.61 148.354C123.451 148.562 123.224 148.75 122.929 148.915C122.634 149.078 122.241 149.159 121.75 149.159ZM121.909 148.105C122.38 148.105 122.778 147.982 123.103 147.737C123.427 147.489 123.674 147.146 123.843 146.708C124.012 146.267 124.097 145.759 124.097 145.182C124.097 144.612 124.014 144.113 123.848 143.685C123.683 143.254 123.437 142.92 123.113 142.681C122.788 142.439 122.387 142.318 121.909 142.318C121.412 142.318 120.998 142.446 120.667 142.701C120.338 142.953 120.092 143.296 119.926 143.73C119.763 144.161 119.682 144.645 119.682 145.182C119.682 145.725 119.765 146.219 119.931 146.663C120.1 147.104 120.348 147.455 120.676 147.717C121.008 147.976 121.419 148.105 121.909 148.105ZM130.446 149.159C129.809 149.159 129.248 148.998 128.76 148.677C128.273 148.352 127.892 147.895 127.617 147.305C127.342 146.711 127.204 146.01 127.204 145.202C127.204 144.4 127.342 143.704 127.617 143.114C127.892 142.524 128.275 142.068 128.765 141.746C129.256 141.425 129.823 141.264 130.466 141.264C130.963 141.264 131.355 141.347 131.644 141.513C131.935 141.675 132.158 141.861 132.31 142.07C132.466 142.275 132.587 142.444 132.673 142.577H132.772V138.818H133.946V149H132.812V147.827H132.673C132.587 147.966 132.464 148.142 132.305 148.354C132.146 148.562 131.919 148.75 131.624 148.915C131.329 149.078 130.936 149.159 130.446 149.159ZM130.605 148.105C131.075 148.105 131.473 147.982 131.798 147.737C132.123 147.489 132.37 147.146 132.539 146.708C132.708 146.267 132.792 145.759 132.792 145.182C132.792 144.612 132.709 144.113 132.544 143.685C132.378 143.254 132.133 142.92 131.808 142.681C131.483 142.439 131.082 142.318 130.605 142.318C130.108 142.318 129.693 142.446 129.362 142.701C129.034 142.953 128.787 143.296 128.621 143.73C128.459 144.161 128.377 144.645 128.377 145.182C128.377 145.725 128.46 146.219 128.626 146.663C128.795 147.104 129.044 147.455 129.372 147.717C129.703 147.976 130.114 148.105 130.605 148.105ZM143.755 138.818V149H142.522V140.111H142.462L139.976 141.761V140.509L142.522 138.818H143.755ZM150.64 151.864V141.364H151.774V142.577H151.913C151.999 142.444 152.118 142.275 152.271 142.07C152.427 141.861 152.649 141.675 152.937 141.513C153.229 141.347 153.623 141.264 154.12 141.264C154.763 141.264 155.33 141.425 155.821 141.746C156.311 142.068 156.694 142.524 156.969 143.114C157.244 143.704 157.382 144.4 157.382 145.202C157.382 146.01 157.244 146.711 156.969 147.305C156.694 147.895 156.313 148.352 155.826 148.677C155.338 148.998 154.777 149.159 154.14 149.159C153.65 149.159 153.257 149.078 152.962 148.915C152.667 148.75 152.44 148.562 152.281 148.354C152.122 148.142 151.999 147.966 151.913 147.827H151.814V151.864H150.64ZM151.794 145.182C151.794 145.759 151.878 146.267 152.047 146.708C152.216 147.146 152.463 147.489 152.788 147.737C153.113 147.982 153.511 148.105 153.981 148.105C154.472 148.105 154.881 147.976 155.209 147.717C155.541 147.455 155.789 147.104 155.955 146.663C156.124 146.219 156.208 145.725 156.208 145.182C156.208 144.645 156.126 144.161 155.96 143.73C155.797 143.296 155.551 142.953 155.219 142.701C154.891 142.446 154.478 142.318 153.981 142.318C153.504 142.318 153.103 142.439 152.778 142.681C152.453 142.92 152.208 143.254 152.042 143.685C151.877 144.113 151.794 144.612 151.794 145.182ZM161.419 149.179C160.935 149.179 160.496 149.088 160.101 148.906C159.707 148.72 159.394 148.453 159.162 148.105C158.93 147.754 158.814 147.33 158.814 146.832C158.814 146.395 158.9 146.04 159.072 145.768C159.244 145.493 159.475 145.278 159.763 145.122C160.051 144.966 160.37 144.85 160.718 144.774C161.069 144.695 161.422 144.632 161.777 144.585C162.241 144.526 162.617 144.481 162.905 144.451C163.197 144.418 163.409 144.363 163.542 144.287C163.677 144.211 163.745 144.078 163.745 143.889V143.849C163.745 143.359 163.611 142.978 163.343 142.706C163.078 142.434 162.675 142.298 162.135 142.298C161.574 142.298 161.135 142.421 160.817 142.666C160.499 142.911 160.275 143.173 160.146 143.452L159.032 143.054C159.231 142.59 159.496 142.229 159.828 141.97C160.163 141.708 160.527 141.526 160.922 141.423C161.319 141.317 161.71 141.264 162.095 141.264C162.34 141.264 162.622 141.294 162.94 141.354C163.261 141.41 163.571 141.528 163.87 141.707C164.171 141.886 164.422 142.156 164.62 142.517C164.819 142.878 164.919 143.362 164.919 143.969V149H163.745V147.966H163.686C163.606 148.132 163.474 148.309 163.288 148.498C163.102 148.687 162.855 148.848 162.547 148.98C162.239 149.113 161.863 149.179 161.419 149.179ZM161.598 148.125C162.062 148.125 162.453 148.034 162.771 147.852C163.092 147.669 163.334 147.434 163.497 147.146C163.663 146.857 163.745 146.554 163.745 146.236V145.162C163.696 145.222 163.586 145.276 163.417 145.326C163.252 145.372 163.059 145.414 162.841 145.45C162.625 145.483 162.415 145.513 162.209 145.54C162.007 145.563 161.843 145.583 161.717 145.599C161.412 145.639 161.127 145.704 160.862 145.793C160.6 145.879 160.388 146.01 160.225 146.186C160.066 146.358 159.987 146.594 159.987 146.892C159.987 147.3 160.138 147.608 160.439 147.817C160.744 148.022 161.13 148.125 161.598 148.125ZM167.06 149V141.364H168.194V142.517H168.273C168.412 142.139 168.664 141.833 169.029 141.597C169.394 141.362 169.805 141.244 170.262 141.244C170.348 141.244 170.456 141.246 170.585 141.249C170.714 141.253 170.812 141.258 170.878 141.264V142.457C170.839 142.447 170.747 142.433 170.605 142.413C170.466 142.389 170.318 142.378 170.162 142.378C169.791 142.378 169.46 142.456 169.168 142.612C168.88 142.764 168.651 142.976 168.482 143.248C168.316 143.516 168.233 143.823 168.233 144.168V149H167.06ZM176.069 141.364V142.358H172.111V141.364H176.069ZM173.265 139.534H174.438V146.812C174.438 147.144 174.486 147.393 174.582 147.558C174.682 147.721 174.808 147.83 174.96 147.886C175.116 147.939 175.28 147.966 175.452 147.966C175.581 147.966 175.688 147.959 175.77 147.946C175.853 147.929 175.92 147.916 175.969 147.906L176.208 148.96C176.128 148.99 176.017 149.02 175.875 149.05C175.732 149.083 175.552 149.099 175.333 149.099C175.001 149.099 174.677 149.028 174.358 148.886C174.044 148.743 173.782 148.526 173.573 148.234C173.367 147.943 173.265 147.575 173.265 147.131V139.534ZM190.004 138.818V149H188.811L183.263 141.006H183.163V149H181.93V138.818H183.123L188.692 146.832H188.791V138.818H190.004ZM192.312 149V141.364H193.485V149H192.312ZM192.909 140.091C192.68 140.091 192.483 140.013 192.317 139.857C192.155 139.701 192.074 139.514 192.074 139.295C192.074 139.077 192.155 138.889 192.317 138.734C192.483 138.578 192.68 138.5 192.909 138.5C193.137 138.5 193.333 138.578 193.495 138.734C193.661 138.889 193.744 139.077 193.744 139.295C193.744 139.514 193.661 139.701 193.495 139.857C193.333 140.013 193.137 140.091 192.909 140.091ZM198.955 141.364V142.358H194.998V141.364H198.955ZM196.151 139.534H197.325V146.812C197.325 147.144 197.373 147.393 197.469 147.558C197.568 147.721 197.694 147.83 197.847 147.886C198.003 147.939 198.167 147.966 198.339 147.966C198.468 147.966 198.574 147.959 198.657 147.946C198.74 147.929 198.806 147.916 198.856 147.906L199.095 148.96C199.015 148.99 198.904 149.02 198.762 149.05C198.619 149.083 198.438 149.099 198.22 149.099C197.888 149.099 197.563 149.028 197.245 148.886C196.93 148.743 196.669 148.526 196.46 148.234C196.254 147.943 196.151 147.575 196.151 147.131V139.534ZM200.72 149V141.364H201.854V142.517H201.933C202.073 142.139 202.325 141.833 202.689 141.597C203.054 141.362 203.465 141.244 203.922 141.244C204.008 141.244 204.116 141.246 204.245 141.249C204.374 141.253 204.472 141.258 204.539 141.264V142.457C204.499 142.447 204.408 142.433 204.265 142.413C204.126 142.389 203.978 142.378 203.823 142.378C203.451 142.378 203.12 142.456 202.828 142.612C202.54 142.764 202.311 142.976 202.142 143.248C201.977 143.516 201.894 143.823 201.894 144.168V149H200.72ZM208.799 149.159C208.11 149.159 207.505 148.995 206.985 148.667C206.468 148.339 206.063 147.88 205.771 147.29C205.483 146.7 205.339 146.01 205.339 145.222C205.339 144.426 205.483 143.732 205.771 143.138C206.063 142.545 206.468 142.085 206.985 141.756C207.505 141.428 208.11 141.264 208.799 141.264C209.489 141.264 210.092 141.428 210.609 141.756C211.129 142.085 211.534 142.545 211.822 143.138C212.114 143.732 212.259 144.426 212.259 145.222C212.259 146.01 212.114 146.7 211.822 147.29C211.534 147.88 211.129 148.339 210.609 148.667C210.092 148.995 209.489 149.159 208.799 149.159ZM208.799 148.105C209.323 148.105 209.754 147.971 210.092 147.702C210.43 147.434 210.68 147.081 210.843 146.643C211.005 146.206 211.086 145.732 211.086 145.222C211.086 144.711 211.005 144.236 210.843 143.795C210.68 143.354 210.43 142.998 210.092 142.726C209.754 142.454 209.323 142.318 208.799 142.318C208.276 142.318 207.845 142.454 207.507 142.726C207.169 142.998 206.918 143.354 206.756 143.795C206.593 144.236 206.512 144.711 206.512 145.222C206.512 145.732 206.593 146.206 206.756 146.643C206.918 147.081 207.169 147.434 207.507 147.702C207.845 147.971 208.276 148.105 208.799 148.105ZM217.133 152.023C216.566 152.023 216.079 151.95 215.671 151.804C215.263 151.661 214.924 151.473 214.652 151.237C214.384 151.005 214.17 150.757 214.011 150.491L214.945 149.835C215.051 149.974 215.186 150.134 215.348 150.312C215.51 150.495 215.732 150.652 216.014 150.785C216.299 150.921 216.672 150.989 217.133 150.989C217.749 150.989 218.258 150.839 218.659 150.541C219.06 150.243 219.261 149.776 219.261 149.139V147.588H219.161C219.075 147.727 218.952 147.9 218.793 148.105C218.638 148.307 218.412 148.488 218.117 148.647C217.826 148.803 217.431 148.881 216.934 148.881C216.317 148.881 215.764 148.735 215.273 148.443C214.786 148.152 214.4 147.727 214.115 147.17C213.833 146.614 213.692 145.937 213.692 145.142C213.692 144.36 213.83 143.679 214.105 143.099C214.38 142.515 214.763 142.065 215.254 141.746C215.744 141.425 216.311 141.264 216.954 141.264C217.451 141.264 217.845 141.347 218.137 141.513C218.432 141.675 218.657 141.861 218.813 142.07C218.972 142.275 219.095 142.444 219.181 142.577H219.3V141.364H220.434V149.219C220.434 149.875 220.285 150.409 219.987 150.82C219.692 151.234 219.294 151.537 218.793 151.729C218.296 151.925 217.743 152.023 217.133 152.023ZM217.093 147.827C217.564 147.827 217.961 147.719 218.286 147.504C218.611 147.288 218.858 146.978 219.027 146.574C219.196 146.17 219.281 145.686 219.281 145.122C219.281 144.572 219.198 144.086 219.032 143.665C218.866 143.245 218.621 142.915 218.296 142.676C217.971 142.437 217.57 142.318 217.093 142.318C216.596 142.318 216.182 142.444 215.85 142.696C215.522 142.948 215.275 143.286 215.109 143.71C214.947 144.134 214.866 144.605 214.866 145.122C214.866 145.652 214.949 146.121 215.114 146.529C215.283 146.933 215.532 147.252 215.86 147.484C216.192 147.712 216.603 147.827 217.093 147.827ZM225.783 149.159C225.048 149.159 224.413 148.997 223.879 148.672C223.349 148.344 222.94 147.886 222.651 147.3C222.366 146.71 222.224 146.024 222.224 145.241C222.224 144.459 222.366 143.77 222.651 143.173C222.94 142.573 223.341 142.106 223.854 141.771C224.371 141.433 224.975 141.264 225.664 141.264C226.062 141.264 226.455 141.33 226.842 141.463C227.23 141.596 227.583 141.811 227.901 142.109C228.219 142.404 228.473 142.795 228.662 143.283C228.851 143.77 228.945 144.37 228.945 145.082V145.58H223.059V144.565H227.752C227.752 144.134 227.666 143.75 227.494 143.412C227.325 143.074 227.083 142.807 226.768 142.612C226.456 142.416 226.088 142.318 225.664 142.318C225.197 142.318 224.792 142.434 224.451 142.666C224.113 142.895 223.853 143.193 223.67 143.561C223.488 143.929 223.397 144.323 223.397 144.744V145.42C223.397 145.997 223.496 146.486 223.695 146.887C223.897 147.285 224.178 147.588 224.536 147.797C224.893 148.002 225.309 148.105 225.783 148.105C226.092 148.105 226.37 148.062 226.619 147.976C226.871 147.886 227.088 147.754 227.27 147.578C227.452 147.399 227.593 147.177 227.692 146.912L228.826 147.23C228.707 147.615 228.506 147.953 228.224 148.244C227.943 148.533 227.595 148.758 227.18 148.92C226.766 149.08 226.3 149.159 225.783 149.159ZM231.903 144.406V149H230.73V141.364H231.864V142.557H231.963C232.142 142.169 232.414 141.857 232.778 141.622C233.143 141.384 233.614 141.264 234.19 141.264C234.707 141.264 235.16 141.37 235.548 141.582C235.935 141.791 236.237 142.109 236.452 142.537C236.668 142.961 236.776 143.498 236.776 144.148V149H235.602V144.227C235.602 143.627 235.446 143.16 235.135 142.825C234.823 142.487 234.396 142.318 233.852 142.318C233.478 142.318 233.143 142.399 232.848 142.562C232.556 142.724 232.326 142.961 232.157 143.273C231.988 143.584 231.903 143.962 231.903 144.406ZM246.178 141.364V142.358H242.221V141.364H246.178ZM243.374 139.534H244.547V146.812C244.547 147.144 244.595 147.393 244.692 147.558C244.791 147.721 244.917 147.83 245.069 147.886C245.225 147.939 245.389 147.966 245.562 147.966C245.691 147.966 245.797 147.959 245.88 147.946C245.963 147.929 246.029 147.916 246.079 147.906L246.317 148.96C246.238 148.99 246.127 149.02 245.984 149.05C245.842 149.083 245.661 149.099 245.442 149.099C245.111 149.099 244.786 149.028 244.468 148.886C244.153 148.743 243.891 148.526 243.682 148.234C243.477 147.943 243.374 147.575 243.374 147.131V139.534ZM250.963 149.159C250.274 149.159 249.669 148.995 249.149 148.667C248.632 148.339 248.227 147.88 247.936 147.29C247.647 146.7 247.503 146.01 247.503 145.222C247.503 144.426 247.647 143.732 247.936 143.138C248.227 142.545 248.632 142.085 249.149 141.756C249.669 141.428 250.274 141.264 250.963 141.264C251.653 141.264 252.256 141.428 252.773 141.756C253.293 142.085 253.698 142.545 253.986 143.138C254.278 143.732 254.423 144.426 254.423 145.222C254.423 146.01 254.278 146.7 253.986 147.29C253.698 147.88 253.293 148.339 252.773 148.667C252.256 148.995 251.653 149.159 250.963 149.159ZM250.963 148.105C251.487 148.105 251.918 147.971 252.256 147.702C252.594 147.434 252.844 147.081 253.007 146.643C253.169 146.206 253.25 145.732 253.25 145.222C253.25 144.711 253.169 144.236 253.007 143.795C252.844 143.354 252.594 142.998 252.256 142.726C251.918 142.454 251.487 142.318 250.963 142.318C250.44 142.318 250.009 142.454 249.671 142.726C249.333 142.998 249.082 143.354 248.92 143.795C248.758 144.236 248.676 144.711 248.676 145.222C248.676 145.732 248.758 146.206 248.92 146.643C249.082 147.081 249.333 147.434 249.671 147.702C250.009 147.971 250.44 148.105 250.963 148.105ZM129.608 166V155.818H130.781V159.577H130.881C130.967 159.444 131.086 159.275 131.239 159.07C131.394 158.861 131.616 158.675 131.905 158.513C132.196 158.347 132.591 158.264 133.088 158.264C133.731 158.264 134.298 158.425 134.788 158.746C135.279 159.068 135.662 159.524 135.937 160.114C136.212 160.704 136.349 161.4 136.349 162.202C136.349 163.01 136.212 163.711 135.937 164.305C135.662 164.895 135.281 165.352 134.793 165.677C134.306 165.998 133.744 166.159 133.108 166.159C132.617 166.159 132.225 166.078 131.93 165.915C131.635 165.75 131.408 165.562 131.249 165.354C131.089 165.142 130.967 164.966 130.881 164.827H130.741V166H129.608ZM130.761 162.182C130.761 162.759 130.846 163.267 131.015 163.708C131.184 164.146 131.431 164.489 131.756 164.737C132.08 164.982 132.478 165.105 132.949 165.105C133.439 165.105 133.849 164.976 134.177 164.717C134.508 164.455 134.757 164.104 134.923 163.663C135.092 163.219 135.176 162.725 135.176 162.182C135.176 161.645 135.093 161.161 134.928 160.73C134.765 160.296 134.518 159.953 134.187 159.701C133.859 159.446 133.446 159.318 132.949 159.318C132.472 159.318 132.071 159.439 131.746 159.681C131.421 159.92 131.176 160.254 131.01 160.685C130.844 161.113 130.761 161.612 130.761 162.182ZM140.391 166.179C139.907 166.179 139.468 166.088 139.074 165.906C138.679 165.72 138.366 165.453 138.134 165.105C137.902 164.754 137.786 164.33 137.786 163.832C137.786 163.395 137.872 163.04 138.045 162.768C138.217 162.493 138.447 162.278 138.736 162.122C139.024 161.966 139.342 161.85 139.69 161.774C140.042 161.695 140.395 161.632 140.749 161.585C141.213 161.526 141.589 161.481 141.878 161.451C142.17 161.418 142.382 161.363 142.514 161.287C142.65 161.211 142.718 161.078 142.718 160.889V160.849C142.718 160.359 142.584 159.978 142.315 159.706C142.05 159.434 141.647 159.298 141.107 159.298C140.547 159.298 140.108 159.421 139.79 159.666C139.472 159.911 139.248 160.173 139.119 160.452L138.005 160.054C138.204 159.59 138.469 159.229 138.8 158.97C139.135 158.708 139.5 158.526 139.894 158.423C140.292 158.317 140.683 158.264 141.067 158.264C141.313 158.264 141.594 158.294 141.913 158.354C142.234 158.41 142.544 158.528 142.842 158.707C143.144 158.886 143.394 159.156 143.593 159.517C143.792 159.878 143.891 160.362 143.891 160.969V166H142.718V164.966H142.658C142.579 165.132 142.446 165.309 142.261 165.498C142.075 165.687 141.828 165.848 141.52 165.98C141.212 166.113 140.835 166.179 140.391 166.179ZM140.57 165.125C141.034 165.125 141.425 165.034 141.744 164.852C142.065 164.669 142.307 164.434 142.469 164.146C142.635 163.857 142.718 163.554 142.718 163.236V162.162C142.668 162.222 142.559 162.276 142.39 162.326C142.224 162.372 142.032 162.414 141.813 162.45C141.598 162.483 141.387 162.513 141.182 162.54C140.98 162.563 140.816 162.583 140.69 162.599C140.385 162.639 140.1 162.704 139.835 162.793C139.573 162.879 139.361 163.01 139.198 163.186C139.039 163.358 138.96 163.594 138.96 163.892C138.96 164.3 139.11 164.608 139.412 164.817C139.717 165.022 140.103 165.125 140.57 165.125ZM147.206 155.818V166H146.033V155.818H147.206ZM151.602 166.179C151.118 166.179 150.679 166.088 150.285 165.906C149.89 165.72 149.577 165.453 149.345 165.105C149.113 164.754 148.997 164.33 148.997 163.832C148.997 163.395 149.083 163.04 149.256 162.768C149.428 162.493 149.658 162.278 149.947 162.122C150.235 161.966 150.553 161.85 150.901 161.774C151.253 161.695 151.606 161.632 151.96 161.585C152.424 161.526 152.8 161.481 153.089 161.451C153.38 161.418 153.593 161.363 153.725 161.287C153.861 161.211 153.929 161.078 153.929 160.889V160.849C153.929 160.359 153.795 159.978 153.526 159.706C153.261 159.434 152.858 159.298 152.318 159.298C151.758 159.298 151.319 159.421 151.001 159.666C150.683 159.911 150.459 160.173 150.33 160.452L149.216 160.054C149.415 159.59 149.68 159.229 150.011 158.97C150.346 158.708 150.711 158.526 151.105 158.423C151.503 158.317 151.894 158.264 152.278 158.264C152.524 158.264 152.805 158.294 153.124 158.354C153.445 158.41 153.755 158.528 154.053 158.707C154.355 158.886 154.605 159.156 154.804 159.517C155.003 159.878 155.102 160.362 155.102 160.969V166H153.929V164.966H153.869C153.79 165.132 153.657 165.309 153.472 165.498C153.286 165.687 153.039 165.848 152.731 165.98C152.423 166.113 152.046 166.179 151.602 166.179ZM151.781 165.125C152.245 165.125 152.636 165.034 152.955 164.852C153.276 164.669 153.518 164.434 153.68 164.146C153.846 163.857 153.929 163.554 153.929 163.236V162.162C153.879 162.222 153.77 162.276 153.601 162.326C153.435 162.372 153.243 162.414 153.024 162.45C152.809 162.483 152.598 162.513 152.393 162.54C152.191 162.563 152.027 162.583 151.901 162.599C151.596 162.639 151.311 162.704 151.045 162.793C150.784 162.879 150.571 163.01 150.409 163.186C150.25 163.358 150.17 163.594 150.17 163.892C150.17 164.3 150.321 164.608 150.623 164.817C150.928 165.022 151.314 165.125 151.781 165.125ZM158.417 161.406V166H157.244V158.364H158.377V159.557H158.477C158.656 159.169 158.927 158.857 159.292 158.622C159.657 158.384 160.127 158.264 160.704 158.264C161.221 158.264 161.673 158.37 162.061 158.582C162.449 158.791 162.751 159.109 162.966 159.537C163.182 159.961 163.289 160.498 163.289 161.148V166H162.116V161.227C162.116 160.627 161.96 160.16 161.649 159.825C161.337 159.487 160.91 159.318 160.366 159.318C159.991 159.318 159.657 159.399 159.362 159.562C159.07 159.724 158.84 159.961 158.671 160.273C158.502 160.584 158.417 160.962 158.417 161.406ZM168.536 166.159C167.82 166.159 167.203 165.99 166.686 165.652C166.169 165.314 165.771 164.848 165.493 164.255C165.214 163.662 165.075 162.984 165.075 162.222C165.075 161.446 165.218 160.762 165.503 160.168C165.791 159.572 166.192 159.106 166.706 158.771C167.223 158.433 167.826 158.264 168.516 158.264C169.053 158.264 169.536 158.364 169.967 158.562C170.398 158.761 170.751 159.04 171.026 159.398C171.301 159.756 171.472 160.173 171.538 160.651H170.365C170.276 160.303 170.077 159.994 169.768 159.726C169.464 159.454 169.053 159.318 168.536 159.318C168.078 159.318 167.677 159.437 167.332 159.676C166.991 159.911 166.724 160.245 166.532 160.675C166.343 161.103 166.249 161.605 166.249 162.182C166.249 162.772 166.341 163.286 166.527 163.723C166.716 164.161 166.981 164.5 167.322 164.742C167.667 164.984 168.071 165.105 168.536 165.105C168.84 165.105 169.117 165.052 169.366 164.946C169.614 164.84 169.825 164.688 169.997 164.489C170.17 164.29 170.292 164.051 170.365 163.773H171.538C171.472 164.223 171.308 164.629 171.046 164.991C170.788 165.349 170.445 165.634 170.017 165.846C169.593 166.055 169.099 166.159 168.536 166.159ZM176.455 166.159C175.719 166.159 175.085 165.997 174.551 165.672C174.021 165.344 173.612 164.886 173.323 164.3C173.038 163.71 172.896 163.024 172.896 162.241C172.896 161.459 173.038 160.77 173.323 160.173C173.612 159.573 174.013 159.106 174.526 158.771C175.043 158.433 175.647 158.264 176.336 158.264C176.734 158.264 177.126 158.33 177.514 158.463C177.902 158.596 178.255 158.811 178.573 159.109C178.891 159.404 179.145 159.795 179.334 160.283C179.523 160.77 179.617 161.37 179.617 162.082V162.58H173.731V161.565H178.424C178.424 161.134 178.338 160.75 178.165 160.412C177.996 160.074 177.754 159.807 177.44 159.612C177.128 159.416 176.76 159.318 176.336 159.318C175.869 159.318 175.464 159.434 175.123 159.666C174.785 159.895 174.525 160.193 174.342 160.561C174.16 160.929 174.069 161.323 174.069 161.744V162.42C174.069 162.997 174.168 163.486 174.367 163.887C174.569 164.285 174.849 164.588 175.207 164.797C175.565 165.002 175.981 165.105 176.455 165.105C176.763 165.105 177.042 165.062 177.29 164.976C177.542 164.886 177.759 164.754 177.942 164.578C178.124 164.399 178.265 164.177 178.364 163.912L179.498 164.23C179.379 164.615 179.178 164.953 178.896 165.244C178.615 165.533 178.267 165.758 177.852 165.92C177.438 166.08 176.972 166.159 176.455 166.159ZM188.661 158.364V159.358H184.703V158.364H188.661ZM185.857 156.534H187.03V163.812C187.03 164.144 187.078 164.393 187.174 164.558C187.273 164.721 187.399 164.83 187.552 164.886C187.708 164.939 187.872 164.966 188.044 164.966C188.173 164.966 188.279 164.959 188.362 164.946C188.445 164.929 188.511 164.916 188.561 164.906L188.8 165.96C188.72 165.99 188.609 166.02 188.467 166.05C188.324 166.083 188.143 166.099 187.925 166.099C187.593 166.099 187.268 166.028 186.95 165.886C186.635 165.743 186.374 165.526 186.165 165.234C185.959 164.943 185.857 164.575 185.857 164.131V156.534ZM191.763 161.406V166H190.589V155.818H191.763V159.557H191.862C192.041 159.162 192.31 158.849 192.668 158.617C193.029 158.382 193.509 158.264 194.109 158.264C194.63 158.264 195.085 158.369 195.477 158.577C195.868 158.783 196.171 159.099 196.386 159.527C196.605 159.951 196.714 160.491 196.714 161.148V166H195.541V161.227C195.541 160.621 195.384 160.152 195.069 159.82C194.757 159.486 194.325 159.318 193.771 159.318C193.387 159.318 193.042 159.399 192.737 159.562C192.436 159.724 192.197 159.961 192.021 160.273C191.849 160.584 191.763 160.962 191.763 161.406ZM202.063 166.159C201.327 166.159 200.692 165.997 200.159 165.672C199.628 165.344 199.219 164.886 198.931 164.3C198.646 163.71 198.503 163.024 198.503 162.241C198.503 161.459 198.646 160.77 198.931 160.173C199.219 159.573 199.62 159.106 200.134 158.771C200.651 158.433 201.254 158.264 201.943 158.264C202.341 158.264 202.734 158.33 203.122 158.463C203.509 158.596 203.862 158.811 204.181 159.109C204.499 159.404 204.752 159.795 204.941 160.283C205.13 160.77 205.225 161.37 205.225 162.082V162.58H199.338V161.565H204.031C204.031 161.134 203.945 160.75 203.773 160.412C203.604 160.074 203.362 159.807 203.047 159.612C202.735 159.416 202.368 159.318 201.943 159.318C201.476 159.318 201.072 159.434 200.73 159.666C200.392 159.895 200.132 160.193 199.95 160.561C199.767 160.929 199.676 161.323 199.676 161.744V162.42C199.676 162.997 199.776 163.486 199.975 163.887C200.177 164.285 200.457 164.588 200.815 164.797C201.173 165.002 201.589 165.105 202.063 165.105C202.371 165.105 202.649 165.062 202.898 164.976C203.15 164.886 203.367 164.754 203.549 164.578C203.731 164.399 203.872 164.177 203.972 163.912L205.105 164.23C204.986 164.615 204.785 164.953 204.504 165.244C204.222 165.533 203.874 165.758 203.46 165.92C203.045 166.08 202.58 166.159 202.063 166.159ZM210.947 166V158.364H212.08V159.557H212.18C212.339 159.149 212.596 158.833 212.95 158.607C213.305 158.379 213.731 158.264 214.228 158.264C214.732 158.264 215.151 158.379 215.486 158.607C215.824 158.833 216.088 159.149 216.276 159.557H216.356C216.552 159.162 216.845 158.849 217.236 158.617C217.627 158.382 218.096 158.264 218.643 158.264C219.326 158.264 219.884 158.478 220.318 158.906C220.753 159.33 220.97 159.991 220.97 160.889V166H219.796V160.889C219.796 160.326 219.642 159.923 219.334 159.681C219.026 159.439 218.663 159.318 218.245 159.318C217.708 159.318 217.292 159.481 216.997 159.805C216.702 160.127 216.555 160.535 216.555 161.028V166H215.362V160.77C215.362 160.336 215.221 159.986 214.939 159.721C214.657 159.452 214.294 159.318 213.85 159.318C213.545 159.318 213.26 159.399 212.995 159.562C212.733 159.724 212.521 159.95 212.359 160.238C212.2 160.523 212.12 160.853 212.12 161.227V166H210.947ZM223.115 166V158.364H224.288V166H223.115ZM223.711 157.091C223.483 157.091 223.286 157.013 223.12 156.857C222.957 156.701 222.876 156.514 222.876 156.295C222.876 156.077 222.957 155.889 223.12 155.734C223.286 155.578 223.483 155.5 223.711 155.5C223.94 155.5 224.136 155.578 224.298 155.734C224.464 155.889 224.547 156.077 224.547 156.295C224.547 156.514 224.464 156.701 224.298 156.857C224.136 157.013 223.94 157.091 223.711 157.091ZM227.312 158.364L229.142 161.486L230.971 158.364H232.324L229.858 162.182L232.324 166H230.971L229.142 163.037L227.312 166H225.96L228.386 162.182L225.96 158.364H227.312ZM234.853 166.08C234.608 166.08 234.397 165.992 234.221 165.816C234.046 165.64 233.958 165.43 233.958 165.185C233.958 164.939 234.046 164.729 234.221 164.553C234.397 164.378 234.608 164.29 234.853 164.29C235.098 164.29 235.309 164.378 235.484 164.553C235.66 164.729 235.748 164.939 235.748 165.185C235.748 165.347 235.706 165.496 235.623 165.632C235.544 165.768 235.436 165.877 235.3 165.96C235.168 166.04 235.019 166.08 234.853 166.08Z" fill="black"/>
<path d="M27.5852 92V78.9091H35.4858V80.3153H29.1705V84.7386H35.0767V86.1449H29.1705V90.5938H35.5881V92H27.5852ZM45.093 84.3807L43.7379 84.7642C43.6527 84.5384 43.527 84.3189 43.3608 84.1058C43.1989 83.8885 42.9773 83.7095 42.696 83.5689C42.4148 83.4283 42.0547 83.358 41.6158 83.358C41.0149 83.358 40.5142 83.4964 40.1136 83.7734C39.7173 84.0462 39.5192 84.3935 39.5192 84.8153C39.5192 85.1903 39.6555 85.4865 39.9283 85.7038C40.201 85.9212 40.6271 86.1023 41.2067 86.2472L42.6641 86.6051C43.5419 86.8182 44.196 87.1442 44.6264 87.5831C45.0568 88.0178 45.272 88.5781 45.272 89.2642C45.272 89.8267 45.1101 90.3295 44.7862 90.7727C44.4666 91.2159 44.0192 91.5653 43.4439 91.821C42.8686 92.0767 42.1996 92.2045 41.4368 92.2045C40.4354 92.2045 39.6065 91.9872 38.9503 91.5526C38.294 91.1179 37.8786 90.483 37.7038 89.6477L39.1357 89.2898C39.272 89.8182 39.5298 90.2145 39.9091 90.4787C40.2926 90.7429 40.7933 90.875 41.4112 90.875C42.1143 90.875 42.6726 90.7259 43.0859 90.4276C43.5036 90.125 43.7124 89.7628 43.7124 89.3409C43.7124 89 43.593 88.7145 43.3544 88.4844C43.1158 88.25 42.7493 88.0753 42.255 87.9602L40.6186 87.5767C39.7195 87.3636 39.0589 87.0334 38.6371 86.5859C38.2195 86.1342 38.0107 85.5696 38.0107 84.892C38.0107 84.3381 38.1662 83.848 38.4773 83.4219C38.7926 82.9957 39.2209 82.6612 39.7621 82.4183C40.3075 82.1754 40.9254 82.054 41.6158 82.054C42.5874 82.054 43.3501 82.267 43.9041 82.6932C44.4624 83.1193 44.8587 83.6818 45.093 84.3807ZM51.8127 82.1818V83.4602H46.7246V82.1818H51.8127ZM48.2076 79.8295H49.7161V89.1875C49.7161 89.6136 49.7779 89.9332 49.9015 90.1463C50.0293 90.3551 50.1912 90.4957 50.3873 90.5682C50.5875 90.6364 50.7985 90.6705 51.0201 90.6705C51.1863 90.6705 51.3226 90.6619 51.4292 90.6449C51.5357 90.6236 51.6209 90.6065 51.6848 90.5938L51.9917 91.9489C51.8894 91.9872 51.7466 92.0256 51.5634 92.0639C51.3801 92.1065 51.1479 92.1278 50.8667 92.1278C50.4405 92.1278 50.0229 92.0362 49.6138 91.853C49.209 91.6697 48.8723 91.3906 48.6039 91.0156C48.3397 90.6406 48.2076 90.1676 48.2076 89.5966V79.8295ZM54.0819 92V82.1818H55.5904V92H54.0819ZM54.8489 80.5455C54.5549 80.5455 54.3013 80.4453 54.0882 80.245C53.8794 80.0447 53.775 79.804 53.775 79.5227C53.775 79.2415 53.8794 79.0007 54.0882 78.8004C54.3013 78.6001 54.5549 78.5 54.8489 78.5C55.1429 78.5 55.3944 78.6001 55.6032 78.8004C55.8162 79.0007 55.9228 79.2415 55.9228 79.5227C55.9228 79.804 55.8162 80.0447 55.6032 80.245C55.3944 80.4453 55.1429 80.5455 54.8489 80.5455ZM58.3533 92V82.1818H59.8107V83.7159H59.9386C60.1431 83.1918 60.4734 82.7848 60.9293 82.495C61.3853 82.201 61.9329 82.054 62.5721 82.054C63.2198 82.054 63.7589 82.201 64.1893 82.495C64.6239 82.7848 64.9627 83.1918 65.2056 83.7159H65.3079C65.5593 83.2088 65.9364 82.8061 66.4393 82.5078C66.9421 82.2053 67.5451 82.054 68.2482 82.054C69.1261 82.054 69.8441 82.3288 70.4023 82.8786C70.9606 83.424 71.2397 84.2741 71.2397 85.429V92H69.7312V85.429C69.7312 84.7045 69.533 84.1868 69.1367 83.8757C68.7404 83.5646 68.2738 83.4091 67.7369 83.4091C67.0465 83.4091 66.5117 83.6179 66.1325 84.0355C65.7532 84.4489 65.5636 84.973 65.5636 85.608V92H64.0295V85.2756C64.0295 84.7173 63.8484 84.2678 63.4862 83.9268C63.1239 83.5817 62.6573 83.4091 62.0863 83.4091C61.6942 83.4091 61.3278 83.5135 60.9869 83.7223C60.6502 83.9311 60.3775 84.2209 60.1687 84.5916C59.9641 84.9581 59.8619 85.3821 59.8619 85.8636V92H58.3533ZM76.8871 92.2301C76.2649 92.2301 75.7003 92.1129 75.1932 91.8786C74.6861 91.6399 74.2834 91.2969 73.9851 90.8494C73.6868 90.3977 73.5376 89.8523 73.5376 89.2131C73.5376 88.6506 73.6484 88.1946 73.87 87.8452C74.0916 87.4915 74.3878 87.2145 74.7585 87.0142C75.1293 86.8139 75.5384 86.6648 75.9858 86.5668C76.4375 86.4645 76.8913 86.3835 77.3473 86.3239C77.9439 86.2472 78.4276 86.1896 78.7983 86.1513C79.1733 86.1087 79.446 86.0384 79.6165 85.9403C79.7912 85.8423 79.8786 85.6719 79.8786 85.429V85.3778C79.8786 84.7472 79.706 84.2571 79.3608 83.9077C79.0199 83.5582 78.5021 83.3835 77.8075 83.3835C77.0874 83.3835 76.5227 83.5412 76.1136 83.8565C75.7045 84.1719 75.4169 84.5085 75.2507 84.8665L73.8189 84.3551C74.0746 83.7585 74.4155 83.294 74.8416 82.9616C75.272 82.625 75.7408 82.3906 76.2479 82.2585C76.7592 82.1222 77.2621 82.054 77.7564 82.054C78.0717 82.054 78.4339 82.0923 78.843 82.169C79.2564 82.2415 79.6548 82.3928 80.0384 82.6229C80.4261 82.853 80.7479 83.2003 81.0036 83.6648C81.2592 84.1293 81.3871 84.7514 81.3871 85.5312V92H79.8786V90.6705H79.8018C79.6996 90.8835 79.5291 91.1115 79.2905 91.3544C79.0518 91.5973 78.7344 91.804 78.3381 91.9744C77.9418 92.1449 77.4581 92.2301 76.8871 92.2301ZM77.1172 90.875C77.7138 90.875 78.2166 90.7578 78.6257 90.5234C79.0391 90.2891 79.3501 89.9865 79.5589 89.6158C79.772 89.245 79.8786 88.8551 79.8786 88.446V87.0653C79.8146 87.142 79.674 87.2124 79.4567 87.2763C79.2436 87.3359 78.9964 87.3892 78.7152 87.4361C78.4382 87.4787 78.1676 87.517 77.9034 87.5511C77.6435 87.581 77.4325 87.6065 77.2706 87.6278C76.8786 87.679 76.5121 87.7621 76.1712 87.8771C75.8345 87.9879 75.5618 88.1562 75.353 88.3821C75.1484 88.6037 75.0462 88.9062 75.0462 89.2898C75.0462 89.8139 75.2401 90.2102 75.6278 90.4787C76.0199 90.7429 76.5163 90.875 77.1172 90.875ZM88.4103 82.1818V83.4602H83.3223V82.1818H88.4103ZM84.8052 79.8295H86.3137V89.1875C86.3137 89.6136 86.3755 89.9332 86.4991 90.1463C86.627 90.3551 86.7889 90.4957 86.9849 90.5682C87.1852 90.6364 87.3961 90.6705 87.6177 90.6705C87.7839 90.6705 87.9203 90.6619 88.0268 90.6449C88.1333 90.6236 88.2186 90.6065 88.2825 90.5938L88.5893 91.9489C88.487 91.9872 88.3443 92.0256 88.161 92.0639C87.9778 92.1065 87.7456 92.1278 87.4643 92.1278C87.0382 92.1278 86.6206 92.0362 86.2115 91.853C85.8066 91.6697 85.47 91.3906 85.2015 91.0156C84.9373 90.6406 84.8052 90.1676 84.8052 89.5966V79.8295ZM94.6905 92.2045C93.7445 92.2045 92.9284 91.9957 92.2424 91.5781C91.5605 91.1562 91.0343 90.5682 90.6635 89.8139C90.2971 89.0554 90.1138 88.1733 90.1138 87.1676C90.1138 86.1619 90.2971 85.2756 90.6635 84.5085C91.0343 83.7372 91.5499 83.1364 92.2104 82.706C92.8752 82.2713 93.6507 82.054 94.5371 82.054C95.0485 82.054 95.5534 82.1392 96.052 82.3097C96.5506 82.4801 97.0044 82.7571 97.4135 83.1406C97.8226 83.5199 98.1486 84.0227 98.3915 84.6491C98.6344 85.2756 98.7559 86.0469 98.7559 86.9631V87.6023H91.1877V86.2983H97.2218C97.2218 85.7443 97.111 85.25 96.8894 84.8153C96.6721 84.3807 96.361 84.0376 95.9561 83.7862C95.5556 83.5348 95.0826 83.4091 94.5371 83.4091C93.9363 83.4091 93.4164 83.5582 92.9775 83.8565C92.5428 84.1506 92.2083 84.5341 91.9739 85.0071C91.7395 85.4801 91.6223 85.9872 91.6223 86.5284V87.3977C91.6223 88.1392 91.7502 88.7678 92.0059 89.2834C92.2658 89.7947 92.6259 90.1847 93.0861 90.4531C93.5463 90.7173 94.0811 90.8494 94.6905 90.8494C95.0868 90.8494 95.4448 90.794 95.7644 90.6832C96.0882 90.5682 96.3674 90.3977 96.6017 90.1719C96.8361 89.9418 97.0172 89.6562 97.1451 89.3153L98.6025 89.7244C98.449 90.2188 98.1912 90.6534 97.829 91.0284C97.4668 91.3991 97.0194 91.6889 96.4867 91.8977C95.954 92.1023 95.3553 92.2045 94.6905 92.2045ZM104.758 92.2045C103.94 92.2045 103.218 91.9979 102.591 91.5845C101.965 91.1669 101.475 90.5788 101.121 89.8203C100.767 89.0575 100.59 88.1562 100.59 87.1165C100.59 86.0852 100.767 85.1903 101.121 84.4318C101.475 83.6733 101.967 83.0874 102.597 82.674C103.228 82.2607 103.957 82.054 104.784 82.054C105.423 82.054 105.928 82.1605 106.298 82.3736C106.673 82.5824 106.959 82.821 107.155 83.0895C107.355 83.3537 107.511 83.571 107.622 83.7415H107.749V78.9091H109.258V92H107.801V90.4915H107.622C107.511 90.6705 107.353 90.8963 107.149 91.169C106.944 91.4375 106.652 91.6783 106.273 91.8913C105.894 92.1001 105.389 92.2045 104.758 92.2045ZM104.963 90.8494C105.568 90.8494 106.079 90.6918 106.497 90.3764C106.914 90.0568 107.232 89.6158 107.449 89.0533C107.666 88.4865 107.775 87.8324 107.775 87.0909C107.775 86.358 107.669 85.7166 107.455 85.1669C107.242 84.6129 106.927 84.1825 106.509 83.8757C106.092 83.5646 105.576 83.4091 104.963 83.4091C104.323 83.4091 103.791 83.5732 103.365 83.9013C102.943 84.2251 102.625 84.6662 102.412 85.2244C102.203 85.7784 102.099 86.4006 102.099 87.0909C102.099 87.7898 102.205 88.4247 102.419 88.9957C102.636 89.5625 102.955 90.0142 103.377 90.3509C103.803 90.6832 104.332 90.8494 104.963 90.8494ZM117.497 78.9091H119.389L123.838 89.7756H123.992L128.441 78.9091H130.333V92H128.85V82.054H128.722L124.631 92H123.199L119.108 82.054H118.98V92H117.497V78.9091ZM137.295 92.2045C136.409 92.2045 135.631 91.9936 134.962 91.5717C134.297 91.1499 133.777 90.5597 133.402 89.8011C133.032 89.0426 132.846 88.1562 132.846 87.142C132.846 86.1193 133.032 85.2266 133.402 84.4638C133.777 83.701 134.297 83.1087 134.962 82.6868C135.631 82.2649 136.409 82.054 137.295 82.054C138.181 82.054 138.957 82.2649 139.622 82.6868C140.291 83.1087 140.811 83.701 141.181 84.4638C141.556 85.2266 141.744 86.1193 141.744 87.142C141.744 88.1562 141.556 89.0426 141.181 89.8011C140.811 90.5597 140.291 91.1499 139.622 91.5717C138.957 91.9936 138.181 92.2045 137.295 92.2045ZM137.295 90.8494C137.968 90.8494 138.522 90.6768 138.957 90.3317C139.392 89.9865 139.713 89.5327 139.922 88.9702C140.131 88.4077 140.235 87.7983 140.235 87.142C140.235 86.4858 140.131 85.8743 139.922 85.3075C139.713 84.7408 139.392 84.2827 138.957 83.9332C138.522 83.5838 137.968 83.4091 137.295 83.4091C136.622 83.4091 136.068 83.5838 135.633 83.9332C135.199 84.2827 134.877 84.7408 134.668 85.3075C134.459 85.8743 134.355 86.4858 134.355 87.142C134.355 87.7983 134.459 88.4077 134.668 88.9702C134.877 89.5327 135.199 89.9865 135.633 90.3317C136.068 90.6768 136.622 90.8494 137.295 90.8494ZM144.047 92V82.1818H145.555V92H144.047ZM144.814 80.5455C144.52 80.5455 144.266 80.4453 144.053 80.245C143.844 80.0447 143.74 79.804 143.74 79.5227C143.74 79.2415 143.844 79.0007 144.053 78.8004C144.266 78.6001 144.52 78.5 144.814 78.5C145.108 78.5 145.359 78.6001 145.568 78.8004C145.781 79.0007 145.888 79.2415 145.888 79.5227C145.888 79.804 145.781 80.0447 145.568 80.245C145.359 80.4453 145.108 80.5455 144.814 80.5455ZM155.273 84.3807L153.918 84.7642C153.832 84.5384 153.707 84.3189 153.54 84.1058C153.379 83.8885 153.157 83.7095 152.876 83.5689C152.594 83.4283 152.234 83.358 151.795 83.358C151.195 83.358 150.694 83.4964 150.293 83.7734C149.897 84.0462 149.699 84.3935 149.699 84.8153C149.699 85.1903 149.835 85.4865 150.108 85.7038C150.381 85.9212 150.807 86.1023 151.386 86.2472L152.844 86.6051C153.722 86.8182 154.376 87.1442 154.806 87.5831C155.237 88.0178 155.452 88.5781 155.452 89.2642C155.452 89.8267 155.29 90.3295 154.966 90.7727C154.646 91.2159 154.199 91.5653 153.624 91.821C153.048 92.0767 152.379 92.2045 151.616 92.2045C150.615 92.2045 149.786 91.9872 149.13 91.5526C148.474 91.1179 148.058 90.483 147.884 89.6477L149.315 89.2898C149.452 89.8182 149.71 90.2145 150.089 90.4787C150.472 90.7429 150.973 90.875 151.591 90.875C152.294 90.875 152.852 90.7259 153.266 90.4276C153.683 90.125 153.892 89.7628 153.892 89.3409C153.892 89 153.773 88.7145 153.534 88.4844C153.295 88.25 152.929 88.0753 152.435 87.9602L150.798 87.5767C149.899 87.3636 149.239 87.0334 148.817 86.5859C148.399 86.1342 148.19 85.5696 148.19 84.892C148.19 84.3381 148.346 83.848 148.657 83.4219C148.972 82.9957 149.401 82.6612 149.942 82.4183C150.487 82.1754 151.105 82.054 151.795 82.054C152.767 82.054 153.53 82.267 154.084 82.6932C154.642 83.1193 155.038 83.6818 155.273 84.3807ZM161.992 82.1818V83.4602H156.904V82.1818H161.992ZM158.387 79.8295H159.896V89.1875C159.896 89.6136 159.958 89.9332 160.081 90.1463C160.209 90.3551 160.371 90.4957 160.567 90.5682C160.767 90.6364 160.978 90.6705 161.2 90.6705C161.366 90.6705 161.502 90.6619 161.609 90.6449C161.715 90.6236 161.801 90.6065 161.865 90.5938L162.171 91.9489C162.069 91.9872 161.926 92.0256 161.743 92.0639C161.56 92.1065 161.328 92.1278 161.046 92.1278C160.62 92.1278 160.203 92.0362 159.794 91.853C159.389 91.6697 159.052 91.3906 158.784 91.0156C158.519 90.6406 158.387 90.1676 158.387 89.5966V79.8295ZM170.449 87.9858V82.1818H171.958V92H170.449V90.3381H170.347C170.117 90.8366 169.759 91.2607 169.273 91.6101C168.787 91.9553 168.173 92.1278 167.432 92.1278C166.818 92.1278 166.273 91.9936 165.796 91.7251C165.318 91.4524 164.943 91.0433 164.671 90.4979C164.398 89.9482 164.262 89.2557 164.262 88.4205V82.1818H165.77V88.3182C165.77 89.0341 165.97 89.6051 166.371 90.0312C166.776 90.4574 167.291 90.6705 167.918 90.6705C168.293 90.6705 168.674 90.5746 169.062 90.3828C169.454 90.1911 169.782 89.897 170.046 89.5007C170.315 89.1044 170.449 88.5994 170.449 87.9858ZM174.721 92V82.1818H176.178V83.6648H176.28C176.459 83.179 176.783 82.7848 177.252 82.4822C177.721 82.1797 178.249 82.0284 178.837 82.0284C178.948 82.0284 179.086 82.0305 179.252 82.0348C179.419 82.0391 179.544 82.0455 179.63 82.054V83.5881C179.578 83.5753 179.461 83.5561 179.278 83.5305C179.099 83.5007 178.909 83.4858 178.709 83.4858C178.232 83.4858 177.806 83.5859 177.431 83.7862C177.06 83.9822 176.766 84.255 176.549 84.6044C176.336 84.9496 176.229 85.3437 176.229 85.7869V92H174.721ZM185.235 92.2045C184.289 92.2045 183.473 91.9957 182.787 91.5781C182.105 91.1562 181.579 90.5682 181.208 89.8139C180.842 89.0554 180.659 88.1733 180.659 87.1676C180.659 86.1619 180.842 85.2756 181.208 84.5085C181.579 83.7372 182.095 83.1364 182.755 82.706C183.42 82.2713 184.196 82.054 185.082 82.054C185.593 82.054 186.098 82.1392 186.597 82.3097C187.096 82.4801 187.549 82.7571 187.958 83.1406C188.368 83.5199 188.694 84.0227 188.936 84.6491C189.179 85.2756 189.301 86.0469 189.301 86.9631V87.6023H181.733V86.2983H187.767C187.767 85.7443 187.656 85.25 187.434 84.8153C187.217 84.3807 186.906 84.0376 186.501 83.7862C186.1 83.5348 185.627 83.4091 185.082 83.4091C184.481 83.4091 183.961 83.5582 183.522 83.8565C183.088 84.1506 182.753 84.5341 182.519 85.0071C182.284 85.4801 182.167 85.9872 182.167 86.5284V87.3977C182.167 88.1392 182.295 88.7678 182.551 89.2834C182.811 89.7947 183.171 90.1847 183.631 90.4531C184.091 90.7173 184.626 90.8494 185.235 90.8494C185.632 90.8494 185.99 90.794 186.309 90.6832C186.633 90.5682 186.912 90.3977 187.147 90.1719C187.381 89.9418 187.562 89.6562 187.69 89.3153L189.147 89.7244C188.994 90.2188 188.736 90.6534 188.374 91.0284C188.012 91.3991 187.564 91.6889 187.032 91.8977C186.499 92.1023 185.9 92.2045 185.235 92.2045ZM200.723 92.179C199.973 92.179 199.298 92.0298 198.697 91.7315C198.096 91.4332 197.615 91.0241 197.252 90.5043C196.89 89.9844 196.692 89.392 196.658 88.7273H198.192C198.252 89.3196 198.52 89.8097 198.998 90.1974C199.479 90.581 200.054 90.7727 200.723 90.7727C201.26 90.7727 201.738 90.647 202.155 90.3956C202.577 90.1442 202.907 89.799 203.146 89.3601C203.389 88.9169 203.51 88.4162 203.51 87.858C203.51 87.2869 203.385 86.7777 203.133 86.3303C202.886 85.8786 202.545 85.5227 202.11 85.2628C201.676 85.0028 201.179 84.8707 200.621 84.8665C200.221 84.8622 199.809 84.924 199.387 85.0518C198.966 85.1754 198.618 85.3352 198.346 85.5312L196.863 85.3523L197.655 78.9091H204.456V80.3153H198.985L198.525 84.1761H198.601C198.87 83.9631 199.206 83.7862 199.611 83.6456C200.016 83.505 200.438 83.4347 200.877 83.4347C201.678 83.4347 202.392 83.6264 203.018 84.0099C203.649 84.3892 204.143 84.9091 204.501 85.5696C204.863 86.2301 205.044 86.9844 205.044 87.8324C205.044 88.6676 204.857 89.4134 204.482 90.0696C204.111 90.7216 203.6 91.2372 202.948 91.6165C202.296 91.9915 201.554 92.179 200.723 92.179ZM211.675 92.179C210.925 92.179 210.249 92.0298 209.648 91.7315C209.047 91.4332 208.566 91.0241 208.204 90.5043C207.841 89.9844 207.643 89.392 207.609 88.7273H209.143C209.203 89.3196 209.471 89.8097 209.949 90.1974C210.43 90.581 211.006 90.7727 211.675 90.7727C212.211 90.7727 212.689 90.647 213.106 90.3956C213.528 90.1442 213.858 89.799 214.097 89.3601C214.34 88.9169 214.461 88.4162 214.461 87.858C214.461 87.2869 214.336 86.7777 214.084 86.3303C213.837 85.8786 213.496 85.5227 213.062 85.2628C212.627 85.0028 212.131 84.8707 211.572 84.8665C211.172 84.8622 210.76 84.924 210.339 85.0518C209.917 85.1754 209.569 85.3352 209.297 85.5312L207.814 85.3523L208.606 78.9091H215.407V80.3153H209.936L209.476 84.1761H209.552C209.821 83.9631 210.157 83.7862 210.562 83.6456C210.967 83.505 211.389 83.4347 211.828 83.4347C212.629 83.4347 213.343 83.6264 213.969 84.0099C214.6 84.3892 215.094 84.9091 215.452 85.5696C215.814 86.2301 215.996 86.9844 215.996 87.8324C215.996 88.6676 215.808 89.4134 215.433 90.0696C215.062 90.7216 214.551 91.2372 213.899 91.6165C213.247 91.9915 212.506 92.179 211.675 92.179ZM225.208 89.5455V88.8551C225.208 88.3778 225.306 87.9411 225.502 87.5447C225.702 87.1442 225.992 86.8246 226.371 86.5859C226.755 86.343 227.219 86.2216 227.765 86.2216C228.319 86.2216 228.783 86.343 229.158 86.5859C229.533 86.8246 229.817 87.1442 230.009 87.5447C230.2 87.9411 230.296 88.3778 230.296 88.8551V89.5455C230.296 90.0227 230.198 90.4616 230.002 90.8622C229.81 91.2585 229.525 91.5781 229.146 91.821C228.771 92.0597 228.31 92.179 227.765 92.179C227.211 92.179 226.744 92.0597 226.365 91.821C225.986 91.5781 225.698 91.2585 225.502 90.8622C225.306 90.4616 225.208 90.0227 225.208 89.5455ZM226.512 88.8551V89.5455C226.512 89.9418 226.606 90.2976 226.793 90.6129C226.981 90.924 227.305 91.0795 227.765 91.0795C228.212 91.0795 228.528 90.924 228.711 90.6129C228.898 90.2976 228.992 89.9418 228.992 89.5455V88.8551C228.992 88.4588 228.903 88.1051 228.724 87.794C228.545 87.4787 228.225 87.321 227.765 87.321C227.317 87.321 226.996 87.4787 226.8 87.794C226.608 88.1051 226.512 88.4588 226.512 88.8551ZM218.688 82.054V81.3636C218.688 80.8864 218.786 80.4496 218.982 80.0533C219.183 79.6527 219.472 79.3331 219.852 79.0945C220.235 78.8516 220.7 78.7301 221.245 78.7301C221.799 78.7301 222.263 78.8516 222.638 79.0945C223.013 79.3331 223.297 79.6527 223.489 80.0533C223.68 80.4496 223.776 80.8864 223.776 81.3636V82.054C223.776 82.5312 223.678 82.9702 223.482 83.3707C223.29 83.767 223.005 84.0866 222.626 84.3295C222.251 84.5682 221.79 84.6875 221.245 84.6875C220.691 84.6875 220.224 84.5682 219.845 84.3295C219.466 84.0866 219.178 83.767 218.982 83.3707C218.786 82.9702 218.688 82.5312 218.688 82.054ZM219.992 81.3636V82.054C219.992 82.4503 220.086 82.8061 220.273 83.1214C220.461 83.4325 220.785 83.5881 221.245 83.5881C221.692 83.5881 222.008 83.4325 222.191 83.1214C222.379 82.8061 222.472 82.4503 222.472 82.054V81.3636C222.472 80.9673 222.383 80.6136 222.204 80.3026C222.025 79.9872 221.705 79.8295 221.245 79.8295C220.798 79.8295 220.476 79.9872 220.28 80.3026C220.088 80.6136 219.992 80.9673 219.992 81.3636ZM219.174 92L228.174 78.9091H229.631L220.631 92H219.174ZM243.873 84.7514V86.1577H238.146V84.7514H243.873ZM260.973 92.179C260.436 92.1705 259.899 92.0682 259.362 91.8722C258.825 91.6761 258.335 91.3459 257.892 90.8814C257.449 90.4126 257.093 89.7798 256.825 88.983C256.556 88.1818 256.422 87.1761 256.422 85.9659C256.422 84.8068 256.531 83.7798 256.748 82.8849C256.965 81.9858 257.281 81.2294 257.694 80.6158C258.107 79.9979 258.606 79.5291 259.19 79.2095C259.778 78.8899 260.441 78.7301 261.178 78.7301C261.911 78.7301 262.563 78.8771 263.134 79.1712C263.709 79.4609 264.178 79.8658 264.54 80.3857C264.902 80.9055 265.137 81.5043 265.243 82.1818H263.683C263.539 81.5937 263.257 81.1058 262.84 80.718C262.422 80.3303 261.868 80.1364 261.178 80.1364C260.164 80.1364 259.365 80.5774 258.781 81.4595C258.201 82.3416 257.909 83.5795 257.905 85.1733H258.007C258.246 84.8111 258.529 84.5021 258.857 84.2464C259.19 83.9865 259.556 83.7862 259.957 83.6456C260.357 83.505 260.781 83.4347 261.229 83.4347C261.979 83.4347 262.665 83.6222 263.287 83.9972C263.909 84.3679 264.408 84.8814 264.783 85.5376C265.158 86.1896 265.345 86.9375 265.345 87.7812C265.345 88.5909 265.164 89.3324 264.802 90.0057C264.44 90.6747 263.931 91.2074 263.274 91.6037C262.622 91.9957 261.855 92.1875 260.973 92.179ZM260.973 90.7727C261.51 90.7727 261.992 90.6385 262.418 90.37C262.848 90.1016 263.187 89.7415 263.434 89.2898C263.686 88.8381 263.811 88.3352 263.811 87.7812C263.811 87.2401 263.69 86.7479 263.447 86.3047C263.208 85.8572 262.878 85.5014 262.456 85.2372C262.039 84.973 261.561 84.8409 261.024 84.8409C260.619 84.8409 260.242 84.9219 259.893 85.0838C259.544 85.2415 259.237 85.4588 258.972 85.7358C258.713 86.0128 258.508 86.3303 258.359 86.6882C258.21 87.0419 258.135 87.4148 258.135 87.8068C258.135 88.3267 258.257 88.8125 258.499 89.2642C258.747 89.7159 259.083 90.0803 259.509 90.3572C259.94 90.6342 260.428 90.7727 260.973 90.7727ZM272.129 92.179C271.166 92.179 270.346 91.9169 269.668 91.3928C268.99 90.8643 268.473 90.0994 268.115 89.098C267.757 88.0923 267.578 86.8778 267.578 85.4545C267.578 84.0398 267.757 82.8317 268.115 81.8303C268.477 80.8246 268.997 80.0575 269.674 79.5291C270.356 78.9964 271.174 78.7301 272.129 78.7301C273.083 78.7301 273.9 78.9964 274.577 79.5291C275.259 80.0575 275.779 80.8246 276.137 81.8303C276.499 82.8317 276.68 84.0398 276.68 85.4545C276.68 86.8778 276.501 88.0923 276.143 89.098C275.785 90.0994 275.267 90.8643 274.59 91.3928C273.912 91.9169 273.092 92.179 272.129 92.179ZM272.129 90.7727C273.083 90.7727 273.825 90.3125 274.353 89.392C274.882 88.4716 275.146 87.1591 275.146 85.4545C275.146 84.321 275.025 83.3558 274.782 82.5589C274.543 81.7621 274.198 81.1548 273.746 80.7372C273.299 80.3196 272.76 80.1108 272.129 80.1108C271.183 80.1108 270.444 80.5774 269.911 81.5107C269.378 82.4396 269.112 83.7543 269.112 85.4545C269.112 86.5881 269.231 87.5511 269.47 88.3438C269.708 89.1364 270.051 89.7393 270.499 90.1527C270.951 90.5661 271.494 90.7727 272.129 90.7727ZM285.782 89.5455V88.8551C285.782 88.3778 285.88 87.9411 286.076 87.5447C286.277 87.1442 286.566 86.8246 286.946 86.5859C287.329 86.343 287.794 86.2216 288.339 86.2216C288.893 86.2216 289.358 86.343 289.733 86.5859C290.108 86.8246 290.391 87.1442 290.583 87.5447C290.775 87.9411 290.87 88.3778 290.87 88.8551V89.5455C290.87 90.0227 290.772 90.4616 290.576 90.8622C290.385 91.2585 290.099 91.5781 289.72 91.821C289.345 92.0597 288.885 92.179 288.339 92.179C287.785 92.179 287.319 92.0597 286.939 91.821C286.56 91.5781 286.272 91.2585 286.076 90.8622C285.88 90.4616 285.782 90.0227 285.782 89.5455ZM287.086 88.8551V89.5455C287.086 89.9418 287.18 90.2976 287.368 90.6129C287.555 90.924 287.879 91.0795 288.339 91.0795C288.787 91.0795 289.102 90.924 289.285 90.6129C289.473 90.2976 289.566 89.9418 289.566 89.5455V88.8551C289.566 88.4588 289.477 88.1051 289.298 87.794C289.119 87.4787 288.799 87.321 288.339 87.321C287.892 87.321 287.57 87.4787 287.374 87.794C287.182 88.1051 287.086 88.4588 287.086 88.8551ZM279.262 82.054V81.3636C279.262 80.8864 279.36 80.4496 279.556 80.0533C279.757 79.6527 280.047 79.3331 280.426 79.0945C280.809 78.8516 281.274 78.7301 281.819 78.7301C282.373 78.7301 282.838 78.8516 283.213 79.0945C283.588 79.3331 283.871 79.6527 284.063 80.0533C284.255 80.4496 284.35 80.8864 284.35 81.3636V82.054C284.35 82.5312 284.252 82.9702 284.056 83.3707C283.865 83.767 283.579 84.0866 283.2 84.3295C282.825 84.5682 282.365 84.6875 281.819 84.6875C281.265 84.6875 280.799 84.5682 280.419 84.3295C280.04 84.0866 279.752 83.767 279.556 83.3707C279.36 82.9702 279.262 82.5312 279.262 82.054ZM280.566 81.3636V82.054C280.566 82.4503 280.66 82.8061 280.848 83.1214C281.035 83.4325 281.359 83.5881 281.819 83.5881C282.267 83.5881 282.582 83.4325 282.765 83.1214C282.953 82.8061 283.047 82.4503 283.047 82.054V81.3636C283.047 80.9673 282.957 80.6136 282.778 80.3026C282.599 79.9872 282.279 79.8295 281.819 79.8295C281.372 79.8295 281.05 79.9872 280.854 80.3026C280.662 80.6136 280.566 80.9673 280.566 81.3636ZM279.748 92L288.748 78.9091H290.206L281.206 92H279.748Z" fill="black"/>
<path d="M13 121.5H368" stroke="#757575"/>
<path d="M11 60H366" stroke="#757575"/>
<path d="M27.5852 31V17.9091H35.4858V19.3153H29.1705V23.7386H35.0767V25.1449H29.1705V29.5938H35.5881V31H27.5852ZM45.093 23.3807L43.7379 23.7642C43.6527 23.5384 43.527 23.3189 43.3608 23.1058C43.1989 22.8885 42.9773 22.7095 42.696 22.5689C42.4148 22.4283 42.0547 22.358 41.6158 22.358C41.0149 22.358 40.5142 22.4964 40.1136 22.7734C39.7173 23.0462 39.5192 23.3935 39.5192 23.8153C39.5192 24.1903 39.6555 24.4865 39.9283 24.7038C40.201 24.9212 40.6271 25.1023 41.2067 25.2472L42.6641 25.6051C43.5419 25.8182 44.196 26.1442 44.6264 26.5831C45.0568 27.0178 45.272 27.5781 45.272 28.2642C45.272 28.8267 45.1101 29.3295 44.7862 29.7727C44.4666 30.2159 44.0192 30.5653 43.4439 30.821C42.8686 31.0767 42.1996 31.2045 41.4368 31.2045C40.4354 31.2045 39.6065 30.9872 38.9503 30.5526C38.294 30.1179 37.8786 29.483 37.7038 28.6477L39.1357 28.2898C39.272 28.8182 39.5298 29.2145 39.9091 29.4787C40.2926 29.7429 40.7933 29.875 41.4112 29.875C42.1143 29.875 42.6726 29.7259 43.0859 29.4276C43.5036 29.125 43.7124 28.7628 43.7124 28.3409C43.7124 28 43.593 27.7145 43.3544 27.4844C43.1158 27.25 42.7493 27.0753 42.255 26.9602L40.6186 26.5767C39.7195 26.3636 39.0589 26.0334 38.6371 25.5859C38.2195 25.1342 38.0107 24.5696 38.0107 23.892C38.0107 23.3381 38.1662 22.848 38.4773 22.4219C38.7926 21.9957 39.2209 21.6612 39.7621 21.4183C40.3075 21.1754 40.9254 21.054 41.6158 21.054C42.5874 21.054 43.3501 21.267 43.9041 21.6932C44.4624 22.1193 44.8587 22.6818 45.093 23.3807ZM51.8127 21.1818V22.4602H46.7246V21.1818H51.8127ZM48.2076 18.8295H49.7161V28.1875C49.7161 28.6136 49.7779 28.9332 49.9015 29.1463C50.0293 29.3551 50.1912 29.4957 50.3873 29.5682C50.5875 29.6364 50.7985 29.6705 51.0201 29.6705C51.1863 29.6705 51.3226 29.6619 51.4292 29.6449C51.5357 29.6236 51.6209 29.6065 51.6848 29.5938L51.9917 30.9489C51.8894 30.9872 51.7466 31.0256 51.5634 31.0639C51.3801 31.1065 51.1479 31.1278 50.8667 31.1278C50.4405 31.1278 50.0229 31.0362 49.6138 30.853C49.209 30.6697 48.8723 30.3906 48.6039 30.0156C48.3397 29.6406 48.2076 29.1676 48.2076 28.5966V18.8295ZM54.0819 31V21.1818H55.5904V31H54.0819ZM54.8489 19.5455C54.5549 19.5455 54.3013 19.4453 54.0882 19.245C53.8794 19.0447 53.775 18.804 53.775 18.5227C53.775 18.2415 53.8794 18.0007 54.0882 17.8004C54.3013 17.6001 54.5549 17.5 54.8489 17.5C55.1429 17.5 55.3944 17.6001 55.6032 17.8004C55.8162 18.0007 55.9228 18.2415 55.9228 18.5227C55.9228 18.804 55.8162 19.0447 55.6032 19.245C55.3944 19.4453 55.1429 19.5455 54.8489 19.5455ZM58.3533 31V21.1818H59.8107V22.7159H59.9386C60.1431 22.1918 60.4734 21.7848 60.9293 21.495C61.3853 21.201 61.9329 21.054 62.5721 21.054C63.2198 21.054 63.7589 21.201 64.1893 21.495C64.6239 21.7848 64.9627 22.1918 65.2056 22.7159H65.3079C65.5593 22.2088 65.9364 21.8061 66.4393 21.5078C66.9421 21.2053 67.5451 21.054 68.2482 21.054C69.1261 21.054 69.8441 21.3288 70.4023 21.8786C70.9606 22.424 71.2397 23.2741 71.2397 24.429V31H69.7312V24.429C69.7312 23.7045 69.533 23.1868 69.1367 22.8757C68.7404 22.5646 68.2738 22.4091 67.7369 22.4091C67.0465 22.4091 66.5117 22.6179 66.1325 23.0355C65.7532 23.4489 65.5636 23.973 65.5636 24.608V31H64.0295V24.2756C64.0295 23.7173 63.8484 23.2678 63.4862 22.9268C63.1239 22.5817 62.6573 22.4091 62.0863 22.4091C61.6942 22.4091 61.3278 22.5135 60.9869 22.7223C60.6502 22.9311 60.3775 23.2209 60.1687 23.5916C59.9641 23.9581 59.8619 24.3821 59.8619 24.8636V31H58.3533ZM76.8871 31.2301C76.2649 31.2301 75.7003 31.1129 75.1932 30.8786C74.6861 30.6399 74.2834 30.2969 73.9851 29.8494C73.6868 29.3977 73.5376 28.8523 73.5376 28.2131C73.5376 27.6506 73.6484 27.1946 73.87 26.8452C74.0916 26.4915 74.3878 26.2145 74.7585 26.0142C75.1293 25.8139 75.5384 25.6648 75.9858 25.5668C76.4375 25.4645 76.8913 25.3835 77.3473 25.3239C77.9439 25.2472 78.4276 25.1896 78.7983 25.1513C79.1733 25.1087 79.446 25.0384 79.6165 24.9403C79.7912 24.8423 79.8786 24.6719 79.8786 24.429V24.3778C79.8786 23.7472 79.706 23.2571 79.3608 22.9077C79.0199 22.5582 78.5021 22.3835 77.8075 22.3835C77.0874 22.3835 76.5227 22.5412 76.1136 22.8565C75.7045 23.1719 75.4169 23.5085 75.2507 23.8665L73.8189 23.3551C74.0746 22.7585 74.4155 22.294 74.8416 21.9616C75.272 21.625 75.7408 21.3906 76.2479 21.2585C76.7592 21.1222 77.2621 21.054 77.7564 21.054C78.0717 21.054 78.4339 21.0923 78.843 21.169C79.2564 21.2415 79.6548 21.3928 80.0384 21.6229C80.4261 21.853 80.7479 22.2003 81.0036 22.6648C81.2592 23.1293 81.3871 23.7514 81.3871 24.5312V31H79.8786V29.6705H79.8018C79.6996 29.8835 79.5291 30.1115 79.2905 30.3544C79.0518 30.5973 78.7344 30.804 78.3381 30.9744C77.9418 31.1449 77.4581 31.2301 76.8871 31.2301ZM77.1172 29.875C77.7138 29.875 78.2166 29.7578 78.6257 29.5234C79.0391 29.2891 79.3501 28.9865 79.5589 28.6158C79.772 28.245 79.8786 27.8551 79.8786 27.446V26.0653C79.8146 26.142 79.674 26.2124 79.4567 26.2763C79.2436 26.3359 78.9964 26.3892 78.7152 26.4361C78.4382 26.4787 78.1676 26.517 77.9034 26.5511C77.6435 26.581 77.4325 26.6065 77.2706 26.6278C76.8786 26.679 76.5121 26.7621 76.1712 26.8771C75.8345 26.9879 75.5618 27.1562 75.353 27.3821C75.1484 27.6037 75.0462 27.9062 75.0462 28.2898C75.0462 28.8139 75.2401 29.2102 75.6278 29.4787C76.0199 29.7429 76.5163 29.875 77.1172 29.875ZM88.4103 21.1818V22.4602H83.3223V21.1818H88.4103ZM84.8052 18.8295H86.3137V28.1875C86.3137 28.6136 86.3755 28.9332 86.4991 29.1463C86.627 29.3551 86.7889 29.4957 86.9849 29.5682C87.1852 29.6364 87.3961 29.6705 87.6177 29.6705C87.7839 29.6705 87.9203 29.6619 88.0268 29.6449C88.1333 29.6236 88.2186 29.6065 88.2825 29.5938L88.5893 30.9489C88.487 30.9872 88.3443 31.0256 88.161 31.0639C87.9778 31.1065 87.7456 31.1278 87.4643 31.1278C87.0382 31.1278 86.6206 31.0362 86.2115 30.853C85.8066 30.6697 85.47 30.3906 85.2015 30.0156C84.9373 29.6406 84.8052 29.1676 84.8052 28.5966V18.8295ZM94.6905 31.2045C93.7445 31.2045 92.9284 30.9957 92.2424 30.5781C91.5605 30.1562 91.0343 29.5682 90.6635 28.8139C90.2971 28.0554 90.1138 27.1733 90.1138 26.1676C90.1138 25.1619 90.2971 24.2756 90.6635 23.5085C91.0343 22.7372 91.5499 22.1364 92.2104 21.706C92.8752 21.2713 93.6507 21.054 94.5371 21.054C95.0485 21.054 95.5534 21.1392 96.052 21.3097C96.5506 21.4801 97.0044 21.7571 97.4135 22.1406C97.8226 22.5199 98.1486 23.0227 98.3915 23.6491C98.6344 24.2756 98.7559 25.0469 98.7559 25.9631V26.6023H91.1877V25.2983H97.2218C97.2218 24.7443 97.111 24.25 96.8894 23.8153C96.6721 23.3807 96.361 23.0376 95.9561 22.7862C95.5556 22.5348 95.0826 22.4091 94.5371 22.4091C93.9363 22.4091 93.4164 22.5582 92.9775 22.8565C92.5428 23.1506 92.2083 23.5341 91.9739 24.0071C91.7395 24.4801 91.6223 24.9872 91.6223 25.5284V26.3977C91.6223 27.1392 91.7502 27.7678 92.0059 28.2834C92.2658 28.7947 92.6259 29.1847 93.0861 29.4531C93.5463 29.7173 94.0811 29.8494 94.6905 29.8494C95.0868 29.8494 95.4448 29.794 95.7644 29.6832C96.0882 29.5682 96.3674 29.3977 96.6017 29.1719C96.8361 28.9418 97.0172 28.6562 97.1451 28.3153L98.6025 28.7244C98.449 29.2188 98.1912 29.6534 97.829 30.0284C97.4668 30.3991 97.0194 30.6889 96.4867 30.8977C95.954 31.1023 95.3553 31.2045 94.6905 31.2045ZM104.758 31.2045C103.94 31.2045 103.218 30.9979 102.591 30.5845C101.965 30.1669 101.475 29.5788 101.121 28.8203C100.767 28.0575 100.59 27.1562 100.59 26.1165C100.59 25.0852 100.767 24.1903 101.121 23.4318C101.475 22.6733 101.967 22.0874 102.597 21.674C103.228 21.2607 103.957 21.054 104.784 21.054C105.423 21.054 105.928 21.1605 106.298 21.3736C106.673 21.5824 106.959 21.821 107.155 22.0895C107.355 22.3537 107.511 22.571 107.622 22.7415H107.749V17.9091H109.258V31H107.801V29.4915H107.622C107.511 29.6705 107.353 29.8963 107.149 30.169C106.944 30.4375 106.652 30.6783 106.273 30.8913C105.894 31.1001 105.389 31.2045 104.758 31.2045ZM104.963 29.8494C105.568 29.8494 106.079 29.6918 106.497 29.3764C106.914 29.0568 107.232 28.6158 107.449 28.0533C107.666 27.4865 107.775 26.8324 107.775 26.0909C107.775 25.358 107.669 24.7166 107.455 24.1669C107.242 23.6129 106.927 23.1825 106.509 22.8757C106.092 22.5646 105.576 22.4091 104.963 22.4091C104.323 22.4091 103.791 22.5732 103.365 22.9013C102.943 23.2251 102.625 23.6662 102.412 24.2244C102.203 24.7784 102.099 25.4006 102.099 26.0909C102.099 26.7898 102.205 27.4247 102.419 27.9957C102.636 28.5625 102.955 29.0142 103.377 29.3509C103.803 29.6832 104.332 29.8494 104.963 29.8494ZM128.031 22H126.446C126.352 21.544 126.188 21.1435 125.954 20.7983C125.724 20.4531 125.443 20.1634 125.11 19.929C124.782 19.6903 124.418 19.5114 124.017 19.392C123.617 19.2727 123.199 19.2131 122.764 19.2131C121.972 19.2131 121.254 19.4134 120.61 19.8139C119.971 20.2145 119.462 20.8047 119.083 21.5845C118.708 22.3643 118.52 23.321 118.52 24.4545C118.52 25.5881 118.708 26.5447 119.083 27.3246C119.462 28.1044 119.971 28.6946 120.61 29.0952C121.254 29.4957 121.972 29.696 122.764 29.696C123.199 29.696 123.617 29.6364 124.017 29.517C124.418 29.3977 124.782 29.2209 125.11 28.9865C125.443 28.7479 125.724 28.456 125.954 28.1108C126.188 27.7614 126.352 27.3608 126.446 26.9091H128.031C127.912 27.5781 127.695 28.1768 127.379 28.7053C127.064 29.2337 126.672 29.6832 126.203 30.054C125.735 30.4205 125.208 30.6996 124.624 30.8913C124.045 31.0831 123.425 31.179 122.764 31.179C121.648 31.179 120.655 30.9062 119.786 30.3608C118.916 29.8153 118.232 29.0398 117.734 28.0341C117.235 27.0284 116.986 25.8352 116.986 24.4545C116.986 23.0739 117.235 21.8807 117.734 20.875C118.232 19.8693 118.916 19.0938 119.786 18.5483C120.655 18.0028 121.648 17.7301 122.764 17.7301C123.425 17.7301 124.045 17.826 124.624 18.0178C125.208 18.2095 125.735 18.4908 126.203 18.8615C126.672 19.228 127.064 19.6754 127.379 20.2038C127.695 20.728 127.912 21.3267 128.031 22ZM131.488 29.3253C131.173 29.3253 130.902 29.2124 130.676 28.9865C130.45 28.7607 130.337 28.4901 130.337 28.1747C130.337 27.8594 130.45 27.5888 130.676 27.3629C130.902 27.1371 131.173 27.0241 131.488 27.0241C131.803 27.0241 132.074 27.1371 132.3 27.3629C132.526 27.5888 132.638 27.8594 132.638 28.1747C132.638 28.3835 132.585 28.5753 132.479 28.75C132.376 28.9247 132.238 29.0653 132.063 29.1719C131.893 29.2741 131.701 29.3253 131.488 29.3253ZM131.488 22.7031C131.173 22.7031 130.902 22.5902 130.676 22.3643C130.45 22.1385 130.337 21.8679 130.337 21.5526C130.337 21.2372 130.45 20.9666 130.676 20.7408C130.902 20.5149 131.173 20.402 131.488 20.402C131.803 20.402 132.074 20.5149 132.3 20.7408C132.526 20.9666 132.638 21.2372 132.638 21.5526C132.638 21.7614 132.585 21.9531 132.479 22.1278C132.376 22.3026 132.238 22.4432 132.063 22.5497C131.893 22.652 131.701 22.7031 131.488 22.7031ZM145.931 17.9091V31H144.397L137.263 20.7216H137.135V31H135.55V17.9091H137.084L144.243 28.2131H144.371V17.9091H145.931ZM154.165 31V17.9091H158.589C159.611 17.9091 160.451 18.0838 161.107 18.4332C161.763 18.7784 162.249 19.2536 162.564 19.8587C162.88 20.4638 163.037 21.152 163.037 21.9233C163.037 22.6946 162.88 23.3786 162.564 23.9751C162.249 24.5717 161.765 25.0405 161.113 25.3814C160.461 25.718 159.628 25.8864 158.614 25.8864H155.035V24.4545H158.563C159.262 24.4545 159.824 24.3523 160.251 24.1477C160.681 23.9432 160.992 23.6534 161.184 23.2784C161.38 22.8991 161.478 22.4474 161.478 21.9233C161.478 21.3991 161.38 20.9411 161.184 20.549C160.988 20.157 160.675 19.8544 160.244 19.6413C159.814 19.424 159.245 19.3153 158.537 19.3153H155.751V31H154.165ZM160.327 25.1193L163.549 31H161.708L158.537 25.1193H160.327ZM168.364 31.2301C167.741 31.2301 167.177 31.1129 166.67 30.8786C166.163 30.6399 165.76 30.2969 165.462 29.8494C165.163 29.3977 165.014 28.8523 165.014 28.2131C165.014 27.6506 165.125 27.1946 165.347 26.8452C165.568 26.4915 165.864 26.2145 166.235 26.0142C166.606 25.8139 167.015 25.6648 167.462 25.5668C167.914 25.4645 168.368 25.3835 168.824 25.3239C169.42 25.2472 169.904 25.1896 170.275 25.1513C170.65 25.1087 170.923 25.0384 171.093 24.9403C171.268 24.8423 171.355 24.6719 171.355 24.429V24.3778C171.355 23.7472 171.183 23.2571 170.837 22.9077C170.496 22.5582 169.979 22.3835 169.284 22.3835C168.564 22.3835 167.999 22.5412 167.59 22.8565C167.181 23.1719 166.893 23.5085 166.727 23.8665L165.295 23.3551C165.551 22.7585 165.892 22.294 166.318 21.9616C166.749 21.625 167.217 21.3906 167.724 21.2585C168.236 21.1222 168.739 21.054 169.233 21.054C169.548 21.054 169.911 21.0923 170.32 21.169C170.733 21.2415 171.131 21.3928 171.515 21.6229C171.903 21.853 172.224 22.2003 172.48 22.6648C172.736 23.1293 172.864 23.7514 172.864 24.5312V31H171.355V29.6705H171.278C171.176 29.8835 171.006 30.1115 170.767 30.3544C170.528 30.5973 170.211 30.804 169.815 30.9744C169.418 31.1449 168.935 31.2301 168.364 31.2301ZM168.594 29.875C169.19 29.875 169.693 29.7578 170.102 29.5234C170.516 29.2891 170.827 28.9865 171.036 28.6158C171.249 28.245 171.355 27.8551 171.355 27.446V26.0653C171.291 26.142 171.151 26.2124 170.933 26.2763C170.72 26.3359 170.473 26.3892 170.192 26.4361C169.915 26.4787 169.644 26.517 169.38 26.5511C169.12 26.581 168.909 26.6065 168.747 26.6278C168.355 26.679 167.989 26.7621 167.648 26.8771C167.311 26.9879 167.038 27.1562 166.83 27.3821C166.625 27.6037 166.523 27.9062 166.523 28.2898C166.523 28.8139 166.717 29.2102 167.104 29.4787C167.496 29.7429 167.993 29.875 168.594 29.875ZM179.887 21.1818V22.4602H174.799V21.1818H179.887ZM176.282 18.8295H177.79V28.1875C177.79 28.6136 177.852 28.9332 177.976 29.1463C178.104 29.3551 178.265 29.4957 178.461 29.5682C178.662 29.6364 178.873 29.6705 179.094 29.6705C179.26 29.6705 179.397 29.6619 179.503 29.6449C179.61 29.6236 179.695 29.6065 179.759 29.5938L180.066 30.9489C179.964 30.9872 179.821 31.0256 179.638 31.0639C179.454 31.1065 179.222 31.1278 178.941 31.1278C178.515 31.1278 178.097 31.0362 177.688 30.853C177.283 30.6697 176.947 30.3906 176.678 30.0156C176.414 29.6406 176.282 29.1676 176.282 28.5966V18.8295ZM182.156 31V21.1818H183.665V31H182.156ZM182.923 19.5455C182.629 19.5455 182.376 19.4453 182.162 19.245C181.954 19.0447 181.849 18.804 181.849 18.5227C181.849 18.2415 181.954 18.0007 182.162 17.8004C182.376 17.6001 182.629 17.5 182.923 17.5C183.217 17.5 183.469 17.6001 183.677 17.8004C183.89 18.0007 183.997 18.2415 183.997 18.5227C183.997 18.804 183.89 19.0447 183.677 19.245C183.469 19.4453 183.217 19.5455 182.923 19.5455ZM190.416 31.2045C189.53 31.2045 188.752 30.9936 188.083 30.5717C187.418 30.1499 186.898 29.5597 186.523 28.8011C186.153 28.0426 185.967 27.1562 185.967 26.142C185.967 25.1193 186.153 24.2266 186.523 23.4638C186.898 22.701 187.418 22.1087 188.083 21.6868C188.752 21.2649 189.53 21.054 190.416 21.054C191.303 21.054 192.078 21.2649 192.743 21.6868C193.412 22.1087 193.932 22.701 194.303 23.4638C194.678 24.2266 194.865 25.1193 194.865 26.142C194.865 27.1562 194.678 28.0426 194.303 28.8011C193.932 29.5597 193.412 30.1499 192.743 30.5717C192.078 30.9936 191.303 31.2045 190.416 31.2045ZM190.416 29.8494C191.089 29.8494 191.643 29.6768 192.078 29.3317C192.513 28.9865 192.835 28.5327 193.043 27.9702C193.252 27.4077 193.357 26.7983 193.357 26.142C193.357 25.4858 193.252 24.8743 193.043 24.3075C192.835 23.7408 192.513 23.2827 192.078 22.9332C191.643 22.5838 191.089 22.4091 190.416 22.4091C189.743 22.4091 189.189 22.5838 188.754 22.9332C188.32 23.2827 187.998 23.7408 187.789 24.3075C187.58 24.8743 187.476 25.4858 187.476 26.142C187.476 26.7983 187.58 27.4077 187.789 27.9702C187.998 28.5327 188.32 28.9865 188.754 29.3317C189.189 29.6768 189.743 29.8494 190.416 29.8494ZM212.33 31V29.8494L216.651 25.1193C217.158 24.5653 217.575 24.0838 217.904 23.6747C218.232 23.2614 218.475 22.8736 218.632 22.5114C218.794 22.1449 218.875 21.7614 218.875 21.3608C218.875 20.9006 218.764 20.5021 218.543 20.1655C218.325 19.8288 218.027 19.5689 217.648 19.3857C217.269 19.2024 216.843 19.1108 216.369 19.1108C215.867 19.1108 215.428 19.2152 215.053 19.424C214.682 19.6286 214.394 19.9162 214.19 20.2869C213.99 20.6577 213.889 21.0923 213.889 21.5909H212.381C212.381 20.8239 212.558 20.1506 212.911 19.571C213.265 18.9915 213.747 18.5398 214.356 18.2159C214.97 17.892 215.658 17.7301 216.421 17.7301C217.188 17.7301 217.867 17.892 218.46 18.2159C219.052 18.5398 219.517 18.9766 219.853 19.5263C220.19 20.076 220.358 20.6875 220.358 21.3608C220.358 21.8423 220.271 22.3132 220.096 22.7734C219.926 23.2294 219.627 23.7386 219.201 24.3011C218.779 24.8594 218.193 25.5412 217.443 26.3466L214.503 29.4915V29.5938H220.588V31H212.33ZM227.319 31.179C226.569 31.179 225.894 31.0298 225.293 30.7315C224.692 30.4332 224.21 30.0241 223.848 29.5043C223.486 28.9844 223.288 28.392 223.254 27.7273H224.788C224.847 28.3196 225.116 28.8097 225.593 29.1974C226.075 29.581 226.65 29.7727 227.319 29.7727C227.856 29.7727 228.333 29.647 228.751 29.3956C229.173 29.1442 229.503 28.799 229.742 28.3601C229.985 27.9169 230.106 27.4162 230.106 26.858C230.106 26.2869 229.98 25.7777 229.729 25.3303C229.482 24.8786 229.141 24.5227 228.706 24.2628C228.271 24.0028 227.775 23.8707 227.217 23.8665C226.816 23.8622 226.405 23.924 225.983 24.0518C225.561 24.1754 225.214 24.3352 224.941 24.5312L223.458 24.3523L224.251 17.9091H231.052V19.3153H225.58L225.12 23.1761H225.197C225.465 22.9631 225.802 22.7862 226.207 22.6456C226.612 22.505 227.034 22.4347 227.472 22.4347C228.274 22.4347 228.987 22.6264 229.614 23.0099C230.244 23.3892 230.739 23.9091 231.097 24.5696C231.459 25.2301 231.64 25.9844 231.64 26.8324C231.64 27.6676 231.453 28.4134 231.078 29.0696C230.707 29.7216 230.195 30.2372 229.544 30.6165C228.892 30.9915 228.15 31.179 227.319 31.179ZM235.304 29.3253C234.989 29.3253 234.718 29.2124 234.493 28.9865C234.267 28.7607 234.154 28.4901 234.154 28.1747C234.154 27.8594 234.267 27.5888 234.493 27.3629C234.718 27.1371 234.989 27.0241 235.304 27.0241C235.62 27.0241 235.89 27.1371 236.116 27.3629C236.342 27.5888 236.455 27.8594 236.455 28.1747C236.455 28.3835 236.402 28.5753 236.295 28.75C236.193 28.9247 236.054 29.0653 235.88 29.1719C235.709 29.2741 235.517 29.3253 235.304 29.3253ZM235.304 22.7031C234.989 22.7031 234.718 22.5902 234.493 22.3643C234.267 22.1385 234.154 21.8679 234.154 21.5526C234.154 21.2372 234.267 20.9666 234.493 20.7408C234.718 20.5149 234.989 20.402 235.304 20.402C235.62 20.402 235.89 20.5149 236.116 20.7408C236.342 20.9666 236.455 21.2372 236.455 21.5526C236.455 21.7614 236.402 21.9531 236.295 22.1278C236.193 22.3026 236.054 22.4432 235.88 22.5497C235.709 22.652 235.517 22.7031 235.304 22.7031ZM243.739 17.9091V31H242.153V19.571H242.077L238.881 21.6932V20.0824L242.153 17.9091H243.739Z" fill="black"/>
<path d="M278 23C278 15.268 284.268 9 292 9H329C336.732 9 343 15.268 343 23C343 30.732 336.732 37 329 37H292C284.268 37 278 30.732 278 23Z" fill="#2F6F4E"/>
<path d="M300.091 21.6016C300.026 21.3769 299.935 21.1784 299.819 21.006C299.702 20.8306 299.558 20.6829 299.389 20.5629C299.223 20.4397 299.032 20.3459 298.817 20.2812C298.604 20.2166 298.369 20.1843 298.11 20.1843C297.627 20.1843 297.203 20.3043 296.836 20.5444C296.473 20.7844 296.19 21.1338 295.987 21.5923C295.784 22.0478 295.682 22.6049 295.682 23.2635C295.682 23.9221 295.782 24.4822 295.982 24.9439C296.182 25.4055 296.465 25.7579 296.832 26.0011C297.198 26.2411 297.63 26.3612 298.129 26.3612C298.581 26.3612 298.968 26.2811 299.288 26.1211C299.611 25.958 299.857 25.7287 300.026 25.4332C300.199 25.1378 300.285 24.7885 300.285 24.3853L300.691 24.4453H298.254V22.9403H302.21V24.1314C302.21 24.9624 302.034 25.6764 301.684 26.2734C301.333 26.8674 300.85 27.326 300.234 27.6491C299.618 27.9692 298.914 28.1293 298.12 28.1293C297.233 28.1293 296.455 27.9338 295.784 27.543C295.113 27.149 294.59 26.5904 294.214 25.8672C293.842 25.1409 293.656 24.2791 293.656 23.282C293.656 22.5156 293.766 21.8324 293.988 21.2322C294.213 20.629 294.527 20.1181 294.93 19.6996C295.333 19.281 295.802 18.9625 296.338 18.744C296.873 18.5254 297.453 18.4162 298.078 18.4162C298.614 18.4162 299.112 18.4947 299.574 18.6516C300.036 18.8055 300.445 19.024 300.802 19.3072C301.162 19.5903 301.456 19.9273 301.684 20.3182C301.911 20.706 302.058 21.1338 302.122 21.6016H300.091ZM306.878 28.1385C306.161 28.1385 305.541 27.9862 305.018 27.6815C304.498 27.3737 304.096 26.9459 303.813 26.3981C303.53 25.8472 303.388 25.2086 303.388 24.4822C303.388 23.7498 303.53 23.1096 303.813 22.5618C304.096 22.0109 304.498 21.5831 305.018 21.2784C305.541 20.9706 306.161 20.8168 306.878 20.8168C307.595 20.8168 308.214 20.9706 308.734 21.2784C309.257 21.5831 309.66 22.0109 309.944 22.5618C310.227 23.1096 310.368 23.7498 310.368 24.4822C310.368 25.2086 310.227 25.8472 309.944 26.3981C309.66 26.9459 309.257 27.3737 308.734 27.6815C308.214 27.9862 307.595 28.1385 306.878 28.1385ZM306.888 26.6151C307.214 26.6151 307.486 26.5227 307.705 26.3381C307.923 26.1503 308.088 25.8949 308.199 25.5717C308.312 25.2486 308.369 24.8808 308.369 24.4684C308.369 24.056 308.312 23.6882 308.199 23.3651C308.088 23.0419 307.923 22.7865 307.705 22.5987C307.486 22.411 307.214 22.3171 306.888 22.3171C306.558 22.3171 306.281 22.411 306.057 22.5987C305.835 22.7865 305.667 23.0419 305.553 23.3651C305.443 23.6882 305.387 24.056 305.387 24.4684C305.387 24.8808 305.443 25.2486 305.553 25.5717C305.667 25.8949 305.835 26.1503 306.057 26.3381C306.281 26.5227 306.558 26.6151 306.888 26.6151ZM314.851 28.1385C314.134 28.1385 313.514 27.9862 312.991 27.6815C312.47 27.3737 312.069 26.9459 311.786 26.3981C311.502 25.8472 311.361 25.2086 311.361 24.4822C311.361 23.7498 311.502 23.1096 311.786 22.5618C312.069 22.0109 312.47 21.5831 312.991 21.2784C313.514 20.9706 314.134 20.8168 314.851 20.8168C315.568 20.8168 316.187 20.9706 316.707 21.2784C317.23 21.5831 317.633 22.0109 317.916 22.5618C318.199 23.1096 318.341 23.7498 318.341 24.4822C318.341 25.2086 318.199 25.8472 317.916 26.3981C317.633 26.9459 317.23 27.3737 316.707 27.6815C316.187 27.9862 315.568 28.1385 314.851 28.1385ZM314.86 26.6151C315.186 26.6151 315.459 26.5227 315.677 26.3381C315.896 26.1503 316.06 25.8949 316.171 25.5717C316.285 25.2486 316.342 24.8808 316.342 24.4684C316.342 24.056 316.285 23.6882 316.171 23.3651C316.06 23.0419 315.896 22.7865 315.677 22.5987C315.459 22.411 315.186 22.3171 314.86 22.3171C314.531 22.3171 314.254 22.411 314.029 22.5987C313.808 22.7865 313.64 23.0419 313.526 23.3651C313.415 23.6882 313.36 24.056 313.36 24.4684C313.36 24.8808 313.415 25.2486 313.526 25.5717C313.64 25.8949 313.808 26.1503 314.029 26.3381C314.254 26.5227 314.531 26.6151 314.86 26.6151ZM322.233 28.1154C321.694 28.1154 321.206 27.9769 320.769 27.6999C320.335 27.4199 319.991 27.009 319.735 26.4673C319.483 25.9226 319.357 25.2547 319.357 24.4638C319.357 23.6513 319.487 22.9757 319.749 22.4371C320.011 21.8955 320.358 21.4908 320.792 21.223C321.229 20.9522 321.708 20.8168 322.228 20.8168C322.625 20.8168 322.956 20.8845 323.221 21.0199C323.488 21.1522 323.704 21.3184 323.867 21.5185C324.033 21.7154 324.159 21.9093 324.245 22.1001H324.305V18.5455H326.267V28H324.329V26.8643H324.245C324.153 27.0613 324.022 27.2567 323.853 27.4506C323.687 27.6415 323.47 27.8 323.202 27.9261C322.937 28.0523 322.614 28.1154 322.233 28.1154ZM322.856 26.5504C323.173 26.5504 323.441 26.4643 323.659 26.2919C323.881 26.1165 324.05 25.8718 324.167 25.5579C324.287 25.244 324.347 24.8762 324.347 24.4545C324.347 24.0329 324.289 23.6667 324.172 23.3558C324.055 23.045 323.885 22.8049 323.664 22.6357C323.442 22.4664 323.173 22.3817 322.856 22.3817C322.533 22.3817 322.26 22.4695 322.039 22.6449C321.817 22.8203 321.649 23.0634 321.536 23.3743C321.422 23.6851 321.365 24.0452 321.365 24.4545C321.365 24.867 321.422 25.2317 321.536 25.5487C321.653 25.8626 321.82 26.1088 322.039 26.2873C322.26 26.4627 322.533 26.5504 322.856 26.5504Z" fill="white"/>
<path d="M69 247C69 238.163 76.1634 231 85 231H311C319.837 231 327 238.163 327 247V255C327 263.837 319.837 271 311 271H85C76.1635 271 69 263.837 69 255V247Z" fill="#005529"/>
<path d="M152.662 246.435H149.474C149.384 245.912 149.216 245.449 148.972 245.045C148.727 244.636 148.423 244.29 148.06 244.006C147.696 243.722 147.281 243.509 146.815 243.366C146.355 243.219 145.858 243.145 145.324 243.145C144.375 243.145 143.534 243.384 142.801 243.861C142.068 244.332 141.494 245.026 141.08 245.94C140.665 246.849 140.457 247.96 140.457 249.273C140.457 250.608 140.665 251.733 141.08 252.648C141.5 253.557 142.074 254.244 142.801 254.71C143.534 255.17 144.372 255.401 145.315 255.401C145.838 255.401 146.327 255.332 146.781 255.196C147.241 255.054 147.653 254.847 148.017 254.574C148.386 254.301 148.696 253.966 148.946 253.568C149.202 253.17 149.378 252.716 149.474 252.205L152.662 252.222C152.543 253.051 152.284 253.83 151.886 254.557C151.494 255.284 150.98 255.926 150.344 256.483C149.707 257.034 148.963 257.466 148.111 257.778C147.259 258.085 146.313 258.239 145.273 258.239C143.739 258.239 142.369 257.884 141.165 257.173C139.96 256.463 139.011 255.438 138.318 254.097C137.625 252.756 137.278 251.148 137.278 249.273C137.278 247.392 137.628 245.784 138.327 244.449C139.026 243.108 139.977 242.082 141.182 241.372C142.386 240.662 143.75 240.307 145.273 240.307C146.244 240.307 147.148 240.443 147.983 240.716C148.818 240.989 149.563 241.389 150.216 241.918C150.869 242.44 151.406 243.082 151.827 243.844C152.253 244.599 152.531 245.463 152.662 246.435ZM161.131 258.256C159.853 258.256 158.745 257.974 157.808 257.412C156.87 256.849 156.143 256.062 155.626 255.051C155.114 254.04 154.859 252.858 154.859 251.506C154.859 250.153 155.114 248.969 155.626 247.952C156.143 246.935 156.87 246.145 157.808 245.582C158.745 245.02 159.853 244.739 161.131 244.739C162.41 244.739 163.518 245.02 164.455 245.582C165.393 246.145 166.117 246.935 166.629 247.952C167.146 248.969 167.404 250.153 167.404 251.506C167.404 252.858 167.146 254.04 166.629 255.051C166.117 256.062 165.393 256.849 164.455 257.412C163.518 257.974 162.41 258.256 161.131 258.256ZM161.148 255.784C161.842 255.784 162.421 255.594 162.887 255.213C163.353 254.827 163.7 254.31 163.927 253.662C164.16 253.014 164.276 252.293 164.276 251.497C164.276 250.696 164.16 249.972 163.927 249.324C163.7 248.67 163.353 248.151 162.887 247.764C162.421 247.378 161.842 247.185 161.148 247.185C160.438 247.185 159.847 247.378 159.376 247.764C158.91 248.151 158.56 248.67 158.327 249.324C158.1 249.972 157.987 250.696 157.987 251.497C157.987 252.293 158.1 253.014 158.327 253.662C158.56 254.31 158.91 254.827 159.376 255.213C159.847 255.594 160.438 255.784 161.148 255.784ZM173.108 250.33V258H170.023V244.909H172.972V247.134H173.125C173.426 246.401 173.906 245.818 174.565 245.386C175.23 244.955 176.051 244.739 177.028 244.739C177.932 244.739 178.719 244.932 179.389 245.318C180.065 245.705 180.588 246.264 180.957 246.997C181.332 247.73 181.517 248.619 181.511 249.665V258H178.426V250.142C178.426 249.267 178.199 248.582 177.744 248.088C177.295 247.594 176.673 247.347 175.878 247.347C175.338 247.347 174.858 247.466 174.438 247.705C174.023 247.937 173.696 248.276 173.457 248.719C173.224 249.162 173.108 249.699 173.108 250.33ZM191.185 244.909V247.295H183.659V244.909H191.185ZM185.517 241.773H188.602V254.062C188.602 254.477 188.665 254.795 188.79 255.017C188.92 255.233 189.091 255.381 189.301 255.46C189.511 255.54 189.744 255.58 190 255.58C190.193 255.58 190.369 255.565 190.528 255.537C190.693 255.509 190.818 255.483 190.903 255.46L191.423 257.872C191.259 257.929 191.023 257.991 190.716 258.06C190.415 258.128 190.045 258.168 189.608 258.179C188.835 258.202 188.139 258.085 187.52 257.83C186.901 257.568 186.409 257.165 186.045 256.619C185.688 256.074 185.511 255.392 185.517 254.574V241.773ZM193.765 258V244.909H196.85V258H193.765ZM195.316 243.051C194.827 243.051 194.407 242.889 194.055 242.565C193.702 242.236 193.526 241.841 193.526 241.381C193.526 240.915 193.702 240.52 194.055 240.196C194.407 239.866 194.827 239.702 195.316 239.702C195.81 239.702 196.231 239.866 196.577 240.196C196.93 240.52 197.106 240.915 197.106 241.381C197.106 241.841 196.93 242.236 196.577 242.565C196.231 242.889 195.81 243.051 195.316 243.051ZM203.108 250.33V258H200.023V244.909H202.972V247.134H203.125C203.426 246.401 203.906 245.818 204.565 245.386C205.23 244.955 206.051 244.739 207.028 244.739C207.932 244.739 208.719 244.932 209.389 245.318C210.065 245.705 210.588 246.264 210.957 246.997C211.332 247.73 211.517 248.619 211.511 249.665V258H208.426V250.142C208.426 249.267 208.199 248.582 207.744 248.088C207.295 247.594 206.673 247.347 205.878 247.347C205.338 247.347 204.858 247.466 204.438 247.705C204.023 247.937 203.696 248.276 203.457 248.719C203.224 249.162 203.108 249.699 203.108 250.33ZM222.991 252.494V244.909H226.077V258H223.085V255.673H222.949C222.653 256.406 222.168 257.006 221.491 257.472C220.821 257.937 219.994 258.17 219.011 258.17C218.153 258.17 217.395 257.98 216.736 257.599C216.082 257.213 215.571 256.653 215.202 255.92C214.832 255.182 214.648 254.29 214.648 253.244V244.909H217.733V252.767C217.733 253.597 217.96 254.256 218.415 254.744C218.869 255.233 219.466 255.477 220.205 255.477C220.659 255.477 221.099 255.366 221.526 255.145C221.952 254.923 222.301 254.594 222.574 254.156C222.852 253.713 222.991 253.159 222.991 252.494ZM235.045 258.256C233.732 258.256 232.599 257.983 231.644 257.438C230.695 256.886 229.965 256.108 229.454 255.102C228.942 254.091 228.687 252.901 228.687 251.531C228.687 250.185 228.942 249.003 229.454 247.986C229.971 246.963 230.692 246.168 231.619 245.599C232.545 245.026 233.633 244.739 234.883 244.739C235.69 244.739 236.451 244.869 237.167 245.131C237.888 245.386 238.525 245.784 239.076 246.324C239.633 246.864 240.07 247.551 240.388 248.386C240.707 249.216 240.866 250.205 240.866 251.352V252.298H230.136V250.219H237.908C237.903 249.628 237.775 249.102 237.525 248.642C237.275 248.176 236.925 247.81 236.477 247.543C236.033 247.276 235.516 247.142 234.925 247.142C234.295 247.142 233.741 247.295 233.263 247.602C232.786 247.903 232.414 248.301 232.147 248.795C231.886 249.284 231.752 249.821 231.746 250.406V252.222C231.746 252.983 231.886 253.636 232.164 254.182C232.442 254.722 232.832 255.136 233.332 255.426C233.832 255.71 234.417 255.852 235.087 255.852C235.536 255.852 235.942 255.79 236.306 255.665C236.67 255.534 236.985 255.344 237.252 255.094C237.519 254.844 237.721 254.534 237.857 254.165L240.738 254.489C240.556 255.25 240.21 255.915 239.698 256.483C239.192 257.045 238.545 257.483 237.755 257.795C236.965 258.102 236.062 258.256 235.045 258.256Z" fill="white"/>
<defs>
<filter id="filter0_d_18_221" x="7" y="0" width="368" height="188" filterUnits="userSpaceOnUse" color-interpolation-filters="sRGB">
<feFlood flood-opacity="0" result="BackgroundImageFix"/>
<feColorMatrix in="SourceAlpha" type="matrix" values="0 0 0 0 0 0 0 0 0 0 0 0 0 0 0 0 0 0 127 0" result="hardAlpha"/>
<feOffset dy="4"/>
<feGaussianBlur stdDeviation="2"/>
<feComposite in2="hardAlpha" operator="out"/>
<feColorMatrix type="matrix" values="0 0 0 0 0 0 0 0 0 0 0 0 0 0 0 0 0 0 0.25 0"/>
<feBlend mode="normal" in2="BackgroundImageFix" result="effect1_dropShadow_18_221"/>
<feBlend mode="normal" in="SourceGraphic" in2="effect1_dropShadow_18_221" result="shape"/>
</filter>
</defs>
</svg>
