<svg width="61" height="60" viewBox="0 0 61 60" fill="none" xmlns="http://www.w3.org/2000/svg">
<path fill-rule="evenodd" clip-rule="evenodd" d="M28.2345 2.34539C28.6088 3.97214 27.5935 5.59432 25.9668 5.96863L23.7827 6.47117L21.7763 7.12145L19.8342 7.94414L17.9712 8.93296L16.2015 10.0804L14.5385 11.3777L12.9949 12.815L11.5824 14.3814L10.3119 16.0649L9.19288 17.8527L8.23396 19.7313L7.44242 21.6863L6.82428 23.7028L6.38424 25.7656L6.12566 27.8588L6.0505 29.9666L6.15934 32.073L6.45134 34.1618L6.92429 36.2173L7.57457 38.2237L8.39727 40.1658L9.38607 42.0288L10.5335 43.7985L11.8308 45.4615L13.2681 47.0051L14.8345 48.4176L16.518 49.6881L18.3058 50.8071L20.1844 51.7661L22.1394 52.5576L24.156 53.1757L26.2187 53.6158L28.3119 53.8743L30.4198 53.9495L32.5261 53.8407L34.615 53.5487L36.6704 53.0757L38.6768 52.4254L40.6189 51.6027L42.4819 50.6139L44.2516 49.4665L45.9146 48.1692L47.4582 46.7319L48.8707 45.1655L50.1412 43.482L51.2603 41.6941L52.2192 39.8156L53.0107 37.8606L53.6289 35.844L54.0689 33.7813L54.3275 31.6881L54.4073 29.4484C54.4668 27.7802 55.8674 26.476 57.5356 26.5355C59.2038 26.595 60.5079 27.9956 60.4484 29.6638L60.3592 32.1672L60.0359 34.7843L59.4857 37.3633L58.7129 39.8845L57.7232 42.3288L56.5243 44.6775L55.1253 46.9128L53.5367 49.0177L51.7708 50.976L49.8409 52.7731L47.7617 54.395L45.549 55.8296L43.2198 57.0659L40.7916 58.0945L38.2831 58.9075L35.7132 59.4988L33.1016 59.8639L30.4681 60L27.8328 59.906L25.2157 59.5827L22.6367 59.0326L20.1155 58.2597L17.6712 57.2701L15.3225 56.0712L13.0872 54.6721L10.9824 53.0836L9.02397 51.3177L7.22695 49.3877L5.60497 47.3086L4.17038 45.0959L2.93409 42.7667L1.90551 40.3385L1.09247 37.83L0.501165 35.2601L0.136082 32.6485L8.03565e-06 30.015L0.0939757 27.3797L0.417272 24.7625L0.967432 22.1836L1.74028 19.6623L2.72991 17.2181L3.92882 14.8694L5.32787 12.6341L6.91641 10.5292L8.68235 8.57085L10.6123 6.77383L12.6915 5.15185L14.9041 3.71726L17.2333 2.48097L19.6615 1.45239L22.17 0.639352L24.6113 0.077633C26.238 -0.296673 27.8602 0.718636 28.2345 2.34539Z" fill="#2F6F4E" fill-opacity="0.8"/>
</svg>
