<svg width="32" height="32" viewBox="0 0 32 32" fill="none" xmlns="http://www.w3.org/2000/svg">
<path d="M14.4 23.9999H17.6V17.6H23.9999V14.4H17.6V7.99998H14.4V14.4H7.99998V17.6H14.4V23.9999ZM16 31.9999C13.7866 31.9999 11.7066 31.5866 9.75998 30.7599C7.81331 29.9066 6.11998 28.7599 4.67999 27.3199C3.23999 25.8799 2.09333 24.1866 1.24 22.2399C0.413332 20.2933 0 18.2133 0 16C0 13.7866 0.413332 11.7066 1.24 9.75997C2.09333 7.81331 3.23999 6.11998 4.67999 4.67999C6.11998 3.23999 7.81331 2.10666 9.75998 1.28C11.7066 0.426665 13.7866 0 16 0C18.2133 0 20.2933 0.426665 22.2399 1.28C24.1866 2.10666 25.8799 3.23999 27.3199 4.67999C28.7599 6.11998 29.8933 7.81331 30.7199 9.75997C31.5733 11.7066 31.9999 13.7866 31.9999 16C31.9999 18.2133 31.5733 20.2933 30.7199 22.2399C29.8933 24.1866 28.7599 25.8799 27.3199 27.3199C25.8799 28.7599 24.1866 29.9066 22.2399 30.7599C20.2933 31.5866 18.2133 31.9999 16 31.9999ZM16 28.7999C19.5733 28.7999 22.5999 27.5599 25.0799 25.0799C27.5599 22.5999 28.7999 19.5733 28.7999 16C28.7999 12.4266 27.5599 9.39998 25.0799 6.91998C22.5999 4.43999 19.5733 3.19999 16 3.19999C12.4266 3.19999 9.39998 4.43999 6.91998 6.91998C4.43999 9.39998 3.19999 12.4266 3.19999 16C3.19999 19.5733 4.43999 22.5999 6.91998 25.0799C9.39998 27.5599 12.4266 28.7999 16 28.7999Z" fill="#D78E19"/>
</svg>
