<svg width="6" height="6" viewBox="0 0 6 6" fill="none" xmlns="http://www.w3.org/2000/svg">
<path d="M2.99988 0.000244131C3.41132 0.000244131 3.79932 0.078366 4.16389 0.23461C4.52846 0.390853 4.84616 0.604386 5.11698 0.875209C5.3878 1.14603 5.60394 1.46633 5.76539 1.83611C5.92684 2.20588 6.00496 2.59389 5.99976 3.00012C5.99976 3.41677 5.92163 3.80478 5.76539 4.16414C5.60915 4.5235 5.39561 4.84119 5.12479 5.11722C4.85397 5.39325 4.53367 5.60939 4.16389 5.76563C3.79412 5.92188 3.40611 6 2.99988 6C2.58323 6 2.19522 5.92188 1.83586 5.76563C1.4765 5.60939 1.15881 5.39586 0.882777 5.12504C0.606746 4.85421 0.390609 4.53652 0.234365 4.17195C0.0781218 3.80738 0 3.41677 0 3.00012C0 2.58868 0.0781218 2.20068 0.234365 1.83611C0.390609 1.47154 0.604142 1.15384 0.874964 0.883021C1.14579 0.612198 1.46348 0.396061 1.82805 0.23461C2.19262 0.0731578 2.58323 -0.00496399 2.99988 0.000244131Z" fill="black"/>
</svg>
