<svg width="17" height="19" viewBox="0 0 17 19" fill="none" xmlns="http://www.w3.org/2000/svg">
<path d="M9.94165 16.8332C9.79515 17.0857 9.58486 17.2954 9.33185 17.4411C9.07884 17.5868 8.79198 17.6636 8.5 17.6636C8.20802 17.6636 7.92116 17.5868 7.66815 17.4411C7.41514 17.2954 7.20485 17.0857 7.05835 16.8332M13.5 5.99995C13.5 4.67388 12.9732 3.40212 12.0355 2.46444C11.0978 1.52677 9.82607 0.999991 8.5 0.999991C7.17393 0.999991 5.90217 1.52677 4.9645 2.46444C4.02682 3.40212 3.50004 4.67388 3.50004 5.99995C3.50004 11.8332 1.00007 13.4999 1.00007 13.4999H15.9999C15.9999 13.4999 13.5 11.8332 13.5 5.99995Z" stroke="#4A4459" stroke-width="2" stroke-linecap="round" stroke-linejoin="round"/>
</svg>
