<svg width="17" height="19" viewBox="0 0 17 19" fill="none" xmlns="http://www.w3.org/2000/svg">
<path d="M9.94165 16.8332C9.79514 17.0857 9.58486 17.2954 9.33185 17.4411C9.07883 17.5868 8.79198 17.6635 8.5 17.6635C8.20802 17.6635 7.92116 17.5868 7.66815 17.4411C7.41514 17.2954 7.20486 17.0857 7.05835 16.8332M13.4999 5.99994C13.4999 4.67387 12.9732 3.40211 12.0355 2.46444C11.0978 1.52677 9.82607 0.999989 8.5 0.999989C7.17393 0.999989 5.90218 1.52677 4.9645 2.46444C4.02683 3.40211 3.50005 4.67387 3.50005 5.99994C3.50005 11.8332 1.00008 13.4999 1.00008 13.4999H15.9999C15.9999 13.4999 13.4999 11.8332 13.4999 5.99994Z" stroke="#4A4459" stroke-width="2" stroke-linecap="round" stroke-linejoin="round"/>
</svg>
